<svg width="30" height="15" viewBox="0 0 30 15" fill="none" xmlns="http://www.w3.org/2000/svg">
<path d="M7.91645 7.61327C7.90609 6.47187 8.84948 5.92345 8.89199 5.8965C8.3612 5.12001 7.53599 5.01427 7.24156 5.00183C6.53972 4.93029 5.87104 5.41547 5.51442 5.41547C5.1578 5.41547 4.60834 5.01219 4.02572 5.0236C3.2596 5.035 2.5536 5.46834 2.15862 6.15464C1.36347 7.53345 1.95543 9.57886 2.73088 10.6995C3.11031 11.2469 3.56128 11.8637 4.15531 11.8409C4.72756 11.8181 4.9432 11.4708 5.63364 11.4708C6.32408 11.4708 6.51898 11.8409 7.12234 11.8295C7.73711 11.8171 8.1269 11.2697 8.50323 10.7203C8.9376 10.0848 9.11695 9.46897 9.12732 9.43683C9.11384 9.43165 7.92889 8.97757 7.91645 7.61327Z" fill="white"/>
<path d="M6.78131 4.26082C7.09631 3.87932 7.30881 3.34832 7.25081 2.81982C6.79681 2.83857 6.24731 3.12232 5.92181 3.50407C5.63056 3.84107 5.37181 4.38107 5.44381 4.89957C5.94881 4.93907 6.46631 4.64132 6.78131 4.26107" fill="white"/>
<path d="M11.8961 8.73612L11.3711 10.3191H10.7021L12.4116 5.28662H13.1954L14.9121 10.3191H14.2171L13.6791 8.73612H11.8961ZM13.5466 8.22812L13.0541 6.77987C12.9421 6.45112 12.8676 6.15237 12.7929 5.86137H12.7784L12.5246 6.77512L12.0321 8.23062L13.5466 8.22812Z" fill="white"/>
<path d="M15.4216 7.88506L15.3916 6.70505H15.9816L16.0116 7.32505H16.0261C16.2946 6.88455 16.7206 6.6233 17.3106 6.6233C18.1846 6.6233 18.8406 7.36255 18.8406 8.4603C18.8406 9.7593 18.0496 10.4011 17.1981 10.4011C16.7201 10.4011 16.3024 10.1916 16.0856 9.83405H16.0711V11.8001H15.4211L15.4216 7.88506ZM16.0706 8.84805C16.0706 8.94805 16.0851 9.03455 16.1006 9.11655C16.2199 9.57155 16.6156 9.8858 17.0866 9.8858C17.7811 9.8858 18.1866 9.31881 18.1866 8.48931C18.1866 7.7643 17.8061 7.1458 17.1116 7.1458C16.6616 7.1458 16.2459 7.4673 16.1184 7.95955C16.0908 8.04649 16.0759 8.1369 16.0739 8.22805V8.84805H16.0706ZM19.5199 7.88506L19.4899 6.70505H20.0799L20.1099 7.32505H20.1244C20.3929 6.88455 20.8189 6.6233 21.4089 6.6233C22.2829 6.6233 22.9389 7.36255 22.9389 8.4603C22.9389 9.7593 22.1479 10.4011 21.2964 10.4011C20.8184 10.4011 20.4006 10.1916 20.1839 9.83405H20.1694V11.8001H19.5194L19.5199 7.88506ZM20.1699 8.84805C20.1699 8.94805 20.1844 9.03455 20.1999 9.11655C20.3191 9.57155 20.7149 9.8858 21.1859 9.8858C21.8804 9.8858 22.2859 9.31881 22.2859 8.48931C22.2859 7.7643 21.9054 7.1458 21.2109 7.1458C20.7609 7.1458 20.3451 7.4673 20.2176 7.95955C20.1901 8.04649 20.1751 8.1369 20.1731 8.22805V8.84805H20.1699ZM23.6189 5.01855H24.2764V10.3193H23.6189V5.01855ZM25.5969 8.63156C25.6114 9.52006 26.1794 9.88605 26.8356 9.88605C27.3064 9.88605 27.5894 9.80405 27.8361 9.69955L27.9481 10.1703C27.7169 10.2753 27.3231 10.3943 26.7466 10.3943C25.6341 10.3943 24.9696 9.6623 24.9696 8.5728C24.9696 7.4833 25.6114 6.62381 26.6646 6.62381C27.8446 6.62381 28.1571 7.6613 28.1571 8.3238C28.1571 8.4588 28.1426 8.56231 28.1321 8.62956L25.5969 8.63156ZM27.5231 8.16081C27.5306 7.74331 27.3511 7.0933 26.6119 7.0933C25.9474 7.0933 25.6561 7.70581 25.6044 8.16081H27.5231Z" fill="white"/>
</svg>
