<svg width="40" height="15" viewBox="0 0 40 15" fill="none" xmlns="http://www.w3.org/2000/svg">
<g clip-path="url(#clip0_63_3161)">
<path d="M7.5 0C5.51088 0 3.60322 0.790176 2.1967 2.1967C0.790176 3.60322 0 5.51088 0 7.5C0 9.48912 0.790176 11.3968 2.1967 12.8033C3.60322 14.2098 5.51088 15 7.5 15C9.48912 15 11.3968 14.2098 12.8033 12.8033C14.2098 11.3968 15 9.48912 15 7.5C15 5.51088 14.2098 3.60322 12.8033 2.1967C11.3968 0.790176 9.48912 0 7.5 0ZM4.5 3H8.09187C9.55437 3 10.5262 3.87875 10.5262 5.1975C10.5262 5.83625 10.3087 6.36125 9.845 6.815C10.7431 7.3825 11.25 8.2625 11.25 9.24062C11.25 11.0281 9.6 12.3756 7.3975 12.3756H4.49937V3.00063L4.5 3ZM5.80312 4.22V7.68062H5.84687C5.9925 7.41062 6.38313 7.18312 7.2525 6.91437C8.52688 6.5025 9.15062 5.96437 9.15062 5.255C9.15062 4.63125 8.67188 4.22 7.94813 4.22H5.80312ZM8.84687 7.51125C8.36812 7.75187 7.80313 7.97875 7.12188 8.205C6.35375 8.44688 5.80312 9.07125 5.80312 9.70937V11.1563H7.28125C8.77312 11.1563 9.87437 10.3187 9.87437 9.18437C9.87437 8.5175 9.48437 7.88 8.84687 7.51125Z" fill="white"/>
</g>
<path d="M20.992 9.128C20.992 8.92 20.9573 8.72533 20.888 8.544C20.824 8.36267 20.7307 8.20533 20.608 8.072C20.4853 7.93867 20.336 7.83467 20.16 7.76C19.9893 7.68 19.7947 7.64 19.576 7.64C19.3573 7.64 19.1573 7.68 18.976 7.76C18.7947 7.83467 18.6373 7.93867 18.504 8.072C18.3707 8.20533 18.2667 8.36267 18.192 8.544C18.1173 8.72533 18.08 8.92 18.08 9.128C18.08 9.336 18.1173 9.53067 18.192 9.712C18.2667 9.89333 18.3707 10.0507 18.504 10.184C18.6373 10.3173 18.7947 10.424 18.976 10.504C19.1573 10.5787 19.3573 10.616 19.576 10.616C19.7947 10.616 19.9893 10.5787 20.16 10.504C20.336 10.424 20.4853 10.3173 20.608 10.184C20.7307 10.0507 20.824 9.89333 20.888 9.712C20.9573 9.53067 20.992 9.336 20.992 9.128ZM17.576 4.952H18.104V7.88H18.12C18.2053 7.752 18.3067 7.64267 18.424 7.552C18.5413 7.46133 18.664 7.38667 18.792 7.328C18.92 7.26933 19.0507 7.22667 19.184 7.2C19.3227 7.17333 19.4533 7.16 19.576 7.16C19.8693 7.16 20.136 7.21067 20.376 7.312C20.6213 7.408 20.832 7.544 21.008 7.72C21.184 7.896 21.32 8.104 21.416 8.344C21.5173 8.584 21.568 8.84533 21.568 9.128C21.568 9.41067 21.5173 9.672 21.416 9.912C21.32 10.152 21.184 10.36 21.008 10.536C20.832 10.712 20.6213 10.8507 20.376 10.952C20.136 11.048 19.8693 11.096 19.576 11.096C19.4533 11.096 19.3227 11.0827 19.184 11.056C19.0507 11.0293 18.92 10.9867 18.792 10.928C18.664 10.8693 18.5413 10.7947 18.424 10.704C18.3067 10.6133 18.2053 10.504 18.12 10.376H18.104V11H17.576V4.952ZM22.5226 8.424C22.5226 8.25867 22.5173 8.09067 22.5066 7.92C22.5013 7.74933 22.496 7.528 22.4906 7.256H23.0106V7.952H23.0266C23.064 7.85067 23.1173 7.75467 23.1866 7.664C23.256 7.568 23.3386 7.48267 23.4346 7.408C23.536 7.33333 23.6506 7.27467 23.7786 7.232C23.912 7.184 24.0613 7.16 24.2266 7.16C24.376 7.16 24.5066 7.176 24.6186 7.208L24.5146 7.728C24.4453 7.70133 24.344 7.688 24.2106 7.688C24.008 7.688 23.8346 7.728 23.6906 7.808C23.5466 7.88267 23.4266 7.98133 23.3306 8.104C23.2346 8.22133 23.1626 8.34933 23.1146 8.488C23.072 8.62667 23.0506 8.76 23.0506 8.888V11H22.5226V8.424ZM27.8943 8.84C27.8943 8.48267 27.7876 8.19467 27.5743 7.976C27.3609 7.752 27.0623 7.64 26.6783 7.64C26.5076 7.64 26.3423 7.67467 26.1823 7.744C26.0223 7.808 25.8809 7.896 25.7583 8.008C25.6409 8.12 25.5449 8.248 25.4703 8.392C25.4009 8.536 25.3663 8.68533 25.3663 8.84H27.8943ZM25.3503 9.272C25.3663 9.45867 25.4116 9.63467 25.4863 9.8C25.5609 9.96533 25.6596 10.1093 25.7823 10.232C25.9049 10.3493 26.0463 10.4427 26.2063 10.512C26.3663 10.5813 26.5396 10.616 26.7263 10.616C27.0089 10.616 27.2516 10.552 27.4543 10.424C27.6623 10.2907 27.8196 10.1387 27.9263 9.968L28.3343 10.304C28.1103 10.5867 27.8623 10.7893 27.5903 10.912C27.3236 11.0347 27.0356 11.096 26.7263 11.096C26.4489 11.096 26.1903 11.048 25.9503 10.952C25.7156 10.8507 25.5129 10.712 25.3423 10.536C25.1716 10.36 25.0356 10.152 24.9342 9.912C24.8383 9.672 24.7903 9.41067 24.7903 9.128C24.7903 8.84533 24.8383 8.584 24.9342 8.344C25.0303 8.104 25.1636 7.896 25.3343 7.72C25.5049 7.544 25.7049 7.408 25.9343 7.312C26.1636 7.21067 26.4116 7.16 26.6783 7.16C26.9609 7.16 27.2143 7.21067 27.4383 7.312C27.6623 7.41333 27.8489 7.54933 27.9983 7.72C28.1529 7.88533 28.2703 8.08267 28.3503 8.312C28.4303 8.536 28.4703 8.776 28.4703 9.032V9.272H25.3503ZM31.0756 11H30.4836L28.9636 7.256H29.5956L30.7876 10.408H30.8036L31.9956 7.256H32.5956L31.0756 11ZM36.4949 9.128C36.4949 8.92 36.4603 8.72533 36.3909 8.544C36.3269 8.36267 36.2336 8.20533 36.1109 8.072C35.9883 7.93867 35.8389 7.83467 35.6629 7.76C35.4923 7.68 35.2976 7.64 35.0789 7.64C34.8603 7.64 34.6629 7.68 34.4869 7.76C34.3163 7.83467 34.1696 7.93867 34.0469 8.072C33.9296 8.20533 33.8363 8.36267 33.7669 8.544C33.7029 8.72533 33.6709 8.92 33.6709 9.128C33.6709 9.336 33.7029 9.53067 33.7669 9.712C33.8363 9.89333 33.9296 10.0507 34.0469 10.184C34.1696 10.3173 34.3163 10.424 34.4869 10.504C34.6629 10.5787 34.8603 10.616 35.0789 10.616C35.2976 10.616 35.4923 10.5787 35.6629 10.504C35.8389 10.424 35.9883 10.3173 36.1109 10.184C36.2336 10.0507 36.3269 9.89333 36.3909 9.712C36.4603 9.53067 36.4949 9.336 36.4949 9.128ZM37.0709 9.128C37.0709 9.41067 37.0203 9.672 36.9189 9.912C36.8229 10.152 36.6869 10.36 36.5109 10.536C36.3349 10.712 36.1243 10.8507 35.8789 10.952C35.6389 11.048 35.3723 11.096 35.0789 11.096C34.7909 11.096 34.5243 11.048 34.2789 10.952C34.0389 10.8507 33.8309 10.712 33.6549 10.536C33.4789 10.36 33.3403 10.152 33.2389 9.912C33.1429 9.672 33.0949 9.41067 33.0949 9.128C33.0949 8.84533 33.1429 8.584 33.2389 8.344C33.3403 8.104 33.4789 7.896 33.6549 7.72C33.8309 7.544 34.0389 7.408 34.2789 7.312C34.5243 7.21067 34.7909 7.16 35.0789 7.16C35.3723 7.16 35.6389 7.21067 35.8789 7.312C36.1243 7.408 36.3349 7.544 36.5109 7.72C36.6869 7.896 36.8229 8.104 36.9189 8.344C37.0203 8.584 37.0709 8.84533 37.0709 9.128Z" fill="white"/>
<defs>
<clipPath id="clip0_63_3161">
<rect width="15" height="15" fill="white"/>
</clipPath>
</defs>
</svg>
