<svg width="30" height="11" viewBox="0 0 30 11" fill="none" xmlns="http://www.w3.org/2000/svg">
<path d="M7.46595 0.763983C7.02337 0.0895704 6.91799 0 6.01702 0C6.01175 0 6.01175 0 6.00648 0C6.00121 0 6.00121 0 5.99594 0C5.09497 0 4.99486 0.0895704 4.54701 0.763983C4.13077 1.39624 0 8.9623 0 9.17306C0 9.47865 0.0790326 9.76844 0.36355 10.1794C0.653337 10.5956 1.15388 10.8275 1.51743 10.4587C1.76506 10.211 4.41529 5.64293 5.69562 3.91475C5.84842 3.69873 6.16455 3.69873 6.32261 3.91475C7.60294 5.64293 10.2532 10.211 10.5008 10.4587C10.8644 10.8275 11.3649 10.5956 11.6547 10.1794C11.9392 9.76844 12.0182 9.47865 12.0182 9.17306C12.013 8.9623 7.88219 1.39098 7.46595 0.763983Z" fill="#1173B6"/>
<path d="M13.4951 2.3291H16.7928V3.14854H14.4654V4.54557H16.4314V5.36786H14.4654V6.98398H16.8753V7.80341H13.4951V2.3291Z" fill="white"/>
<path d="M18.6305 5.65522L17.501 3.83709L18.548 3.69482C18.548 3.69482 19.2451 5.07194 19.2992 5.16868L20.1215 3.69482H21.1173L19.9963 5.65522C19.965 5.70928 19.9678 5.77472 19.9991 5.82594L21.2112 7.68959L20.1499 7.8034L19.302 6.26411C19.2394 6.38077 18.4228 7.8034 18.4228 7.8034H17.3359L18.6277 5.83163C18.6618 5.77757 18.6647 5.70928 18.6305 5.65522Z" fill="white"/>
<path d="M22.7342 8.13644V9.28308L21.7725 9.42535V3.69211H22.5663L22.6346 4.12744H22.6687C22.8423 3.98233 23.0329 3.85714 23.2463 3.75186C23.4597 3.64659 23.6788 3.59253 23.9064 3.59253C24.1625 3.59253 24.3901 3.6409 24.5893 3.73764C24.7885 3.83438 24.9563 3.97664 25.0957 4.16158C25.2352 4.34653 25.3404 4.56561 25.4144 4.82169C25.4855 5.07776 25.5225 5.36514 25.5225 5.68381C25.5225 6.03662 25.4742 6.3496 25.3774 6.62559C25.2807 6.90159 25.1498 7.13205 24.9876 7.31984C24.8254 7.50763 24.6377 7.64989 24.4271 7.74948C24.2137 7.84906 23.9946 7.90028 23.767 7.90028C23.5877 7.90028 23.4113 7.86044 23.2321 7.78362C23.0528 7.7068 22.8793 7.59299 22.7142 7.44788L22.7342 8.13644ZM22.7342 6.76501C22.885 6.89305 23.0301 6.9841 23.1695 7.03247C23.3089 7.08368 23.4398 7.10645 23.5621 7.10645C23.8353 7.10645 24.0629 6.98694 24.2479 6.75079C24.4328 6.51463 24.5238 6.16181 24.5238 5.69234C24.5238 5.27978 24.4527 4.95826 24.3133 4.73064C24.1739 4.50302 23.9491 4.38636 23.6361 4.38636C23.3459 4.38636 23.0443 4.54001 22.7313 4.8473V6.76501H22.7342Z" fill="white"/>
<path d="M26.0967 5.75209C26.0967 5.41066 26.1507 5.10906 26.256 4.83876C26.3613 4.5713 26.5064 4.34368 26.6857 4.16158C26.8678 3.97664 27.0755 3.83722 27.3088 3.73764C27.5421 3.6409 27.7896 3.59253 28.0457 3.59253C28.3018 3.59253 28.5493 3.6409 28.7855 3.73764C29.0216 3.83438 29.2293 3.97664 29.4086 4.16158C29.5878 4.34653 29.7301 4.5713 29.8382 4.83876C29.9463 5.10622 30.0004 5.41066 30.0004 5.75209C30.0004 6.09353 29.9463 6.39513 29.8382 6.66543C29.7301 6.93288 29.585 7.16051 29.4086 7.3426C29.2293 7.52755 29.0216 7.66697 28.7855 7.76086C28.5493 7.85475 28.3018 7.90312 28.0457 7.90312C27.7896 7.90312 27.5449 7.85475 27.3088 7.76086C27.0726 7.66697 26.8678 7.52755 26.6857 7.3426C26.5036 7.15766 26.3613 6.93288 26.256 6.66543C26.1507 6.39513 26.0967 6.09353 26.0967 5.75209ZM27.084 5.75209C27.084 6.16466 27.1693 6.49471 27.3401 6.7451C27.5108 6.99264 27.7469 7.11783 28.0485 7.11783C28.3501 7.11783 28.5863 6.99264 28.7599 6.7451C28.9334 6.49756 29.0188 6.16751 29.0188 5.75209C29.0188 5.33384 28.9334 5.00094 28.7599 4.7534C28.5863 4.50586 28.3501 4.38067 28.0485 4.38067C27.7469 4.38067 27.5108 4.50586 27.3401 4.7534C27.1693 5.00094 27.084 5.33384 27.084 5.75209Z" fill="white"/>
</svg>
