<svg width="30" height="15" viewBox="0 0 30 15" fill="none" xmlns="http://www.w3.org/2000/svg">
<g clip-path="url(#clip0_41_2509)">
<path d="M12.1672 14.8762V9.11495H12.4797V10.0212C12.5166 9.98101 12.5507 9.93833 12.5817 9.89345C12.8427 9.35195 13.3932 9.0102 13.9942 9.01695C14.7067 8.9957 15.2857 9.25945 15.626 9.89345C15.8425 10.2873 15.9617 10.7273 15.9735 11.1766C15.9853 11.6259 15.8895 12.0715 15.694 12.4762C15.377 13.1867 14.594 13.5399 13.7557 13.4102C13.4949 13.388 13.2437 13.3009 13.0252 13.1567C12.8067 13.0125 12.6277 12.8158 12.5047 12.5847V14.8759L12.1672 14.8762ZM12.4797 11.1529L12.5497 11.8294C12.6732 12.5994 13.1285 13.0544 13.8432 13.1399C14.1789 13.1951 14.5233 13.1322 14.8178 12.9619C15.1122 12.7916 15.3385 12.5244 15.458 12.2059C15.736 11.5434 15.7155 10.7934 15.403 10.1464C15.2754 9.86097 15.0584 9.62477 14.7847 9.47354C14.5111 9.32231 14.1956 9.26427 13.886 9.3082C13.5954 9.32934 13.3186 9.44046 13.0941 9.62612C12.8695 9.81177 12.7084 10.0628 12.633 10.3442C12.5664 10.6105 12.5153 10.8805 12.4797 11.1527V11.1529ZM22.3542 11.9359C22.3069 12.3416 22.1138 12.7162 21.8108 12.9902C21.5079 13.2641 21.1159 13.4187 20.7075 13.4252C19.397 13.4912 18.782 12.6209 18.6842 11.6167C18.6163 11.0713 18.7048 10.5179 18.9395 10.0209C19.1028 9.68005 19.3705 9.4 19.7036 9.22138C20.0368 9.04275 20.4182 8.97483 20.7925 9.02745C21.1484 9.0577 21.4857 9.1991 21.7568 9.43164C22.0279 9.66417 22.219 9.97608 22.303 10.3232C22.3696 10.6394 22.4186 10.9591 22.4497 11.2807H19.008C18.9442 12.1912 19.4335 12.9232 20.127 13.0997C20.9907 13.3122 21.729 12.9379 21.997 12.1167C22.0565 11.9059 22.165 11.8762 22.3565 11.9359H22.3542ZM19.0055 10.9892H22.084C22.0647 10.0192 21.4608 9.3142 20.6415 9.3062C19.7165 9.2912 19.0457 9.96795 19.0055 10.9892ZM22.9905 11.9572H23.2922C23.3033 12.1795 23.3755 12.3944 23.5009 12.5784C23.6262 12.7623 23.7999 12.9081 24.0028 12.9997C24.2575 13.1143 24.5348 13.17 24.814 13.1627C25.0932 13.1553 25.3672 13.0851 25.6155 12.9572C25.7509 12.8962 25.8643 12.7952 25.9404 12.6677C26.0164 12.5403 26.0516 12.3925 26.041 12.2444C26.0488 12.1016 26.0098 11.9602 25.9299 11.8415C25.8501 11.7229 25.7337 11.6335 25.5985 11.5869C25.2665 11.4634 24.9135 11.3954 24.5753 11.2869C24.2233 11.1867 23.8791 11.0609 23.5455 10.9104C23.0005 10.6444 22.9667 9.60845 23.5837 9.28045C23.8997 9.10218 24.2552 9.00585 24.6179 9.00026C24.9806 8.99467 25.339 9.08 25.6602 9.24845C26.0587 9.46845 26.279 9.9127 26.2135 10.3634H25.9548C25.9548 10.3509 25.9312 10.3399 25.9312 10.3272C25.8992 9.5022 25.2058 9.2442 24.4613 9.3167C24.2363 9.3417 24.023 9.4097 23.823 9.5102C23.7028 9.5651 23.6026 9.65602 23.5363 9.77037C23.47 9.88471 23.4409 10.0168 23.453 10.1484C23.4533 10.2802 23.4943 10.4086 23.5705 10.516C23.6467 10.6234 23.7543 10.7046 23.8785 10.7484C24.2035 10.8677 24.5485 10.9442 24.8848 11.0377L25.6973 11.2502C25.8819 11.3108 26.0438 11.4261 26.1616 11.5807C26.2794 11.7353 26.3474 11.9221 26.3568 12.1162C26.4218 12.5524 26.1992 12.9812 25.8057 13.1799C25.0952 13.5819 23.925 13.4757 23.4037 12.9674C23.137 12.6992 22.9882 12.3349 22.9912 11.9569L22.9905 11.9572ZM30.1855 10.3637H29.9025C29.9025 10.3254 29.8875 10.2887 29.8832 10.2594C29.8787 10.0473 29.8014 9.84319 29.6643 9.68128C29.5271 9.51938 29.3385 9.40955 29.13 9.3702C28.7367 9.25739 28.3171 9.2776 27.9365 9.4277C27.786 9.47077 27.6535 9.56141 27.5587 9.68605C27.464 9.8107 27.4122 9.96265 27.411 10.1192C27.4056 10.2729 27.4535 10.4238 27.5465 10.5463C27.6395 10.6688 27.772 10.7554 27.9215 10.7914L29.215 11.1234C29.3549 11.157 29.4926 11.1989 29.6275 11.2489C30.04 11.3989 30.32 11.7819 30.3325 12.2197C30.3387 12.434 30.2799 12.6451 30.1639 12.8254C30.0479 13.0056 29.8801 13.1466 29.6825 13.2297C29.3823 13.3661 29.0569 13.4382 28.7272 13.4415C28.3974 13.4449 28.0707 13.3793 27.7677 13.2489C27.5186 13.1415 27.3084 12.9604 27.1654 12.7299C27.0224 12.4994 26.9534 12.2306 26.9678 11.9597H27.2442C27.3482 12.4609 27.6925 12.8784 28.1647 13.0759C28.637 13.2734 29.1762 13.2249 29.6057 12.9469C29.7346 12.8799 29.8416 12.7774 29.914 12.6515C29.9864 12.5256 30.0212 12.3815 30.0142 12.2364C30.0207 12.0935 29.9803 11.9524 29.8993 11.8346C29.8182 11.7167 29.701 11.6284 29.5653 11.5832C29.2333 11.4597 28.8802 11.3939 28.542 11.2832C28.1881 11.1845 27.8418 11.0601 27.506 10.9109C26.974 10.6492 26.9315 9.6217 27.538 9.29395C27.8578 9.10819 28.2203 9.0084 28.5902 9.00428C28.96 9.00017 29.3246 9.09186 29.6485 9.27045C29.8338 9.38101 29.9829 9.54306 30.0777 9.73685C30.1725 9.93065 30.2089 10.1478 30.1825 10.3619L30.1855 10.3637ZM11.653 13.3212C11.5416 13.3633 11.4186 13.3632 11.3073 13.3209C11.196 13.2786 11.104 13.1969 11.0488 13.0914L9.94875 11.5702L9.78925 11.3577L8.51275 13.0937C8.46072 13.1947 8.37372 13.2732 8.268 13.3147C8.16228 13.3562 8.04506 13.3578 7.93825 13.3192L9.58275 11.1129L8.05275 9.11945C8.27975 9.03745 8.53275 9.12645 8.659 9.33195L9.799 10.8719L10.9457 9.33795C10.9982 9.23872 11.0852 9.16222 11.1904 9.12299C11.2955 9.08376 11.4114 9.08455 11.516 9.1252L10.9223 9.91295L10.118 10.9597C10.0957 10.9796 10.0778 11.0041 10.0656 11.0314C10.0534 11.0587 10.047 11.0883 10.047 11.1182C10.047 11.1481 10.0534 11.1777 10.0656 11.205C10.0778 11.2323 10.0957 11.2568 10.118 11.2767L11.6498 13.3212H11.653ZM18.6355 9.0982V9.3982C18.4203 9.38409 18.2046 9.41525 18.0022 9.48967C17.7998 9.5641 17.6152 9.68013 17.4605 9.83029C17.3057 9.98045 17.1841 10.1614 17.1036 10.3614C17.0231 10.5615 16.9854 10.7762 16.993 10.9917C16.993 11.6924 16.993 12.393 16.993 13.0937V13.3319H16.6887V9.11695H16.9887V9.9807C17.3567 9.3507 17.9247 9.11695 18.6375 9.09995L18.6355 9.0982ZM4.0005 11.0854L4.1345 10.4237C4.5025 9.1152 6.0025 8.5707 7.0345 9.3812C7.63875 9.8557 7.7895 10.5279 7.76 11.2854H4.35575C4.30075 12.6384 5.277 13.4554 6.52575 13.0384C6.93725 12.8884 7.247 12.5464 7.349 12.1214C7.415 11.9089 7.524 11.8724 7.7235 11.9339C7.69023 12.193 7.59866 12.4411 7.45568 12.6596C7.31269 12.8782 7.12202 13.0615 6.898 13.1957C6.52789 13.3981 6.10325 13.4783 5.68481 13.4248C5.26637 13.3714 4.87556 13.1869 4.56825 12.8979C4.26425 12.5562 4.08075 12.1242 4.045 11.6679C4.045 11.5929 4.02 11.5229 4.0025 11.4554C4.00083 11.3293 4 11.2059 4 11.0854H4.0005ZM4.36 10.9939H7.4385C7.41925 10.0132 6.80025 9.31745 5.97475 9.31095C5.05575 9.29845 4.39825 9.97895 4.35775 10.9897L4.36 10.9939Z" fill="black"/>
</g>
<defs>
<clipPath id="clip0_41_2509">
<rect width="30" height="15" fill="white"/>
</clipPath>
</defs>
</svg>
