<svg width="30" height="15" viewBox="0 0 30 15" fill="none" xmlns="http://www.w3.org/2000/svg">
<path d="M4.49518 13.4584C5.59102 13.4584 6.4806 12.5688 6.4806 11.473V9.48755H4.49518C3.39935 9.48755 2.50977 10.3771 2.50977 11.473C2.50977 12.5688 3.39935 13.4584 4.49518 13.4584Z" fill="#0ACF83"/>
<path d="M2.50684 7.50006C2.50684 6.40423 3.39642 5.51465 4.49225 5.51465H6.47767V9.48756H4.49225C3.39642 9.48756 2.50684 8.59798 2.50684 7.50215V7.50006Z" fill="#A259FF"/>
<path d="M2.50684 3.52716C2.50684 2.43133 3.39642 1.54175 4.49225 1.54175H6.47767V5.51466H4.49225C3.39642 5.51466 2.50684 4.62508 2.50684 3.52925V3.52716Z" fill="#F24E1E"/>
<path d="M6.46191 1.54175H8.44733C9.54316 1.54175 10.4327 2.43133 10.4327 3.52716C10.4327 4.623 9.54316 5.51258 8.44733 5.51258H6.46191V1.54175Z" fill="#FF7262"/>
<path d="M10.4536 7.50006C10.4536 8.5959 9.564 9.48548 8.46816 9.48548C7.37233 9.48548 6.46191 8.5959 6.46191 7.50006C6.46191 6.40423 7.3515 5.51465 8.44733 5.51465C9.54316 5.51465 10.4327 6.40423 10.4327 7.50006H10.4536Z" fill="#1ABCFE"/>
<path d="M12.624 4.83325V8.99575H13.1594V7.00825H14.4469V6.49159H13.1594V5.35409H14.8324V4.83325H12.624ZM15.8011 5.67909C15.9949 5.67909 16.1511 5.52284 16.1511 5.32909C16.1511 5.13534 15.9928 4.99992 15.8011 4.99992C15.6094 4.99992 15.4511 5.15617 15.4511 5.34992C15.4511 5.44367 15.4886 5.53117 15.5553 5.59992C15.6219 5.66867 15.7094 5.70409 15.8053 5.70409L15.8011 5.67909ZM15.5303 6.20409V8.99575H16.0449V6.20409H15.5136H15.5303ZM18.0553 6.12075C17.3428 6.12075 16.8469 6.74575 16.8469 7.43742C16.8469 8.12909 17.3469 8.74992 18.0553 8.74992C18.2027 8.7525 18.349 8.72438 18.4849 8.66735C18.6208 8.61033 18.7434 8.52564 18.8449 8.41867V8.7895C18.8434 9.01231 18.7569 9.22615 18.6032 9.38742C18.5255 9.46666 18.4328 9.52959 18.3305 9.57252C18.2282 9.61545 18.1183 9.63751 18.0074 9.63742C17.837 9.63204 17.6719 9.577 17.5324 9.47909L17.2615 9.94367C17.4695 10.0774 17.7097 10.1526 17.9569 10.1613C18.204 10.17 18.4489 10.1119 18.6658 9.99316C18.8827 9.87437 19.0635 9.69929 19.1892 9.48636C19.315 9.27344 19.381 9.03054 19.3803 8.78325V6.19992H18.8449V6.44992C18.7434 6.34295 18.6208 6.25826 18.4849 6.20123C18.349 6.14421 18.2027 6.11817 18.0553 6.12075ZM17.3844 7.43742C17.3722 7.30197 17.3982 7.16582 17.4593 7.04433C17.5204 6.92284 17.6143 6.82086 17.7303 6.74992C17.9678 6.60409 18.2657 6.60409 18.5011 6.74992C18.7365 6.89575 18.8699 7.16242 18.8469 7.43742C18.8591 7.57286 18.8332 7.70902 18.7721 7.83051C18.711 7.952 18.6171 8.05397 18.5011 8.12492C18.2636 8.27075 17.9657 8.27075 17.7303 8.12492C17.4949 7.97909 17.3615 7.71242 17.3844 7.43742Z" fill="white"/>
<path d="M21.311 6.66671C21.157 6.66726 21.0095 6.72868 20.9006 6.83756C20.7917 6.94645 20.7303 7.09397 20.7298 7.24796V9.01463H20.1943V6.22296H20.7298V6.45838C20.8923 6.24171 21.1506 6.11671 21.4214 6.12088C21.7631 6.11254 22.0818 6.29588 22.2506 6.59379C22.4589 6.30213 22.7589 6.12504 23.0839 6.12088C23.6943 6.12088 24.0735 6.61254 24.0756 7.22088V8.99796H23.5402V7.22713C23.5559 7.11682 23.5396 7.00432 23.4934 6.90295C23.4472 6.80157 23.3729 6.71555 23.2793 6.65507C23.1857 6.59458 23.0768 6.56216 22.9654 6.56164C22.854 6.56112 22.7447 6.59252 22.6506 6.65213C22.557 6.71316 22.4829 6.79979 22.4371 6.90173C22.3913 7.00366 22.3757 7.11661 22.3923 7.22713V8.99379H21.8777V7.22921C21.8771 7.07522 21.8157 6.9277 21.7068 6.81881C21.5979 6.70993 21.4504 6.64851 21.2964 6.64796L21.311 6.66671ZM26.936 6.52088C26.8141 6.39371 26.6675 6.29281 26.5053 6.22438C26.343 6.15595 26.1684 6.12144 25.9923 6.12296C25.1943 6.12296 24.6381 6.79796 24.6381 7.58129C24.6381 8.36463 25.2006 9.03963 25.9923 9.03963C26.1684 9.04115 26.343 9.00664 26.5053 8.93821C26.6675 8.86978 26.8141 8.76888 26.936 8.64171V8.95838H27.4714V6.16671H26.936V6.52088ZM25.1652 7.60421C25.1381 7.27088 25.3006 6.95004 25.586 6.77504C25.8714 6.60004 26.211 6.60004 26.5152 6.77504C26.6545 6.86151 26.7674 6.98455 26.8416 7.13075C26.9158 7.27696 26.9485 7.44073 26.936 7.60421C26.9631 7.93754 26.8006 8.25838 26.5152 8.43338C26.2298 8.60838 25.8902 8.60838 25.586 8.43338C25.4467 8.34691 25.3338 8.22388 25.2596 8.07767C25.1854 7.93146 25.1527 7.7677 25.1652 7.60421Z" fill="white"/>
</svg>
