<svg width="60" height="30" viewBox="0 0 60 30" fill="none" xmlns="http://www.w3.org/2000/svg">
<path d="M5.96094 20.4729L6.05669 20.3388L10.5851 11.7464L10.5946 11.6554L8.59847 7.90579C8.43115 7.59171 7.96029 7.67108 7.90544 8.02269L5.96094 20.4729Z" fill="#FFC24A"/>
<path d="M6.01758 20.3705L6.08997 20.2293L10.5704 11.7269L8.57975 7.96209C8.41423 7.65125 7.99402 7.73049 7.93931 8.07845L6.01758 20.3705Z" fill="#FFA712"/>
<path d="M6.01758 20.3705L6.08997 20.2293L10.5704 11.7269L8.57975 7.96209C8.41423 7.65125 7.99402 7.73049 7.93931 8.07845L6.01758 20.3705Z" fill="black"/>
<path d="M12.0497 14.4916L13.536 12.9695L12.0493 10.1312C11.9081 9.86256 11.5141 9.8618 11.3745 10.1312L10.5801 11.6466V11.7756L12.0497 14.4916Z" fill="#F4BD62"/>
<path d="M12.0235 14.4282L13.4684 12.9483L12.0235 10.1968C11.8863 9.93519 11.5529 9.90822 11.4172 10.1697L10.6186 11.7077L10.5947 11.7863L12.0235 14.4282Z" fill="#FFA50E"/>
<path d="M12.0235 14.4282L13.4684 12.9483L12.0235 10.1968C11.8863 9.93519 11.5529 9.90822 11.4172 10.1697L10.6186 11.7077L10.5947 11.7863L12.0235 14.4282Z" fill="black"/>
<path d="M10.5844 11.6377L5.96094 20.4728L6.00433 20.4291L6.162 20.3651L11.9566 14.5921L12.0299 14.3923L10.5844 11.6377Z" fill="#F6820C"/>
<path d="M12.2355 23.3842L17.4796 20.4595L15.9825 11.2361C15.9356 10.9476 15.5816 10.8335 15.3751 11.0404L5.96094 20.4728L11.175 23.384C11.3371 23.4745 11.5196 23.522 11.7052 23.5221C11.8909 23.5221 12.0734 23.4747 12.2355 23.3843" fill="#FDE068"/>
<path d="M17.4326 20.4351L15.9465 11.2821C15.9 10.9957 15.6055 10.8772 15.4006 11.0826L6.01953 20.4549L11.1763 23.3369C11.5033 23.5195 11.9016 23.5196 12.2287 23.3372L17.4326 20.4351Z" fill="#FCCA3F"/>
<path d="M12.2355 23.2982C11.9062 23.482 11.5045 23.4819 11.175 23.2979L6.00288 20.4286L5.96094 20.4729L11.175 23.3841C11.5045 23.5682 11.9059 23.5682 12.2355 23.3844L17.4797 20.4596L17.4668 20.3806L12.2355 23.2982Z" fill="#EEAB37"/>
<path d="M21.4501 19.1186H20.5576V12.1726H24.6076V13.0261H21.4501V15.3061H24.3026V16.1411H21.4501V19.1186ZM26.1766 13.1716C26.0536 13.2946 25.9051 13.3566 25.7306 13.3566C25.6476 13.358 25.5651 13.3423 25.4884 13.3105C25.4116 13.2787 25.3423 13.2314 25.2846 13.1716C25.2251 13.1137 25.1779 13.0443 25.1461 12.9677C25.1143 12.891 25.0985 12.8086 25.0996 12.7256C25.0982 12.6425 25.1139 12.56 25.1457 12.4833C25.1775 12.4066 25.2248 12.3372 25.2846 12.2796C25.3425 12.22 25.4118 12.1729 25.4885 12.1411C25.5652 12.1093 25.6476 12.0934 25.7306 12.0946C25.8137 12.0931 25.8961 12.1088 25.9729 12.1407C26.0496 12.1725 26.119 12.2198 26.1766 12.2796C26.2362 12.3374 26.2833 12.4068 26.3151 12.4835C26.3469 12.5602 26.3628 12.6426 26.3616 12.7256C26.3631 12.8086 26.3474 12.8911 26.3155 12.9678C26.2837 13.0446 26.2364 13.1139 26.1766 13.1716ZM26.1766 19.1186H25.2841V14.3651H26.1766V19.1186ZM28.1031 19.1186H27.2101V14.3651H28.0636V15.1411H28.1021C28.1921 14.8826 28.3786 14.6691 28.6601 14.5011C28.9416 14.3331 29.2101 14.2486 29.4801 14.2486C29.7501 14.2486 29.9686 14.2876 30.1501 14.3651L29.8101 15.2001C29.6936 15.1501 29.5351 15.1321 29.3351 15.1321C29.0116 15.1321 28.7251 15.2596 28.4766 15.5151C28.2281 15.7706 28.1031 16.1051 28.1031 16.5191V19.1186ZM32.4971 19.2686C31.7791 19.2686 31.1956 19.0296 30.7461 18.5506C30.2966 18.0716 30.0711 17.4676 30.0711 16.7366C30.0711 16.0446 30.2891 15.4496 30.7211 14.9516C31.1531 14.4536 31.7211 14.2046 32.3946 14.2046C33.0946 14.2046 33.6636 14.4346 34.0876 14.8936C34.5116 15.3526 34.7226 15.9671 34.7226 16.7371L34.7126 16.9021H30.9626C30.9886 17.3806 31.1486 17.7591 31.4426 18.0371C31.579 18.1711 31.7405 18.2769 31.9179 18.3484C32.0952 18.42 32.2849 18.4559 32.4761 18.4541C33.1161 18.4541 33.5496 18.1826 33.7761 17.6391L34.5761 17.9691C34.4261 18.3376 34.1651 18.6466 33.8096 18.8956C33.4541 19.1446 33.0171 19.2691 32.4996 19.2691L32.4971 19.2686ZM33.7771 16.1686C33.7571 15.8971 33.6331 15.6386 33.4036 15.3926C33.1741 15.1466 32.8326 15.0241 32.3801 15.0241C32.0501 15.0241 31.7641 15.1276 31.5216 15.3341C31.2791 15.5406 31.1126 15.8191 31.0216 16.1691H33.7716L33.7771 16.1686ZM37.9586 19.2686C37.5961 19.2686 37.2711 19.1911 36.9836 19.0356C36.6961 18.8801 36.4806 18.6866 36.3336 18.4536H36.3001V19.1136H35.4466V12.1726H36.3391V14.3651L36.3001 15.0251H36.3391C36.4816 14.7921 36.6966 14.5981 36.9891 14.4431C37.2816 14.2881 37.6021 14.2101 37.9641 14.2101C38.5791 14.2101 39.1141 14.4526 39.5551 14.9376C39.9961 15.4226 40.2251 16.0241 40.2251 16.7376C40.2251 17.4511 40.0021 18.0576 39.5551 18.5376C39.1081 19.0176 38.5786 19.2651 37.9641 19.2651L37.9586 19.2686ZM37.8086 18.4536C38.2226 18.4536 38.5786 18.2966 38.8756 17.9836C39.1726 17.6706 39.3216 17.2546 39.3216 16.7371C39.3216 16.2196 39.1726 15.8041 38.8756 15.4906C38.5786 15.1771 38.2221 15.0206 37.8086 15.0206C37.607 15.0166 37.407 15.0561 37.222 15.1363C37.037 15.2166 36.8715 15.3357 36.7366 15.4856C36.4426 15.8006 36.2951 16.2131 36.2951 16.7371C36.2951 17.2611 36.4421 17.6781 36.7366 17.9886C37.0311 18.2991 37.3881 18.4546 37.8086 18.4546V18.4536ZM42.5651 19.2686C42.0651 19.2686 41.6386 19.1186 41.2991 18.8321C40.9596 18.5456 40.7891 18.1561 40.7891 17.6821C40.7891 17.1646 40.9891 16.7591 41.3906 16.4646C41.7921 16.1701 42.2866 16.0231 42.8756 16.0231C43.3996 16.0231 43.8296 16.1201 44.1656 16.3141V16.1781C44.1656 15.8281 44.0456 15.5491 43.8066 15.3391C43.5676 15.1291 43.2731 15.0241 42.9236 15.0241C42.6646 15.0241 42.4301 15.0856 42.2201 15.2091C42.0203 15.3199 41.8671 15.499 41.7886 15.7136L40.9736 15.3646C41.0836 15.0796 41.3001 14.8166 41.6236 14.5746C41.9471 14.3326 42.3736 14.2106 42.9036 14.2106C43.5116 14.2106 44.0161 14.3886 44.4171 14.7441C44.8181 15.0996 45.0186 15.6011 45.0186 16.2476V19.1191H44.1701V18.4591H44.1311C43.7751 19.0021 43.2546 19.2741 42.5691 19.2741L42.5651 19.2686ZM42.7151 18.4536C43.0836 18.4536 43.4186 18.3161 43.7191 18.0411C44.0196 17.7661 44.1701 17.4411 44.1701 17.0661C43.9181 16.8591 43.5401 16.7561 43.0351 16.7561C42.6016 16.7561 42.2751 16.8501 42.0551 17.0376C41.8351 17.2251 41.7251 17.4451 41.7251 17.6976C41.7251 17.9306 41.8251 18.1146 42.0261 18.2506C42.2271 18.3866 42.4561 18.4546 42.7151 18.4546V18.4536ZM47.6151 19.2686C47.0851 19.2686 46.6466 19.1386 46.3001 18.8806C45.9625 18.6328 45.6992 18.2973 45.5386 17.9106L46.3386 17.5806C46.5906 18.1806 47.0211 18.4731 47.6286 18.4731C47.9066 18.4731 48.1346 18.4116 48.3126 18.2881C48.4906 18.1646 48.5796 18.0031 48.5796 17.8031C48.5796 17.4931 48.3631 17.2831 47.9296 17.1731L46.9696 16.9401C46.6656 16.8626 46.3776 16.7151 46.1061 16.4986C45.8346 16.2821 45.7001 16.0001 45.7001 15.6261C45.7001 15.2061 45.8861 14.8646 46.2581 14.6026C46.6301 14.3406 47.0716 14.2096 47.5831 14.2096C48.0031 14.2096 48.3831 14.3096 48.7081 14.4956C49.0331 14.6816 49.2741 14.9596 49.4166 15.3156L48.6406 15.6356C48.4656 15.2156 48.1036 15.0056 47.5541 15.0056C47.2891 15.0056 47.0656 15.0556 46.8841 15.1706C46.7026 15.2856 46.6126 15.4291 46.6126 15.6166C46.6126 15.8881 46.8226 16.0726 47.2426 16.1696L48.1836 16.3926C48.6296 16.4961 48.9596 16.6741 49.1736 16.9261C49.3876 17.1781 49.4936 17.4631 49.4936 17.7796C49.4936 18.2066 49.3186 18.5621 48.9696 18.8466C48.6206 19.1311 48.1706 19.2736 47.6211 19.2736L47.6151 19.2686ZM52.3686 19.2686C51.6506 19.2686 51.0666 19.0296 50.6176 18.5506C50.1686 18.0716 49.9426 17.4676 49.9426 16.7366C49.9426 16.0446 50.1606 15.4496 50.5926 14.9516C51.0246 14.4536 51.5926 14.2046 52.2661 14.2046C52.9661 14.2046 53.5351 14.4346 53.9591 14.8936C54.3831 15.3526 54.5941 15.9671 54.5941 16.7371V16.9021H50.8441C50.8691 17.3806 51.0301 17.7591 51.3241 18.0371C51.4605 18.171 51.6219 18.2768 51.7991 18.3483C51.9764 18.4199 52.166 18.4558 52.3571 18.4541C52.9971 18.4541 53.4306 18.1826 53.6571 17.6391L54.4571 17.9691C54.3071 18.3376 54.0461 18.6466 53.6906 18.8956C53.3351 19.1446 52.8981 19.2691 52.3806 19.2691L52.3686 19.2686ZM53.6486 16.1686C53.6286 15.8971 53.5046 15.6386 53.2751 15.3926C53.0456 15.1466 52.7041 15.0241 52.2516 15.0241C51.937 15.0185 51.6314 15.1291 51.3931 15.3346C51.1506 15.5416 50.9841 15.8196 50.8931 16.1696H53.6431L53.6486 16.1686Z" fill="white"/>
</svg>
