<svg width="30" height="15" viewBox="0 0 30 15" fill="none" xmlns="http://www.w3.org/2000/svg">
<path d="M18.0074 6.56756C17.5824 6.56756 17.2654 6.77631 17.2654 7.27881C17.2654 7.65381 17.4742 7.92006 17.9842 7.92006C18.4167 7.92006 18.7104 7.66506 18.7104 7.26306C18.7104 6.80681 18.4479 6.56756 18.0074 6.56756ZM17.1574 10.1151C17.0567 10.2386 16.9564 10.3701 16.9564 10.5213C16.9564 10.8301 17.3502 10.9233 17.8914 10.9233C18.3397 10.9233 18.9502 10.8921 18.9502 10.4751C18.9502 10.2276 18.6564 10.2121 18.2852 10.1888L17.1602 10.1118L17.1574 10.1151ZM19.4449 6.59056C19.5837 6.76881 19.7309 7.01556 19.7309 7.37131C19.7309 8.22881 19.0559 8.73131 18.0849 8.73131C17.8349 8.73131 17.6162 8.70006 17.4742 8.66181L17.2192 9.06806L17.9767 9.11431C19.3142 9.19931 20.1017 9.23831 20.1017 10.2656C20.1017 11.1546 19.3217 11.6561 17.9767 11.6561C16.5779 11.6561 16.0449 11.3006 16.0449 10.6873C16.0449 10.3398 16.1999 10.1541 16.4699 9.89881C16.2149 9.79131 16.1299 9.59781 16.1299 9.38931C16.1299 9.21931 16.2149 9.06431 16.3542 8.92056L16.8332 8.45681C16.4544 8.27181 16.1682 7.86931 16.1682 7.30056C16.1682 6.41181 16.7557 5.80156 17.9382 5.80156C18.2707 5.80156 18.4717 5.83231 18.6494 5.87906H20.1564V6.53581L19.4452 6.58981M21.5157 5.18606C21.0782 5.18606 20.8202 4.93106 20.8202 4.49006C20.8202 4.04906 21.0752 3.81006 21.5157 3.81006C21.9639 3.81006 22.2189 4.05006 22.2189 4.49006C22.2189 4.93006 21.9637 5.18606 21.5157 5.18606ZM20.5157 9.83056V9.22056L20.9102 9.16656C21.0182 9.15106 21.0339 9.12781 21.0339 9.01156V6.74006C21.0339 6.65506 21.0107 6.60106 20.9332 6.57756L20.5157 6.43081L20.6007 5.80531H22.2007V9.01281C22.2007 9.13656 22.2082 9.15181 22.3244 9.16781L22.7182 9.22181V9.83131H20.5149M25.7774 9.53131C25.4449 9.69381 24.9579 9.84381 24.5174 9.84381C23.5974 9.84381 23.2499 9.47331 23.2499 8.59956V6.57456C23.2499 6.52831 23.2499 6.49706 23.1874 6.49706H22.6499V5.80956C23.3299 5.73456 23.6007 5.39206 23.6857 4.54956H24.4199V5.64706C24.4199 5.70081 24.4199 5.72456 24.4819 5.72456H25.5719V6.49706H24.4174V8.34081C24.4174 8.79706 24.5259 8.97456 24.9424 8.97456C25.1589 8.97456 25.3799 8.92056 25.5684 8.85106L25.7772 9.53106" fill="white"/>
<path d="M12.6673 7.31254L8.03433 2.68004C7.76783 2.41329 7.33508 2.41329 7.06808 2.68004L6.10633 3.64204L7.32633 4.86204C7.61008 4.76629 7.93508 4.83079 8.16058 5.05629C8.26825 5.16414 8.34342 5.3001 8.3775 5.44863C8.41159 5.59717 8.40321 5.75229 8.35333 5.89629L9.52933 7.07229C9.81058 6.97429 10.1418 7.03804 10.3693 7.26479C10.4704 7.36566 10.5431 7.49138 10.5801 7.62929C10.6172 7.76721 10.6172 7.91244 10.5802 8.05036C10.5432 8.18829 10.4705 8.31403 10.3695 8.41492C10.2684 8.51581 10.1426 8.58828 10.0046 8.62504C9.86673 8.66201 9.72158 8.66202 9.58373 8.62507C9.44588 8.58811 9.3202 8.5155 9.21933 8.41454C8.98058 8.17554 8.92183 7.82454 9.04258 7.53029L7.94883 6.43654V9.32279C8.02383 9.36129 8.09933 9.41204 8.16383 9.47654C8.48133 9.79404 8.48133 10.3085 8.16383 10.6265C8.08837 10.7021 7.99875 10.762 7.90011 10.8029C7.80147 10.8438 7.69574 10.8649 7.58895 10.8649C7.48217 10.8649 7.37644 10.8438 7.27779 10.8029C7.17915 10.762 7.08954 10.7021 7.01408 10.6265C6.69658 10.3083 6.69658 9.79404 7.01408 9.47654C7.09027 9.40041 7.18075 9.34009 7.28033 9.29904V6.38654C7.18658 6.34654 7.09283 6.28804 7.01408 6.21154C6.89998 6.09751 6.8224 5.95209 6.79124 5.79382C6.76007 5.63554 6.77673 5.47157 6.83908 5.32279L5.63608 4.11954L2.45733 7.29079C2.32955 7.41916 2.25781 7.59292 2.25781 7.77404C2.25781 7.95517 2.32955 8.12892 2.45733 8.25729L7.09058 12.8898C7.35708 13.1565 7.78983 13.1565 8.05683 12.8898L12.6673 8.27904C12.7951 8.15067 12.8668 7.97692 12.8668 7.79579C12.8668 7.61467 12.7951 7.44091 12.6673 7.31254Z" fill="#F03C2E"/>
</svg>
