<svg width="30" height="15" viewBox="0 0 30 15" fill="none" xmlns="http://www.w3.org/2000/svg">
<g clip-path="url(#clip0_63_3196)">
<mask id="mask0_63_3196" style="mask-type:luminance" maskUnits="userSpaceOnUse" x="-1" y="2" width="12" height="12">
<path d="M-0.046875 2.48943H10.6763V13.2126H-0.046875V2.48943Z" fill="white"/>
</mask>
<g mask="url(#mask0_63_3196)">
<path d="M7.8234 10.4823C7.8234 10.9654 6.70452 11.3569 5.3243 11.3569C3.94408 11.3569 2.8252 10.9654 2.8252 10.4823C2.8252 9.99931 3.94403 9.60761 5.3243 9.60761C6.70457 9.60761 7.8234 9.9998 7.8234 10.4823" fill="#A0DCF2"/>
</g>
<mask id="mask1_63_3196" style="mask-type:luminance" maskUnits="userSpaceOnUse" x="3" y="10" width="4" height="3">
<path d="M5.9962 10.4494C6.01323 10.3941 6.01606 10.3088 5.84538 10.3475C5.84538 10.3475 5.37897 10.4141 5.35673 10.9582L5.3461 12.0008H5.23401L5.22343 10.9582C5.20119 10.4141 4.73483 10.3475 4.73483 10.3475C4.56465 10.3088 4.56688 10.394 4.58391 10.4493C4.41661 10.1645 3.96862 10.2013 3.96862 10.2013C3.81308 10.2568 3.9575 10.3567 3.9575 10.3567C4.20175 10.4455 4.22409 10.7121 4.22409 10.7121V11.4652L4.2499 12.0474C4.30536 12.3067 4.44223 12.46 4.57646 12.5503L6.00638 12.5487C6.17934 12.4312 6.35622 12.2088 6.35622 11.7887V10.7121C6.35622 10.7121 6.37841 10.4455 6.62281 10.3567C6.62281 10.3567 6.76708 10.2567 6.61164 10.2013C6.61164 10.2013 6.59268 10.1998 6.56115 10.1997C6.43928 10.1997 6.12925 10.2231 5.9963 10.4494M4.64617 11.5228V10.701C4.64617 10.6208 4.63202 10.5532 4.60779 10.4965C4.76864 10.6219 4.77941 10.9361 4.77941 10.9361V11.9618C4.61931 11.8485 4.64617 11.5226 4.64617 11.5226M5.80139 10.936C5.80139 10.936 5.81217 10.6217 5.97296 10.4964C5.94879 10.5531 5.93464 10.6206 5.93464 10.7009V11.5227C5.93464 11.5227 5.96145 11.8255 5.80139 11.9502V10.936Z" fill="white"/>
</mask>
<g mask="url(#mask1_63_3196)">
<path d="M7.82438 10.4823C7.82438 10.9654 6.70549 11.3569 5.32528 11.3569C3.94506 11.3569 2.82617 10.9654 2.82617 10.4823C2.82617 9.99931 3.94501 9.60761 5.32528 9.60761C6.70554 9.60761 7.82438 9.9998 7.82438 10.4823" fill="#82BDE7"/>
</g>
<mask id="mask2_63_3196" style="mask-type:luminance" maskUnits="userSpaceOnUse" x="-1" y="2" width="12" height="12">
<path d="M-0.046875 2.48943H10.6763V13.2126H-0.046875V2.48943Z" fill="white"/>
</mask>
<g mask="url(#mask2_63_3196)">
<path d="M2.47036 7.91051L2.39823 8.16186C2.39823 8.16186 2.37946 8.25271 2.46505 8.2688C2.55441 8.26706 2.54711 8.18341 2.54086 8.1563L2.47036 7.91051Z" fill="#A0DCF2"/>
<path d="M9.73505 6.8567L9.74165 6.82403C9.0085 6.67743 8.25618 6.67594 7.80055 6.69485C7.87531 6.42548 7.89785 6.1155 7.89785 5.76983C7.89785 5.27408 7.71158 4.87747 7.4092 4.57568C7.46207 4.40515 7.53267 4.02631 7.33871 3.54144C7.33871 3.54144 6.99616 3.43281 6.2229 3.95066C5.91977 3.8749 5.59718 3.83747 5.27409 3.83747C4.91864 3.83747 4.55946 3.88274 4.22446 3.97463C3.42587 3.42979 3.0734 3.54139 3.0734 3.54139C2.84325 4.11726 2.98553 4.54272 3.02872 4.64856C2.75826 4.94047 2.59314 5.313 2.59314 5.76978C2.59314 6.11466 2.63246 6.42399 2.72837 6.69287C2.26931 6.67619 1.54435 6.68259 0.836914 6.82393L0.843467 6.8566C1.55462 6.71436 2.28405 6.7094 2.73989 6.72668C2.76099 6.78228 2.78457 6.83589 2.81088 6.88852C2.35971 6.90306 1.58943 6.9605 0.851162 7.16881L0.860197 7.20083C1.60427 6.99098 2.3813 6.93494 2.82811 6.92133C3.09767 7.42373 3.62912 7.74831 4.5746 7.84968C4.44036 7.93984 4.30354 8.09314 4.24794 8.35258C4.0651 8.43996 3.48624 8.65353 3.13888 8.05621C3.13888 8.05621 2.94447 7.70075 2.57234 7.67295C2.57234 7.67295 2.21142 7.66799 2.54737 7.89784C2.54737 7.89784 2.78899 8.01167 2.95559 8.43896C2.95559 8.43896 3.17304 9.16849 4.22212 8.93442V9.68802C4.22212 9.68802 4.19993 9.95461 3.95553 10.0434C3.95553 10.0434 3.81117 10.1434 3.96665 10.1988C3.96665 10.1988 4.64405 10.2544 4.64405 9.69909V8.87738C4.64405 8.87738 4.61724 8.55146 4.77725 8.43822V9.7889C4.77725 9.7889 4.76623 10.1109 4.59962 10.2331C4.59962 10.2331 4.48856 10.4329 4.73287 10.3775C4.73287 10.3775 5.19923 10.3109 5.22147 9.76671L5.23209 8.40084H5.34414L5.35481 9.76671C5.377 10.3108 5.84341 10.3775 5.84341 10.3775C6.08766 10.4329 5.97661 10.2331 5.97661 10.2331C5.81005 10.111 5.79898 9.7889 5.79898 9.7889V8.45083C5.95899 8.57494 5.93223 8.87837 5.93223 8.87837V9.70008C5.93223 10.2553 6.60958 10.1998 6.60958 10.1998C6.76496 10.1443 6.62075 10.0444 6.62075 10.0444C6.3764 9.95501 6.35416 9.68901 6.35416 9.68901V8.61188C6.35416 8.19188 6.17727 7.96938 6.00431 7.85197C7.01209 7.75198 7.49643 7.42642 7.71943 6.92054C8.16107 6.93265 8.95587 6.98647 9.71613 7.20103L9.72517 7.16901C8.96923 6.95579 8.17973 6.90063 7.73358 6.88762C7.75473 6.83649 7.77314 6.78337 7.78953 6.72876C8.24154 6.7089 8.99728 6.70965 9.73331 6.85684" fill="#292929"/>
<path d="M6.91223 5.7459C7.12943 5.94264 7.25647 6.18029 7.25647 6.43621C7.25647 7.6314 6.36545 7.66382 5.26647 7.66382C4.16749 7.66382 3.27637 7.49885 3.27637 6.43671C3.27637 6.18243 3.40167 5.94632 3.61618 5.75037C3.97392 5.42381 4.57949 5.59672 5.26637 5.59672C5.95057 5.59672 6.55385 5.42207 6.91208 5.7464" fill="#F5CDB5"/>
<path d="M4.60454 6.49772C4.60454 6.82686 4.41916 7.09375 4.1905 7.09375C3.96184 7.09375 3.77637 6.82691 3.77637 6.49772C3.77637 6.16853 3.96184 5.90179 4.1905 5.90179C4.41916 5.90179 4.60454 6.16853 4.60454 6.49772Z" fill="white"/>
<path d="M4.47197 6.50533C4.47197 6.72476 4.34786 6.90259 4.19595 6.90259C4.04403 6.90259 3.91992 6.72476 3.91992 6.50533C3.91992 6.2859 4.04344 6.10788 4.19595 6.10788C4.34845 6.10788 4.47197 6.28581 4.47197 6.50533Z" fill="#B1645A"/>
<path d="M6.82622 6.49772C6.82622 6.82686 6.64084 7.09375 6.41208 7.09375C6.18332 7.09375 5.99805 6.82691 5.99805 6.49772C5.99805 6.16853 6.18347 5.90179 6.41208 5.90179C6.64069 5.90179 6.82622 6.16853 6.82622 6.49772Z" fill="white"/>
<path d="M6.69335 6.50531C6.69335 6.72474 6.56924 6.90257 6.41732 6.90257C6.26541 6.90257 6.1413 6.72474 6.1413 6.50531C6.1413 6.28588 6.26541 6.10786 6.41732 6.10786C6.56924 6.10786 6.69335 6.28578 6.69335 6.50531ZM5.37598 7.02658C5.37598 7.08377 5.32961 7.13014 5.27242 7.13014C5.21523 7.13014 5.16886 7.08377 5.16886 7.02658C5.16886 6.96939 5.21518 6.92302 5.27242 6.92302C5.32966 6.92302 5.37598 6.96939 5.37598 7.02658ZM5.0312 7.28845C5.02974 7.28433 5.02911 7.27996 5.02934 7.27559C5.02958 7.27122 5.03067 7.26695 5.03255 7.263C5.03444 7.25905 5.03708 7.25552 5.04033 7.25259C5.04358 7.24967 5.04738 7.24741 5.0515 7.24596C5.05563 7.2445 5.06 7.24387 5.06437 7.2441C5.06873 7.24433 5.07301 7.24542 5.07696 7.24731C5.0809 7.24919 5.08444 7.25184 5.08736 7.25509C5.09029 7.25834 5.09254 7.26214 5.094 7.26626C5.12061 7.34147 5.19195 7.39201 5.27158 7.39201C5.35121 7.39201 5.4225 7.34147 5.44921 7.26626C5.45066 7.26214 5.45292 7.25835 5.45584 7.2551C5.45876 7.25185 5.4623 7.24921 5.46624 7.24733C5.47019 7.24544 5.47446 7.24435 5.47883 7.24412C5.48319 7.24389 5.48756 7.24452 5.49168 7.24598C5.4958 7.24744 5.49959 7.24969 5.50284 7.25262C5.50609 7.25554 5.50873 7.25907 5.51061 7.26302C5.5125 7.26696 5.51358 7.27124 5.51381 7.2756C5.51405 7.27997 5.51341 7.28433 5.51196 7.28845C5.49406 7.33784 5.46139 7.38052 5.41838 7.41069C5.37537 7.44085 5.32411 7.45703 5.27158 7.45703C5.21905 7.45703 5.16779 7.44085 5.12478 7.41069C5.08177 7.38052 5.04909 7.33784 5.0312 7.28845Z" fill="#B1645A"/>
<path d="M2.73524 7.76234C2.73524 7.78999 2.70287 7.81228 2.663 7.81228C2.62314 7.81228 2.59082 7.78994 2.59082 7.76234C2.59082 7.73474 2.62309 7.7123 2.663 7.7123C2.70292 7.7123 2.73524 7.73464 2.73524 7.76234ZM2.9352 7.8733C2.9352 7.90095 2.90284 7.92334 2.86297 7.92334C2.82311 7.92334 2.79079 7.901 2.79079 7.8733C2.79079 7.8456 2.82306 7.82335 2.86297 7.82335C2.90289 7.82335 2.9352 7.84569 2.9352 7.8733ZM3.05743 8.01727C3.05743 8.04482 3.02516 8.06721 2.9852 8.06721C2.94523 8.06721 2.91306 8.04487 2.91306 8.01727C2.91306 7.98966 2.94533 7.96722 2.9852 7.96722C3.02506 7.96722 3.05743 7.98956 3.05743 8.01727ZM3.16838 8.18392C3.16838 8.21157 3.13612 8.23396 3.09625 8.23396C3.05639 8.23396 3.02402 8.21162 3.02402 8.18392C3.02402 8.15622 3.05629 8.13388 3.09625 8.13388C3.13621 8.13388 3.16838 8.15622 3.16838 8.18392ZM3.29061 8.33996C3.29061 8.36751 3.25834 8.3899 3.21843 8.3899C3.17851 8.3899 3.14619 8.36756 3.14619 8.33996C3.14619 8.31235 3.17856 8.28991 3.21843 8.28991C3.25829 8.28991 3.29061 8.31225 3.29061 8.33996ZM3.45727 8.47315C3.45727 8.5008 3.425 8.52319 3.38503 8.52319C3.34507 8.52319 3.3129 8.50085 3.3129 8.47315C3.3129 8.44545 3.34517 8.42321 3.38503 8.42321C3.4249 8.42321 3.45727 8.44555 3.45727 8.47315Z" fill="#C5E6DA"/>
<path d="M3.69031 8.56212C3.69031 8.58967 3.65805 8.61206 3.61813 8.61206C3.57822 8.61206 3.5459 8.58972 3.5459 8.56212C3.5459 8.53452 3.57817 8.51208 3.61813 8.51208C3.6581 8.51208 3.69031 8.53442 3.69031 8.56212Z" fill="#C5E6DA"/>
<path d="M3.92274 8.56212C3.92274 8.58967 3.89047 8.61206 3.85055 8.61206C3.81064 8.61206 3.77832 8.58972 3.77832 8.56212C3.77832 8.53452 3.81059 8.51208 3.85055 8.51208C3.89052 8.51208 3.92274 8.53442 3.92274 8.56212Z" fill="#C5E6DA"/>
<path d="M4.15809 8.52344C4.15809 8.5511 4.12582 8.57349 4.0859 8.57349C4.04599 8.57349 4.01367 8.55115 4.01367 8.52344C4.01367 8.49574 4.04594 8.4734 4.0859 8.4734C4.12587 8.4734 4.15809 8.49574 4.15809 8.52344Z" fill="#C5E6DA"/>
</g>
<path d="M12.6662 5.28572C12.9412 5.28572 13.2544 5.21747 13.6124 5.08122V5.95947C13.5329 5.98797 13.4192 6.01947 13.2714 6.05322C13.3169 6.18397 13.3397 6.30622 13.3397 6.41972C13.3397 6.78347 13.2289 7.10172 13.0072 7.37472C12.7987 7.63728 12.4958 7.80778 12.1632 7.84972C11.9382 7.88372 11.8222 8.00597 11.8222 8.21622C11.8222 8.29022 11.8592 8.36622 11.9329 8.43797C12.0294 8.54597 12.1717 8.61422 12.3592 8.64247C13.1717 8.76747 13.5784 9.10572 13.5784 9.65697C13.5784 10.538 13.0527 10.9785 12.0034 10.9785C11.5714 10.9785 11.2159 10.9017 10.9377 10.7485C10.5877 10.5552 10.4092 10.2485 10.4092 9.83597C10.4092 9.36097 10.6734 9.03172 11.2017 8.85547V8.83847C11.0084 8.71922 10.9117 8.53722 10.9117 8.29297C10.9117 7.97472 11.0027 7.77547 11.1867 7.69622V7.67922C11.0047 7.61672 10.8429 7.47472 10.7007 7.25297C10.5414 7.01422 10.4619 6.75847 10.4619 6.48547C10.4619 6.07622 10.6069 5.73547 10.8969 5.46247C11.1677 5.20947 11.5264 5.07191 11.8969 5.07897C12.1691 5.07728 12.4368 5.14785 12.6727 5.28347M11.3939 6.49397C11.3939 6.88647 11.5729 7.08222 11.9309 7.08222C12.2777 7.08222 12.4509 6.88322 12.4509 6.48547C12.4509 6.32047 12.4109 6.17847 12.3317 6.05922C12.2352 5.92847 12.1017 5.86322 11.9309 5.86322C11.5729 5.86322 11.3939 6.07297 11.3939 6.49397ZM12.7069 9.76797C12.7069 9.47797 12.4682 9.33297 11.9907 9.33297C11.5302 9.33297 11.3002 9.48347 11.3002 9.78472C11.3002 10.0802 11.5502 10.228 12.0502 10.228C12.4877 10.228 12.7069 10.0745 12.7069 9.76797ZM14.5747 4.45872C14.4097 4.45872 14.2677 4.39622 14.1484 4.27122C14.0366 4.15094 13.9756 3.99217 13.9779 3.82797C13.9779 3.65172 14.0347 3.50122 14.1484 3.37622C14.2677 3.25122 14.4099 3.18872 14.5747 3.18872C14.7339 3.18872 14.8702 3.25122 14.9839 3.37622C15.1032 3.50122 15.1629 3.65197 15.1629 3.82797C15.1639 3.91002 15.1486 3.99145 15.1179 4.06754C15.0871 4.14363 15.0416 4.21286 14.9839 4.27122C14.8702 4.39622 14.7339 4.45872 14.5747 4.45872ZM14.0887 8.90872C14.0999 8.79497 14.1057 8.60172 14.1057 8.32872V5.67797L14.0887 5.12372H15.0497C15.0384 5.23172 15.0327 5.41072 15.0327 5.66072V8.27822L15.0497 8.90922H14.0862M16.8362 5.12372H17.5779V5.95072C17.5239 5.94964 17.4698 5.94681 17.4159 5.94222L17.2027 5.93372H16.8362V7.51947C16.8362 7.90022 16.9612 8.09072 17.2112 8.09072C17.3815 8.09251 17.5482 8.04189 17.6887 7.94572V8.79572C17.4787 8.90947 17.2254 8.96622 16.9299 8.96622C16.5149 8.96622 16.2279 8.81622 16.0689 8.52297C15.9497 8.30122 15.8899 7.95172 15.8899 7.47447V5.94847H15.8984V5.93147L15.7704 5.92297C15.6733 5.92492 15.5764 5.93344 15.4804 5.94847V5.12147H15.8979V4.78897C15.8979 4.62972 15.8894 4.50197 15.8724 4.40522H16.8614C16.8444 4.51322 16.8359 4.63522 16.8359 4.77172V5.12122M19.8609 5.09822C19.6164 5.09822 19.3609 5.18322 19.0934 5.35397V3.86197L19.1104 3.22247H18.1384C18.1554 3.31347 18.1639 3.52647 18.1639 3.86197V8.37197L18.1384 8.90897H19.1274C19.1274 8.89197 19.1217 8.82397 19.1104 8.70397L19.0934 8.37147V6.27497C19.2924 6.08747 19.4859 5.99372 19.6734 5.99372C19.8894 5.99372 20.0542 6.10172 20.1679 6.31772C20.2529 6.48822 20.2959 6.70147 20.2959 6.95722L20.2874 8.10822C20.2874 8.30147 20.2732 8.56822 20.2449 8.90972H21.2764C21.2514 8.76772 21.2424 8.50622 21.2424 8.12547V6.95747C21.2424 6.46297 21.1317 6.04247 20.9099 5.69572C20.6599 5.29572 20.3099 5.09897 19.8612 5.09897M23.1372 8.94322C22.6882 8.94322 22.3557 8.74422 22.1372 8.34647C21.9667 8.02247 21.8814 7.59647 21.8814 7.07647V5.90847L21.8474 5.12422H22.8704C22.8534 5.24922 22.8419 5.51672 22.8364 5.92572L22.8279 7.07672C22.8279 7.40072 22.8649 7.63372 22.9387 7.77572C23.0237 7.95197 23.1802 8.03997 23.4077 8.03997C23.5669 8.03997 23.7459 7.94622 23.9447 7.75872V5.65872C23.944 5.54769 23.9383 5.43675 23.9277 5.32622L23.9107 5.12172H24.8997C24.8884 5.21847 24.8827 5.39747 24.8827 5.65872V8.26997L24.8997 8.90947H23.9747V8.59997C23.7132 8.82497 23.4347 8.94097 23.1392 8.94097M27.3317 8.93247C27.1874 8.93571 27.0441 8.90766 26.9116 8.85027C26.7792 8.79287 26.6607 8.70748 26.5644 8.59997V8.90697H25.6607C25.6777 8.81022 25.6862 8.63122 25.6862 8.36997V3.86247L25.6607 3.22297H26.6327C26.6212 3.32297 26.6157 3.53847 26.6157 3.86247V5.34597C26.8772 5.18097 27.1332 5.09597 27.3832 5.09597C27.8322 5.09597 28.1847 5.29497 28.4407 5.69272C28.6567 6.03947 28.7647 6.46022 28.7647 6.95447C28.7647 7.46022 28.6509 7.90072 28.4237 8.27597C28.1487 8.71347 27.7872 8.93247 27.3324 8.93247M27.2044 5.99122C27.0169 5.99122 26.8207 6.08497 26.6162 6.27247V7.74997C26.7982 7.92622 26.9772 8.01422 27.1532 8.01422C27.3749 8.01422 27.5424 7.88922 27.6562 7.64772C27.7472 7.45447 27.7927 7.22422 27.7927 6.95722C27.7927 6.31472 27.5967 5.99397 27.2044 5.99397" fill="white"/>
</g>
<defs>
<clipPath id="clip0_63_3196">
<rect width="30" height="15" fill="white"/>
</clipPath>
</defs>
</svg>
