<svg width="40" height="20" viewBox="0 0 40 20" fill="none" xmlns="http://www.w3.org/2000/svg">
<path d="M15.7958 7.53077C15.6062 7.53077 15.4331 7.55602 15.2767 7.60651C15.125 7.65297 14.992 7.73119 14.8777 7.84118C14.768 7.94666 14.6793 8.08391 14.6118 8.25292C14.5485 8.42169 14.5126 8.62318 14.504 8.85737C14.4908 9.23735 14.4908 9.61733 14.504 9.99731C14.5126 10.2336 14.5485 10.4351 14.6118 10.6018C14.6793 10.7705 14.768 10.9099 14.8777 11.0199C14.9915 11.1254 15.1245 11.2036 15.2767 11.2546C15.4331 11.301 15.6062 11.3243 15.7958 11.3243C15.9821 11.3243 16.1551 11.299 16.3149 11.2485C16.4747 11.1935 16.6119 11.1137 16.7266 11.0089C16.8452 10.8991 16.9383 10.7597 17.0061 10.5907C17.0737 10.422 17.1075 10.2236 17.1075 9.99553V9.67268H16.0041C15.9112 9.67268 15.8648 9.62527 15.8648 9.53045V9.44156C15.8648 9.34675 15.9112 9.29934 16.0041 9.29934H17.3588C17.4537 9.29934 17.5011 9.34675 17.5011 9.44156V9.99873C17.5011 10.2524 17.4631 10.4847 17.3873 10.6956C17.3114 10.9026 17.1995 11.0822 17.0516 11.2347C16.9082 11.3864 16.7285 11.5045 16.5126 11.5892C16.2993 11.6693 16.0587 11.7093 15.7908 11.7093C15.5163 11.7093 15.2757 11.6693 15.069 11.5892C14.8621 11.5048 14.6869 11.3886 14.5435 11.2407C14.4041 11.093 14.2965 10.9179 14.2206 10.7152C14.1488 10.5082 14.1088 10.2802 14.1005 10.0311C14.0919 9.84145 14.0877 9.64091 14.0877 9.42947C14.0877 9.21614 14.0919 9.0156 14.1005 8.82786C14.109 8.57897 14.1512 8.35307 14.2271 8.15016C14.3029 7.94323 14.4105 7.76592 14.5499 7.61824C14.6933 7.47057 14.8685 7.35655 15.0754 7.27619C15.2824 7.1918 15.5208 7.14961 15.7908 7.14961C16.0824 7.14961 16.3315 7.19394 16.5382 7.28259C16.7451 7.37124 16.914 7.47791 17.0449 7.6026C17.1757 7.72515 17.2729 7.85398 17.3364 7.98909C17.3997 8.12421 17.4335 8.23609 17.4378 8.32474C17.442 8.36267 17.4314 8.39431 17.4058 8.41968C17.3804 8.44101 17.3466 8.45168 17.3044 8.45168H17.1651C17.1271 8.45168 17.0996 8.44338 17.0826 8.42679C17.066 8.40546 17.0491 8.37168 17.0321 8.32545C16.9984 8.23064 16.951 8.13582 16.8899 8.041C16.8306 7.94619 16.7507 7.8618 16.6502 7.78784C16.549 7.71199 16.4287 7.65072 16.2893 7.60402C16.1499 7.55756 15.9852 7.53433 15.7951 7.53433L15.7958 7.53077ZM18.7854 8.79053C18.9371 8.49897 19.2241 8.35319 19.6465 8.35319H19.8812C19.9741 8.35319 20.0206 8.39965 20.0206 8.49257V8.58146C20.0206 8.67438 19.9741 8.72084 19.8812 8.72084H19.6088C19.3552 8.72084 19.1547 8.79468 19.0072 8.94235C18.8595 9.09003 18.7857 9.29057 18.7857 9.54396V11.5067C18.7857 11.5489 18.7709 11.5826 18.7413 11.608C18.7159 11.6334 18.6821 11.646 18.6399 11.646H18.5386C18.4457 11.646 18.3992 11.5996 18.3992 11.5067V8.49861C18.3992 8.45642 18.4119 8.42264 18.4373 8.39728C18.4626 8.36765 18.4964 8.35283 18.5386 8.35283H18.6399C18.6821 8.35283 18.7159 8.36765 18.7413 8.39728C18.7709 8.42264 18.7857 8.45642 18.7857 8.49861V8.79017L18.7854 8.79053ZM22.6965 11.6478C22.6036 11.6478 22.5572 11.6014 22.5572 11.5084V11.2108C22.5192 11.2701 22.4686 11.3294 22.4053 11.3886C22.3461 11.4479 22.2722 11.5006 22.1838 11.5468C22.0952 11.5933 21.9885 11.6312 21.8638 11.6606C21.7413 11.6943 21.5978 11.7111 21.4336 11.7111C21.2819 11.7111 21.1361 11.6879 20.9962 11.6414C20.8611 11.5909 20.7408 11.5234 20.6353 11.4388C20.5341 11.3544 20.4519 11.2552 20.3886 11.1411C20.3293 11.0274 20.2997 10.9029 20.2997 10.7678C20.2997 10.6244 20.3293 10.4956 20.3886 10.3813C20.4519 10.2675 20.5384 10.1683 20.6481 10.0837C20.7579 9.99505 20.8887 9.92335 21.0407 9.86859C21.1971 9.80933 21.3682 9.76714 21.5538 9.74201L22.5543 9.60263V9.38112C22.5543 9.15308 22.4846 8.97578 22.3452 8.8492C22.2101 8.72262 21.9928 8.65933 21.6931 8.65933C21.4568 8.65933 21.2731 8.70579 21.142 8.79871C21.0154 8.88736 20.9356 8.98455 20.9024 9.09027C20.8858 9.14076 20.8647 9.17667 20.8391 9.198C20.8177 9.2146 20.7881 9.22289 20.7502 9.22289H20.6613C20.6234 9.22289 20.5896 9.21021 20.56 9.18485C20.5346 9.15522 20.5219 9.12144 20.5219 9.08351C20.5219 9.02425 20.543 8.95041 20.5852 8.862C20.6274 8.77334 20.695 8.68682 20.7879 8.60244C20.8827 8.51805 21.0051 8.44635 21.1552 8.38732C21.3029 8.32403 21.4825 8.29239 21.6942 8.29239C21.9431 8.29239 22.1479 8.32617 22.3086 8.39372C22.4731 8.46128 22.602 8.54993 22.6951 8.65968C22.788 8.76517 22.8513 8.88333 22.885 9.01418C22.9229 9.14502 22.9419 9.27386 22.9419 9.40067V11.5092C22.9419 11.6021 22.8954 11.6485 22.8025 11.6485H22.6948L22.6965 11.6478ZM21.4997 11.3438C21.6431 11.3438 21.7782 11.3206 21.9051 11.2741C22.0359 11.2236 22.1499 11.1498 22.2471 11.0526C22.3419 10.9578 22.4178 10.8354 22.4747 10.6853C22.5297 10.5376 22.5572 10.3646 22.5572 10.1662V9.95108L21.7404 10.0649C21.0397 10.1597 20.6894 10.3834 20.6894 10.7362C20.6894 10.8416 20.7126 10.9324 20.7591 11.0085C20.8096 11.0844 20.8729 11.1477 20.9489 11.1984C21.0248 11.2489 21.1113 11.2868 21.2085 11.3122C21.3033 11.3335 21.4005 11.3442 21.5001 11.3442L21.4997 11.3438ZM25.3952 11.7111C25.1293 11.7111 24.9119 11.6637 24.7431 11.5689C24.5744 11.4741 24.4371 11.3559 24.3314 11.2144V12.7149C24.3314 12.8078 24.2849 12.8542 24.192 12.8542H24.0843C23.9914 12.8542 23.9449 12.8078 23.9449 12.7149V8.49257C23.9449 8.39965 23.9914 8.35319 24.0843 8.35319H24.192C24.2849 8.35319 24.3314 8.39965 24.3314 8.49257V8.79017C24.4369 8.64676 24.5741 8.5286 24.7431 8.43568C24.9119 8.34086 25.1293 8.29345 25.3952 8.29345C25.6401 8.29345 25.8469 8.33778 26.0157 8.42643C26.1887 8.51082 26.3281 8.62484 26.4338 8.76848C26.5393 8.90786 26.6152 9.06834 26.6614 9.24991C26.7119 9.42722 26.7415 9.6088 26.7503 9.79464C26.7546 9.85793 26.7567 9.92762 26.7567 10.0037C26.7567 10.0796 26.7546 10.1492 26.7503 10.2128C26.7418 10.3991 26.7121 10.5828 26.6614 10.7639C26.6149 10.9412 26.5391 11.1017 26.4338 11.2453C26.3284 11.3847 26.189 11.4987 26.0157 11.5874C25.8469 11.6718 25.6401 11.714 25.3952 11.714V11.7111ZM24.3314 9.7733C24.3271 9.83659 24.325 9.91885 24.325 10.0201C24.325 10.1213 24.3271 10.2035 24.3314 10.2668C24.3357 10.3934 24.3568 10.5222 24.3947 10.6533C24.4369 10.7799 24.5002 10.8939 24.5846 10.9954C24.669 11.0966 24.7756 11.181 24.9046 11.2485C25.0312 11.3118 25.1831 11.3435 25.3604 11.3435C25.5467 11.3435 25.7008 11.3118 25.8226 11.2485C25.9492 11.1852 26.0505 11.1009 26.1266 10.9954C26.2068 10.8856 26.2637 10.7612 26.2973 10.622C26.3352 10.4786 26.3585 10.3308 26.367 10.1786C26.3713 10.0601 26.3713 9.94196 26.367 9.82415C26.3585 9.67244 26.3352 9.52666 26.2973 9.38681C26.2637 9.24743 26.2068 9.12499 26.1266 9.01951C26.0508 8.90976 25.9495 8.82324 25.8226 8.75995C25.7001 8.69239 25.546 8.65862 25.3604 8.65862C25.1788 8.65862 25.0248 8.69239 24.8982 8.75995C24.7716 8.82751 24.6649 8.91616 24.5782 9.02591C24.498 9.13139 24.4368 9.24956 24.3943 9.38041C24.3564 9.51125 24.3353 9.6421 24.3311 9.77295L24.3314 9.7733ZM28.0054 8.79053C28.1192 8.64285 28.2565 8.52255 28.4172 8.42963C28.5769 8.33671 28.7943 8.29025 29.0693 8.29025C29.2845 8.29025 29.4724 8.32617 29.6328 8.39799C29.7926 8.46981 29.9256 8.56901 30.0318 8.69559C30.1415 8.82217 30.2238 8.9721 30.2785 9.14538C30.3335 9.31842 30.361 9.50628 30.361 9.70895V11.5074C30.361 11.6003 30.3146 11.6468 30.2216 11.6468H30.115C30.0221 11.6468 29.9756 11.6003 29.9756 11.5074V9.74023C29.9756 9.40245 29.8933 9.13862 29.7288 8.94875C29.5643 8.75438 29.3237 8.65719 29.007 8.65719C28.7032 8.65719 28.4604 8.75201 28.2789 8.94164C28.0973 9.13128 28.0065 9.39759 28.0065 9.74059V11.5077C28.0065 11.6007 27.96 11.6471 27.8671 11.6471H27.7594C27.6665 11.6471 27.62 11.6007 27.62 11.5077V7.28899C27.62 7.19607 27.6665 7.14961 27.7594 7.14961H27.8671C27.96 7.14961 28.0065 7.19607 28.0065 7.28899V8.78946L28.0054 8.79053ZM32.9442 7.15068C33.189 7.15068 33.4128 7.18659 33.6155 7.25841C33.8182 7.33024 33.9912 7.43999 34.1346 7.58766C34.2823 7.73107 34.3963 7.91265 34.4767 8.13238C34.561 8.34762 34.6075 8.60303 34.616 8.89862C34.6246 9.08825 34.6288 9.26556 34.6288 9.43054C34.6288 9.59505 34.6246 9.77235 34.616 9.96246C34.5947 10.5662 34.4406 11.0095 34.1538 11.2923L34.5591 11.8622C34.5634 11.8708 34.5677 11.8791 34.5719 11.8871C34.5762 11.8957 34.5783 11.9105 34.5783 11.9316C34.5783 11.9652 34.5657 11.9949 34.5403 12.0205C34.5149 12.0458 34.4853 12.0585 34.4514 12.0585H34.312C34.2656 12.0585 34.2255 12.0395 34.1919 12.0016C34.1582 11.9679 34.1307 11.9383 34.1094 11.9127L33.8299 11.5262C33.5763 11.6488 33.2807 11.71 32.9431 11.71C32.4155 11.71 32.0081 11.5687 31.7211 11.2859C31.4383 11.0031 31.2883 10.5619 31.2713 9.96246C31.2627 9.77283 31.2585 9.59552 31.2585 9.43054C31.2585 9.26603 31.2627 9.08873 31.2713 8.89862C31.2798 8.60303 31.3241 8.34762 31.4042 8.13238C31.4886 7.91288 31.6026 7.73131 31.7463 7.58766C31.894 7.43999 32.067 7.33024 32.2654 7.25841C32.4681 7.18659 32.694 7.15068 32.9431 7.15068H32.9442ZM32.9442 7.53113C32.7669 7.53113 32.6021 7.55863 32.45 7.61362C32.2982 7.66411 32.1653 7.74636 32.051 7.86038C31.9372 7.97416 31.8464 8.11994 31.7787 8.29772C31.7154 8.47503 31.6794 8.68599 31.6709 8.93062C31.6666 9.02544 31.6624 9.11409 31.6581 9.19658C31.6581 9.2767 31.6581 9.35492 31.6581 9.43125C31.6581 9.5071 31.6581 9.58699 31.6581 9.6709C31.6624 9.75102 31.6666 9.83754 31.6709 9.93046C31.6794 10.1794 31.7154 10.3927 31.7787 10.5705C31.8462 10.7435 31.9349 10.8869 32.0446 11.0007C32.1584 11.1145 32.2914 11.1989 32.4436 11.2539C32.5953 11.3044 32.7617 11.3296 32.9428 11.3296C33.1243 11.3296 33.2907 11.3044 33.442 11.2539C33.5937 11.1989 33.7245 11.1145 33.8345 11.0007C33.9483 10.8869 34.0369 10.7435 34.1005 10.5705C34.168 10.3932 34.206 10.1798 34.2143 9.93046C34.2185 9.83754 34.2206 9.75102 34.2206 9.6709C34.2206 9.58651 34.2206 9.50663 34.2206 9.43125C34.2206 9.3554 34.2206 9.27717 34.2206 9.19658C34.2206 9.11646 34.2185 9.02781 34.2143 8.93062C34.2057 8.68576 34.1678 8.47479 34.1005 8.29772C34.0372 8.12041 33.9485 7.97463 33.8345 7.86038C33.7207 7.7466 33.5878 7.66435 33.4356 7.61362C33.2839 7.55863 33.1191 7.53113 32.9413 7.53113H32.9442ZM36.0351 11.2667H38.2197C38.3145 11.2667 38.3619 11.3141 38.3619 11.4089V11.5038C38.3619 11.5967 38.3145 11.6432 38.2197 11.6432H35.7755C35.6826 11.6432 35.6361 11.5967 35.6361 11.5038V7.35299C35.6361 7.26007 35.6826 7.21361 35.7755 7.21361H35.8957C35.9886 7.21361 36.0351 7.26007 36.0351 7.35299V11.2667ZM2.57706 13.0491L2.15039 12.8023L6.9071 4.56396L7.33377 4.81072L2.57706 13.0491Z" fill="#E10098"/>
<path d="M2.05273 12.1445H11.5661V12.6377H2.05273V12.1445Z" fill="#E10098"/>
<path d="M7.00005 15.169L2.24121 12.4216L2.48797 11.9949L7.24646 14.7416L7.00005 15.169ZM11.1338 8.00797L6.37533 5.2609L6.62209 4.83423L11.3806 7.58166L11.1338 8.00797Z" fill="#E10098"/>
<path d="M2.48895 8.00659L2.24219 7.57992L7.00458 4.83569L7.25134 5.26237L2.48895 8.00659Z" fill="#E10098"/>
<path d="M11.0463 13.0491L6.28922 4.81072L6.7159 4.56396L11.4726 12.8023L11.0463 13.0491ZM2.43066 7.25272H2.92312V12.7476H2.43066V7.25272ZM10.6996 7.25272H11.1928V12.7476H10.6993L10.6996 7.25272Z" fill="#E10098"/>
<path d="M6.91567 14.9602L6.7002 14.5869L10.8389 12.1975L11.0544 12.5708L6.91567 14.9602Z" fill="#E10098"/>
<path d="M11.8459 12.9081C11.7082 13.1462 11.4817 13.32 11.2161 13.3912C10.9504 13.4625 10.6673 13.4254 10.429 13.2882C10.1909 13.1505 10.0171 12.924 9.94584 12.6583C9.87457 12.3927 9.91163 12.1096 10.0489 11.8713C10.1865 11.6331 10.4131 11.4594 10.6787 11.3881C10.9444 11.3169 11.2274 11.3539 11.4658 11.4912C11.965 11.7756 12.1339 12.4156 11.8459 12.9081ZM3.57125 8.12933C3.43359 8.36744 3.20707 8.5412 2.94142 8.61247C2.67576 8.68373 2.39269 8.64667 2.15434 8.50942C1.91622 8.37176 1.74246 8.14524 1.6712 7.87959C1.59994 7.61394 1.637 7.33086 1.77424 7.09251C1.9119 6.8544 2.13842 6.68063 2.40407 6.60937C2.66973 6.53811 2.9528 6.57517 3.19116 6.71241C3.68716 6.99686 3.85606 7.63688 3.57161 8.12933M1.77744 12.9081C1.49228 12.4121 1.66153 11.7795 2.15789 11.4912C2.6539 11.206 3.28645 11.3753 3.57481 11.8716C3.85997 12.3676 3.69072 13.0002 3.19436 13.2885C2.69515 13.5737 2.0626 13.4044 1.77744 12.9081ZM10.0524 8.12933C9.76727 7.63332 9.93652 7.00077 10.4329 6.71241C10.9289 6.42725 11.5614 6.5965 11.8498 7.09287C12.135 7.58887 11.9657 8.22142 11.4693 8.50978C11.231 8.64703 10.9479 8.68408 10.6823 8.61282C10.4166 8.54156 10.1901 8.36744 10.0524 8.12933ZM6.81078 15.8169C6.23761 15.8169 5.77431 15.3536 5.77431 14.7805C5.77431 14.2073 6.23868 13.744 6.81078 13.744C7.38287 13.744 7.84724 14.2073 7.84724 14.7805C7.84677 15.0552 7.73742 15.3186 7.54315 15.5128C7.34887 15.7071 7.08552 15.8165 6.81078 15.8169ZM6.81078 6.25872C6.23761 6.25872 5.77431 5.79542 5.77431 5.22225C5.77431 4.64909 6.23868 4.18579 6.81078 4.18579C7.38287 4.18579 7.84724 4.64909 7.84724 5.22225C7.84747 5.35843 7.82082 5.49331 7.76882 5.61917C7.71681 5.74502 7.64048 5.85938 7.54419 5.95567C7.4479 6.05196 7.33354 6.12829 7.20769 6.1803C7.08183 6.2323 6.94695 6.25895 6.81078 6.25872Z" fill="#E10098"/>
</svg>
