<svg width="30" height="15" viewBox="0 0 30 15" fill="none" xmlns="http://www.w3.org/2000/svg">
<path d="M13.1 7.41426C13.0993 7.08814 12.9907 6.77142 12.7911 6.51348C12.5916 6.25554 12.3123 6.07087 11.9968 5.98826L13.4125 1.81201H6.39428L7.81379 6.00151C7.50704 6.09057 7.23749 6.27679 7.04566 6.53219C6.85383 6.78758 6.75009 7.09835 6.75004 7.41776C6.75004 7.91176 6.99704 8.34976 7.37504 8.61776C7.22679 8.82851 7.05553 9.02276 6.86128 9.20726C6.49578 9.54976 6.09054 9.81326 5.65254 9.98776C5.25754 9.72101 5.08603 9.25026 5.24078 8.82851C5.84078 8.64401 6.28153 8.07851 6.28153 7.41851C6.28087 7.02818 6.12552 6.65403 5.84952 6.37803C5.57352 6.10202 5.19936 5.94667 4.80904 5.94601C4.41787 5.94654 4.04288 6.10217 3.76628 6.37876C3.48969 6.65536 3.33406 7.03035 3.33353 7.42151C3.33353 7.82326 3.49854 8.19226 3.76179 8.45576L3.69254 8.59726C3.47179 9.05176 3.22153 9.56551 3.12603 10.1423C2.93503 11.2923 3.24778 12.2205 4.00203 12.7443C4.42703 13.0373 4.89454 13.1855 5.39854 13.1855C6.26478 13.1855 7.14404 12.7505 7.99354 12.3293C8.59954 12.0293 9.22529 11.7168 9.84354 11.5653C10.0685 11.5093 10.308 11.4763 10.5585 11.4403C11.066 11.3653 11.5895 11.292 12.0603 11.0188C12.6103 10.6993 12.9858 10.1658 13.0945 9.55326C13.177 9.08226 13.0945 8.60826 12.8838 8.19326C13.0292 7.959 13.1057 7.6885 13.1045 7.41276L13.1 7.41426ZM12.4575 7.41426C12.4575 7.87176 12.0825 8.24426 11.6275 8.24426C11.4827 8.24288 11.3407 8.20384 11.2155 8.13098C11.0903 8.05812 10.9862 7.95394 10.9135 7.82868C10.8407 7.70343 10.8018 7.5614 10.8005 7.41655C10.7993 7.2717 10.8357 7.12901 10.9063 7.00251C10.9325 6.95651 10.9655 6.91001 10.9988 6.87076C11.0331 6.83041 11.0718 6.79394 11.114 6.76201L11.1173 6.75876C11.1435 6.73876 11.1733 6.71926 11.203 6.69951C11.2195 6.68951 11.233 6.67951 11.2455 6.67326C11.2488 6.67326 11.252 6.67001 11.2555 6.67001C11.2688 6.66351 11.2855 6.65676 11.3015 6.65001C11.3175 6.64326 11.3345 6.63676 11.3475 6.63001C11.3508 6.63001 11.354 6.62676 11.3575 6.62676C11.3708 6.62351 11.3838 6.61676 11.397 6.61351C11.4003 6.61351 11.407 6.61026 11.4103 6.61026L11.4563 6.60026H11.4595L11.509 6.59026C11.5123 6.59026 11.519 6.59026 11.5223 6.58701C11.5355 6.58701 11.5485 6.58376 11.5618 6.58376H11.5783C11.5948 6.58376 11.6113 6.58051 11.6283 6.58051H11.6708C11.683 6.57995 11.6952 6.58105 11.707 6.58376H11.7135C11.7401 6.58649 11.7665 6.59092 11.7925 6.59701C11.9796 6.63709 12.1472 6.73998 12.2677 6.88857C12.3881 7.03716 12.454 7.22249 12.4545 7.41376L12.4575 7.41426ZM7.31304 2.47076H12.4938L11.3048 5.97826C11.2553 5.98826 11.206 6.00451 11.1565 6.02076L9.90504 3.47076L8.65003 6.00501C8.60053 5.98851 8.54804 5.97876 8.49504 5.96876L7.31304 2.47076ZM9.66804 7.12776C9.6074 6.8237 9.45154 6.54683 9.22303 6.33726L9.90479 4.96051L10.593 6.36676C10.3888 6.57101 10.243 6.83126 10.1813 7.12751L9.66804 7.12776ZM8.01803 6.60726L8.06404 6.59726H8.07404C8.08729 6.59401 8.10028 6.59401 8.11353 6.59076H8.12679C8.14004 6.59076 8.14979 6.58751 8.16304 6.58751H8.29154C8.30479 6.58751 8.31454 6.59076 8.32454 6.59076C8.33104 6.59076 8.33453 6.59076 8.34103 6.59401C8.35428 6.59726 8.36404 6.59726 8.37729 6.60051C8.38054 6.60051 8.38379 6.60051 8.39054 6.60376L8.43653 6.61376C8.45133 6.61619 8.46571 6.62064 8.47929 6.62701C8.48254 6.62701 8.48579 6.63026 8.49254 6.63026C8.50254 6.63351 8.51554 6.63676 8.52554 6.64351C8.52879 6.64351 8.53203 6.64676 8.53553 6.64676C8.54878 6.65326 8.56179 6.65676 8.57504 6.66326H8.57829C8.59352 6.66893 8.60791 6.67667 8.62104 6.68626C8.63754 6.69276 8.65104 6.70276 8.66354 6.70926C8.66679 6.70926 8.66679 6.71251 8.67004 6.71251C8.68329 6.71901 8.69304 6.72901 8.70629 6.73551L8.70954 6.73876C8.74828 6.76891 8.78565 6.80077 8.82154 6.83426L8.82479 6.83751C8.85912 6.87409 8.89 6.91376 8.91704 6.95601C9.0054 7.0911 9.05233 7.24909 9.05204 7.41051C9.05204 7.86801 8.67704 8.24051 8.22204 8.24051C8.00231 8.2392 7.79196 8.15133 7.63659 7.99596C7.48121 7.84059 7.39335 7.63024 7.39204 7.41051C7.38879 7.02551 7.65554 6.69901 8.01779 6.60701L8.01803 6.60726ZM4.77728 6.58426C5.23478 6.58426 5.60729 6.95926 5.60729 7.41426C5.60597 7.63399 5.51811 7.84434 5.36273 7.99971C5.20736 8.15508 4.99701 8.24295 4.77728 8.24426C4.55756 8.24295 4.34721 8.15508 4.19184 7.99971C4.03646 7.84434 3.9486 7.63399 3.94728 7.41426C3.9486 7.19454 4.03646 6.98418 4.19184 6.82881C4.34721 6.67344 4.55756 6.58557 4.77728 6.58426ZM12.4375 9.44001C12.3625 9.86151 12.105 10.2305 11.7225 10.451C11.3635 10.6585 10.9225 10.7243 10.4575 10.7903C10.204 10.8265 9.93704 10.866 9.68254 10.9285C8.99754 11.0965 8.33879 11.4285 7.70004 11.742C6.88329 12.147 6.11254 12.5295 5.40004 12.5295C5.02504 12.5295 4.69504 12.424 4.37904 12.2035C3.65079 11.7 3.68704 10.7638 3.77504 10.25C3.85404 9.76926 4.07504 9.31801 4.28554 8.88651C4.29879 8.86026 4.30854 8.83701 4.32179 8.81076C4.39576 8.83708 4.47188 8.8569 4.54929 8.87001C4.42429 9.56826 4.77978 10.2895 5.47428 10.645L5.59928 10.7108L5.73429 10.6613C6.31054 10.457 6.84429 10.1245 7.31529 9.67976C7.57555 9.43717 7.80555 9.16402 8.00029 8.86626C8.07467 8.87826 8.14995 8.88378 8.22529 8.88276C8.55141 8.88203 8.86813 8.77342 9.12607 8.57386C9.38401 8.3743 9.56868 8.095 9.65129 7.77951H10.2045C10.3695 8.41526 10.9455 8.88276 11.6305 8.88276C11.8925 8.88279 12.1496 8.81223 12.3748 8.67851C12.4605 8.92551 12.4868 9.18251 12.4405 9.43926L12.4375 9.44001ZM17.7158 9.08101C17.6707 9.23216 17.593 9.37159 17.4883 9.48951C17.3825 9.60801 17.2413 9.70351 17.0633 9.77601C16.8853 9.84851 16.6683 9.88476 16.4078 9.88476C15.9728 9.88476 15.637 9.76976 15.4033 9.54226C15.1695 9.31476 15.0533 8.97576 15.0533 8.53476V8.25001H15.675V8.45001C15.6737 8.57579 15.6848 8.7014 15.708 8.82501C15.731 8.94001 15.7673 9.03576 15.823 9.11826C15.8802 9.20208 15.9586 9.26913 16.0503 9.31251C16.149 9.35851 16.2743 9.38176 16.4258 9.38176C16.709 9.38176 16.9008 9.30601 17.012 9.15676C17.1175 9.00526 17.1735 8.80101 17.1735 8.54426V5.11551H17.7928V8.62001C17.7904 8.77651 17.7651 8.93182 17.7178 9.08101H17.7158ZM21.105 9.56501C20.8515 9.75601 20.535 9.85151 20.15 9.85151C19.88 9.85151 19.646 9.80901 19.4485 9.71976C19.2558 9.63807 19.0845 9.51299 18.948 9.35426C18.813 9.19626 18.7105 9.01176 18.645 8.79101C18.5758 8.57351 18.5395 8.33651 18.53 8.07951C18.53 7.82251 18.5695 7.58876 18.6485 7.37451C18.7218 7.16973 18.8336 6.98085 18.9778 6.81801C19.1174 6.66124 19.2894 6.53655 19.4818 6.45251C19.6763 6.36701 19.8868 6.32076 20.1175 6.32076C20.4175 6.32076 20.6675 6.38326 20.8675 6.50826C21.0675 6.63326 21.2233 6.79151 21.3425 6.98251C21.4612 7.17486 21.5448 7.38672 21.5895 7.60826C21.6333 7.82051 21.6521 8.03715 21.6455 8.25376H19.1205C19.1164 8.39595 19.1332 8.53798 19.1705 8.67526C19.2073 8.80676 19.2725 8.92526 19.3615 9.02526C19.4473 9.12726 19.5615 9.20976 19.694 9.26901C19.829 9.33151 19.9873 9.36151 20.169 9.36151C20.4028 9.36151 20.5973 9.30551 20.749 9.19651C20.9008 9.08751 20.999 8.92326 21.0455 8.69651H21.5955C21.5198 9.08151 21.358 9.36851 21.1048 9.55951L21.105 9.56501ZM20.97 7.39751C20.9205 7.27901 20.8515 7.18001 20.769 7.09451C20.683 7.00878 20.5812 6.94052 20.4693 6.89351C20.3543 6.84401 20.2255 6.81776 20.0873 6.81776C19.9423 6.81776 19.814 6.84401 19.6985 6.89351C19.583 6.94301 19.4845 7.01201 19.402 7.09776C19.3183 7.18641 19.2506 7.28894 19.202 7.40076C19.1503 7.51626 19.1263 7.63826 19.1163 7.76976H21.0563C21.0474 7.64161 21.0173 7.51583 20.9673 7.39751H20.97ZM22.6463 9.02251C22.697 9.10515 22.7671 9.17415 22.8505 9.22351C22.9398 9.27434 23.0365 9.31102 23.137 9.33226C23.2425 9.35526 23.3545 9.36526 23.4663 9.36526C23.5577 9.36488 23.649 9.35829 23.7395 9.34551C23.8304 9.33431 23.9192 9.30989 24.003 9.27301C24.082 9.23676 24.1513 9.18726 24.203 9.11801C24.253 9.05226 24.282 8.96301 24.282 8.86101C24.282 8.71601 24.226 8.60751 24.117 8.53501C24.008 8.46251 23.8733 8.40001 23.7085 8.35376L23.175 8.22876C22.984 8.19251 22.806 8.13976 22.6415 8.07076C22.485 8.00981 22.345 7.91276 22.233 7.78751C22.1245 7.66576 22.068 7.49426 22.068 7.27701C22.068 7.10576 22.1075 6.96076 22.183 6.83901C22.2571 6.71925 22.3573 6.61787 22.4763 6.54251C22.595 6.46676 22.7298 6.41076 22.8813 6.37126C23.0279 6.33502 23.1783 6.31622 23.3293 6.31526C23.5072 6.31395 23.6847 6.33053 23.8593 6.36476C24.0203 6.39776 24.1623 6.45376 24.2875 6.53601C24.4125 6.61501 24.5115 6.72701 24.584 6.86201C24.659 7.00026 24.7025 7.17151 24.7158 7.37576H24.1593C24.1493 7.26701 24.123 7.17576 24.0735 7.10576C24.0249 7.03534 23.962 6.9759 23.889 6.93126C23.814 6.88876 23.734 6.85551 23.6453 6.83576C23.5565 6.81601 23.464 6.80576 23.3753 6.80576C23.2915 6.80579 23.2078 6.8124 23.125 6.82551C23.0452 6.83713 22.9675 6.86047 22.8945 6.89476C22.8283 6.92532 22.7698 6.97034 22.7233 7.02651C22.6808 7.08251 22.6575 7.15151 22.6575 7.23726C22.6575 7.33276 22.6905 7.41176 22.7595 7.47476C22.8253 7.53726 22.9145 7.58976 23.0165 7.63276C23.122 7.67526 23.2373 7.70851 23.3665 7.73826L23.7585 7.82726C23.8965 7.8576 24.0329 7.89498 24.167 7.93926C24.2921 7.9787 24.4102 8.03759 24.517 8.11376C24.6182 8.18458 24.7025 8.27675 24.764 8.38376C24.8265 8.49251 24.8595 8.62751 24.8595 8.78876C24.8595 8.99301 24.817 9.16426 24.731 9.29926C24.6469 9.43225 24.533 9.54386 24.3983 9.62526C24.26 9.70776 24.105 9.76676 23.9338 9.79976C23.7645 9.83254 23.5925 9.84911 23.42 9.84926C23.2395 9.84985 23.0594 9.82998 22.8833 9.79001C22.7216 9.75543 22.5683 9.68944 22.432 9.59576C22.3003 9.50676 22.1983 9.38826 22.119 9.24576C22.0398 9.10326 21.9973 8.92076 21.9873 8.71226H22.5438C22.5603 8.83726 22.5898 8.94276 22.6425 9.02526L22.6463 9.02251ZM26.9313 6.40326V6.89401H26.2593V8.99201C26.2593 9.05776 26.2658 9.11051 26.2758 9.15001C26.2858 9.18951 26.3088 9.21926 26.3383 9.24251C26.3678 9.26576 26.4133 9.27876 26.4668 9.28501C26.5203 9.29126 26.5918 9.29501 26.6775 9.29501H26.931V9.78576H26.506C26.361 9.78576 26.2393 9.77576 26.137 9.75576C26.0348 9.73576 25.9525 9.69976 25.89 9.64701C25.8275 9.59426 25.7813 9.52201 25.7485 9.42626C25.7185 9.33076 25.7025 9.20551 25.7025 9.04751V6.89751H25.1263V6.40676H25.7025V5.39251H26.259V6.40351L26.9313 6.40326Z" fill="#99424F"/>
</svg>
