<svg width="50" height="15" viewBox="0 0 50 15" fill="none" xmlns="http://www.w3.org/2000/svg">
<path d="M16.4569 5.3255H17.0172V8.16869C17.0172 8.92151 16.6874 9.44156 15.9152 9.44156C15.6867 9.44498 15.4594 9.40904 15.2432 9.33533V8.79034C15.4276 8.8619 15.624 8.89794 15.8219 8.89657C16.2948 8.89657 16.4583 8.61345 16.4583 8.20564L16.4569 5.3255ZM18.0374 5.10705C18.0881 5.10375 18.139 5.11108 18.1867 5.12858C18.2344 5.14608 18.2779 5.17335 18.3145 5.20865C18.3499 5.24418 18.3773 5.28688 18.3949 5.33388C18.4124 5.38089 18.4196 5.43111 18.4161 5.48115C18.416 5.58021 18.3766 5.67517 18.3065 5.74522C18.2365 5.81526 18.1415 5.85467 18.0425 5.85479C17.9434 5.85467 17.8484 5.81526 17.7784 5.74522C17.7084 5.67517 17.669 5.58021 17.6688 5.48115C17.6655 5.43043 17.6729 5.37958 17.6904 5.33186C17.7079 5.28414 17.7351 5.2406 17.7704 5.20404C17.806 5.16861 17.8487 5.14121 17.8957 5.12368C17.9427 5.10616 17.9929 5.09891 18.0429 5.10243L18.0374 5.10705ZM17.7635 6.30233H18.2993V9.41431H17.7635V6.30233Z" fill="white"/>
<path d="M19.1074 6.30127H19.6302V6.84857C19.815 6.48139 20.1254 6.22044 20.7322 6.25739V6.78021C20.0478 6.70955 19.6302 6.91738 19.6302 7.57645V9.41464H19.1074V6.30127Z" fill="white"/>
<path d="M23.2397 8.85326C23.0402 9.26893 22.667 9.47584 22.1881 9.47584C21.3604 9.47584 20.9434 8.77289 20.9434 7.8575C20.9434 6.97997 21.3789 6.23915 22.2504 6.23915C22.7044 6.23915 23.0531 6.44422 23.2406 6.8488V6.3015H23.7764V9.41349H23.2406L23.2397 8.85326ZM22.3308 8.97796C22.8102 8.97796 23.2397 8.67313 23.2397 7.9822V7.73049C23.2397 7.03955 22.8481 6.73472 22.3908 6.73472C21.7867 6.73472 21.4763 7.13284 21.4763 7.85519C21.4791 8.60478 21.7775 8.97842 22.3322 8.97842L22.3308 8.97796ZM26.9438 9.47584C26.1531 9.47584 25.7859 9.32019 25.4686 9.15808V8.58538C25.8483 8.7849 26.4385 8.92715 26.9743 8.92715C27.5904 8.92715 27.8232 8.68468 27.8232 8.32305C27.8232 7.96141 27.5992 7.76882 26.8209 7.58269C25.8972 7.35869 25.4894 7.04094 25.4894 6.36894C25.4894 5.7325 25.9744 5.26141 26.9272 5.26141C27.5183 5.26141 27.898 5.40273 28.1742 5.55976V6.126C27.7849 5.91147 27.3457 5.80405 26.9013 5.81471C26.3655 5.81471 26.0482 6.0013 26.0482 6.37494C26.0482 6.71071 26.3101 6.87929 27.0311 7.05941C27.8961 7.27741 28.382 7.55452 28.382 8.29164C28.3774 9.00105 27.9548 9.48046 26.9401 9.48046L26.9438 9.47584ZM28.8545 7.85103C28.8545 6.91808 29.4018 6.23454 30.3357 6.23454C31.2695 6.23454 31.8044 6.91346 31.8044 7.85103C31.8044 8.7886 31.2626 9.47768 30.3357 9.47768C29.4087 9.47768 28.8545 8.7849 28.8545 7.85103ZM29.3773 7.85103C29.3773 8.4422 29.6701 8.97796 30.3357 8.97796C31.0012 8.97796 31.2825 8.4422 31.2825 7.85103C31.2825 7.25985 30.9961 6.73981 30.3357 6.73981C29.6752 6.73981 29.3796 7.25985 29.3796 7.85103H29.3773ZM33.1668 6.3015H33.9695V6.79661H33.1668V9.41349H32.644V6.79661H32.1378V6.3015H32.6422V5.96204C32.6422 5.38334 32.9655 4.99122 33.6324 4.99122C33.7543 4.99076 33.8758 5.00739 33.9926 5.04064V5.53575C33.8819 5.51477 33.7695 5.5044 33.6569 5.5048C33.3271 5.5048 33.1617 5.69786 33.1617 5.97774L33.1668 6.3015ZM35.7809 8.89067C35.8941 8.88751 36.0066 8.87281 36.1167 8.84679V9.36315C35.9994 9.39667 35.878 9.41331 35.756 9.41256C35.09 9.41256 34.7658 9.02091 34.7658 8.44174V6.79939H34.2596V6.30428H34.7639V5.64105H35.2867V6.3015H36.1144V6.79661H35.2867V8.43528C35.2895 8.70916 35.4516 8.89575 35.7809 8.89575V8.89067ZM36.2668 6.3015H36.858L37.754 8.94009L38.662 6.3015H39.1728L40.0817 8.94009L40.9787 6.3015H41.5698L40.4244 9.41349H39.74L39.2042 7.90784L38.9211 6.94949L38.638 7.90784L38.0953 9.41349H37.4108L36.2668 6.3015ZM44.014 8.85326C43.8144 9.26893 43.4413 9.47584 42.9623 9.47584C42.1347 9.47584 41.7176 8.77289 41.7176 7.8575C41.7176 6.97997 42.1532 6.23915 43.0247 6.23915C43.4787 6.23915 43.8274 6.44422 44.0149 6.8488V6.3015H44.5506V9.41349H44.0149L44.014 8.85326ZM43.105 8.97796C43.5844 8.97796 44.014 8.67313 44.014 7.9822V7.73049C44.014 7.03955 43.6223 6.73472 43.1651 6.73472C42.5637 6.74027 42.2506 7.13562 42.2506 7.85796C42.2506 8.60478 42.5508 8.97796 43.105 8.97796Z" fill="white"/>
<path d="M45.3574 6.30127H45.8802V6.84857C46.065 6.48139 46.3754 6.22044 46.9822 6.25739V6.78021C46.2978 6.70955 45.8802 6.91738 45.8802 7.57645V9.41464H45.3574V6.30127Z" fill="white"/>
<path d="M48.8676 9.47582C47.7037 9.47582 47.1934 8.80382 47.1934 7.84916C47.1934 6.90928 47.7162 6.23267 48.6621 6.23267C49.6204 6.23267 50.0014 6.89866 50.0014 7.84916V8.09164H47.7305C47.8053 8.62046 48.1476 8.96316 48.8819 8.96316C49.2048 8.96296 49.5251 8.90605 49.8282 8.79504V9.29015C49.5728 9.42871 49.1803 9.47628 48.8584 9.47628L48.8676 9.47582ZM47.7291 7.63763H49.4638C49.4329 7.05893 49.171 6.7287 48.6362 6.7287C48.0709 6.72593 47.7845 7.09449 47.7287 7.63394L47.7291 7.63763Z" fill="white"/>
<path d="M13.8258 6.8293L6.99647 0L0.167175 6.8293C0.0601125 6.9368 0 7.08234 0 7.23405C0 7.38577 0.0601125 7.53132 0.167175 7.63881L6.99647 14.4681L13.8258 7.63881C13.9328 7.53132 13.9929 7.38577 13.9929 7.23405C13.9929 7.08234 13.9328 6.9368 13.8258 6.8293ZM6.99647 9.37227L4.85755 7.23335L6.99647 5.09443L9.1354 7.23335L6.99647 9.37227Z" fill="#2684FF"/>
<path d="M6.99531 5.10848C6.32256 4.43582 5.94332 3.52428 5.94041 2.57294C5.9375 1.62161 6.31115 0.707768 6.97977 0.0310059L2.28516 4.69595L4.83237 7.24316L6.99531 5.10848Z" fill="url(#paint0_linear_64_3240)"/>
<path d="M9.14164 7.22778L6.99707 9.37236C7.33171 9.70678 7.59718 10.1039 7.7783 10.5409C7.95942 10.978 8.05264 11.4465 8.05264 11.9196C8.05264 12.3927 7.95942 12.8611 7.7783 13.2982C7.59718 13.7353 7.33171 14.1324 6.99707 14.4668L11.6874 9.77641L9.14164 7.22778Z" fill="url(#paint1_linear_64_3240)"/>
<defs>
<linearGradient id="paint0_linear_64_3240" x1="6.61386" y1="2.93141" x2="3.62728" y2="5.91799" gradientUnits="userSpaceOnUse">
<stop offset="0.18" stop-color="#0052CC"/>
<stop offset="1" stop-color="#2684FF"/>
</linearGradient>
<linearGradient id="paint1_linear_64_3240" x1="7.40536" y1="11.5113" x2="10.3863" y2="8.53035" gradientUnits="userSpaceOnUse">
<stop offset="0.18" stop-color="#0052CC"/>
<stop offset="1" stop-color="#2684FF"/>
</linearGradient>
</defs>
</svg>
