<svg width="24" height="24" viewBox="0 0 24 24" fill="none" xmlns="http://www.w3.org/2000/svg">
<path d="M1.91992 3.36388C1.91992 2.5663 2.58268 1.91992 3.40042 1.91992H20.5994C21.4172 1.91992 22.0799 2.5663 22.0799 3.36388V20.636C22.0799 21.4335 21.4172 22.0799 20.5994 22.0799H3.40042C2.58268 22.0799 1.91992 21.4335 1.91992 20.636V3.36388ZM8.1481 18.7964V9.69286H5.12284V18.7964H8.1481ZM6.6361 8.44924C7.69072 8.44924 8.34718 7.7512 8.34718 6.87676C8.32828 5.98342 7.69198 5.30428 6.65626 5.30428C5.62054 5.30428 4.94392 5.98468 4.94392 6.87676C4.94392 7.7512 5.60038 8.44924 6.61594 8.44924H6.6361ZM12.8202 18.7964V13.7123C12.8202 13.4401 12.8403 13.1679 12.921 12.9739C13.139 12.4308 13.6367 11.8676 14.4733 11.8676C15.5682 11.8676 16.0055 12.7017 16.0055 13.9265V18.7964H19.0307V13.5749C19.0307 10.7777 17.5389 9.4774 15.5481 9.4774C13.9428 9.4774 13.2234 10.3594 12.8202 10.9806V11.0121H12.8C12.8067 11.0016 12.8134 10.9911 12.8202 10.9806V9.69286H9.79618C9.83398 10.5471 9.79618 18.7964 9.79618 18.7964H12.8202Z" fill="#fff"/>
</svg>
