<svg width="24" height="24" viewBox="0 0 24 24" fill="none" xmlns="http://www.w3.org/2000/svg">
<g clip-path="url(#clip0_852_35423)">
<path d="M20.5158 3.48573C18.7061 1.68573 16.773 2.85075 15.5633 4.05407L4.13519 15.4218C2.92543 16.625 1.65921 18.4532 3.56381 20.3474C5.46841 22.2422 7.3064 20.9825 8.51589 19.7792L19.9443 8.41173C21.154 7.20828 22.3253 5.28548 20.5158 3.48573ZM9.59743 3.02016L12.0173 5.42705L14.4805 2.97701C14.6436 2.81478 14.8131 2.65888 14.9883 2.50965C14.7304 1.21518 13.9878 0.0449219 12.0162 0.0449219C10.0409 0.0449219 9.29917 1.21977 9.04261 2.51705C9.22704 2.67573 9.41108 2.83479 9.59743 3.02016ZM14.4791 20.8993L12.0175 18.4506L9.59884 20.8561C9.42221 21.0315 9.23929 21.2005 9.05044 21.3628C9.32779 22.6824 10.1127 23.8911 12.0164 23.8911C13.9251 23.8911 14.709 22.6759 14.9846 21.3521C14.8153 21.2072 14.6459 21.0651 14.4791 20.8993ZM8.57108 8.85509H3.90584C2.19529 8.85509 0 9.39114 0 11.9364C0 13.8356 1.22207 14.6155 2.55324 14.8894C2.71084 14.7084 8.57108 8.85509 8.57108 8.85509ZM21.489 8.97867C21.3414 9.14948 15.4688 15.0176 15.4688 15.0176H20.0679C21.7785 15.0176 23.9737 14.6156 23.9737 11.9364C23.9737 9.97186 22.7929 9.23373 21.489 8.97867ZM10.0996 7.33186L10.9331 6.50284L8.51474 4.09696C7.30486 2.89377 5.46712 1.63416 3.56252 3.52862C2.1659 4.91782 2.47611 6.26986 3.2169 7.36748C3.44252 7.35088 10.0996 7.33186 10.0996 7.33186ZM13.9342 16.5408L13.0986 17.372L15.562 19.8221C16.7718 21.0255 18.7049 22.1903 20.5142 20.3905C21.8644 19.0474 21.5546 17.6368 20.8081 16.5068C20.5679 16.524 13.9342 16.5408 13.9342 16.5408Z" fill="#fff"/>
</g>
<defs>
<clipPath id="clip0_852_35423">
<rect width="24" height="24" fill="white"/>
</clipPath>
</defs>
</svg>
