<svg width="60" height="30" viewBox="0 0 60 30" fill="none" xmlns="http://www.w3.org/2000/svg">
<path d="M8.07374 2.5769L8.61874 3.6019C8.73739 3.7868 8.87551 3.95844 9.03074 4.1139C9.48724 4.5704 9.92174 5.0489 10.3107 5.5614C11.2347 6.7749 11.8582 8.1224 12.3037 9.5814C12.5707 10.4724 12.7157 11.3854 12.7267 12.3094C12.7717 15.0709 11.8247 17.4424 9.90974 19.4134C9.59945 19.7258 9.26435 20.0126 8.90774 20.2709C8.71774 20.2709 8.62924 20.1209 8.55124 19.9924C8.40124 19.7424 8.31724 19.4689 8.27274 19.1909C8.20574 18.8569 8.16124 18.5229 8.18374 18.1774V18.0214C8.17274 17.9879 8.00574 2.6554 8.07224 2.5774L8.07374 2.5769Z" fill="#599636"/>
<path d="M8.07352 2.5441C8.05102 2.4991 8.02852 2.5331 8.00652 2.5551C8.01752 2.7776 7.93952 2.9781 7.81652 3.1676C7.68302 3.3576 7.50452 3.5016 7.32652 3.6576C6.33552 4.5151 5.55652 5.5506 4.93252 6.7086C4.10852 8.2676 3.67452 9.9376 3.55252 11.6971C3.49752 12.3321 3.75252 14.5701 3.95352 15.2156C4.49852 16.9306 5.47852 18.3666 6.75352 19.6136C7.06552 19.9136 7.39952 20.1926 7.74452 20.4596C7.84452 20.4596 7.85602 20.3706 7.87802 20.3036C7.92189 20.1614 7.95531 20.0162 7.97802 19.8691C8.07802 19.3126 8.13402 18.7556 8.20052 18.1991L8.07802 2.5441H8.07352Z" fill="#6CAC48"/>
<path d="M8.61973 20.95C8.64223 20.694 8.76973 20.4825 8.89823 20.271C8.76473 20.216 8.66423 20.104 8.58623 19.981C8.51923 19.8695 8.46373 19.731 8.41923 19.6135C8.26323 19.146 8.22923 18.656 8.18523 18.177V17.887C8.13023 17.932 8.11823 18.31 8.11823 18.366C8.08473 18.878 8.01823 19.3795 7.91823 19.869C7.88473 20.069 7.86323 20.27 7.74023 20.448C7.74023 20.4705 7.74023 20.493 7.75123 20.526C7.95123 21.116 8.00723 21.7175 8.04123 22.33V22.5525C8.04123 22.8195 8.03023 22.764 8.25273 22.8525C8.34173 22.886 8.44273 22.8975 8.53123 22.964C8.59823 22.964 8.60923 22.909 8.60923 22.864L8.57573 22.4965V21.4715C8.56473 21.2935 8.59823 21.115 8.62073 20.948L8.61973 20.95Z" fill="#C2BFBF"/>
<path d="M17.0754 16.2931V17.3535C17.0742 17.3955 17.0766 17.4376 17.0825 17.4791C17.0963 17.6047 17.1734 17.6813 17.2867 17.7166C17.3925 17.7444 17.4999 17.7654 17.6084 17.7794C17.6712 17.7865 17.6921 17.8141 17.6993 17.8815C17.7064 18.1189 17.6855 18.147 17.4552 18.1327C16.9181 18.1046 16.3805 18.0979 15.8434 18.1327H15.7923C15.6248 18.1398 15.6111 18.1255 15.6111 17.9581C15.6111 17.93 15.6182 17.8953 15.6182 17.8672C15.6182 17.8161 15.6529 17.7906 15.7019 17.7906C15.8143 17.7768 15.9184 17.7487 16.0236 17.7278C16.1701 17.6931 16.2533 17.6022 16.2676 17.4557C16.2881 17.2953 16.2881 17.1279 16.2881 16.9671L16.2952 15.0974C16.2975 15.0431 16.2843 14.9894 16.2572 14.9424C16.2301 14.8954 16.1901 14.857 16.142 14.8319C16.0158 14.7617 15.8822 14.7056 15.7438 14.6644C15.7019 14.6506 15.6601 14.644 15.6254 14.6225C15.5232 14.5735 15.5207 14.4832 15.6182 14.427C15.6529 14.4066 15.6948 14.3923 15.7367 14.3851C16.1601 14.3226 16.5761 14.2174 16.9783 14.0711C17.0621 14.0431 17.083 14.0507 17.0907 14.1339C17.0978 14.185 17.0907 14.2463 17.0835 14.2943C17.0697 14.3851 17.0697 14.4755 17.0697 14.5598C17.0697 14.5945 17.0769 14.6297 17.1116 14.6506C17.1463 14.6716 17.1815 14.6506 17.2137 14.6302C17.3602 14.5179 17.5068 14.4137 17.6671 14.3239C17.8968 14.1983 18.1419 14.0865 18.4074 14.0517C18.7291 14.0099 19.0073 14.0936 19.2519 14.3029C19.353 14.3934 19.4421 14.4966 19.5169 14.6098C19.5868 14.7119 19.5934 14.7145 19.6843 14.6445C19.9498 14.449 20.2286 14.2749 20.5288 14.1493C20.8428 14.0165 21.1639 13.9961 21.4846 14.1074C21.8123 14.2258 22.036 14.4561 22.1687 14.7701C22.281 15.0213 22.329 15.2807 22.329 15.5513V17.4209C22.329 17.5465 22.3801 17.6252 22.5036 17.6864C22.6364 17.7375 22.7829 17.763 22.9223 17.7911C23.0132 17.8115 23.0132 17.8115 23.0132 17.9034C22.9994 18.1332 22.9785 18.1475 22.7548 18.1332C22.1949 18.1018 21.6335 18.1018 21.0736 18.1332C20.9612 18.1403 20.9612 18.1403 20.9551 18.0285V17.9938C20.948 17.8049 20.948 17.8049 21.1297 17.764L21.311 17.715C21.3724 17.7006 21.4271 17.6659 21.4664 17.6165C21.5057 17.5671 21.5272 17.506 21.5275 17.4429L21.5479 16.9196L21.5341 15.5523C21.5287 15.4302 21.5028 15.3099 21.4575 15.1964C21.2829 14.7706 20.8995 14.6174 20.5293 14.6593C20.25 14.6874 20.006 14.7987 19.7757 14.9595C19.7267 14.9942 19.692 15.0361 19.6991 15.1061C19.7619 15.5528 19.7196 15.9995 19.7272 16.4458V17.4158C19.7272 17.5904 19.7972 17.6742 19.9646 17.716L20.2863 17.786C20.3353 17.7931 20.3629 17.8141 20.3629 17.8697V17.9208C20.3557 18.1163 20.3424 18.125 20.1464 18.123C19.5883 18.0949 19.0298 18.1025 18.4789 18.123C18.29 18.1301 18.2747 18.1092 18.2833 17.9187C18.2905 17.8064 18.3038 17.8003 18.4089 17.7794L18.6387 17.7375C18.8429 17.6956 18.918 17.619 18.9318 17.4026L18.9522 16.9349L18.9384 15.5324C18.9246 15.3578 18.8873 15.1903 18.7919 15.03C18.6525 14.7716 18.4345 14.6394 18.1358 14.6251C17.8356 14.6047 17.5706 14.716 17.3189 14.8549C17.1443 14.957 17.0677 15.078 17.0815 15.2807V16.2992L17.0754 16.2931ZM30.2208 16.3355V17.3193C30.2219 17.3893 30.2265 17.4592 30.2346 17.5287C30.2376 17.575 30.2555 17.6191 30.2857 17.6544C30.3159 17.6896 30.3567 17.7141 30.402 17.7242C30.5224 17.7593 30.6465 17.7804 30.7717 17.787C30.8416 17.7942 30.8554 17.8217 30.8626 17.8779V17.9269C30.8554 18.171 30.8278 18.199 30.5904 18.1853C30.0595 18.1505 29.53 18.1572 28.9995 18.1853L28.7953 18.1924C28.7534 18.1924 28.7442 18.172 28.7325 18.1434C28.7121 18.0468 28.7121 17.9469 28.7325 17.8503C28.7397 17.8085 28.7672 17.7993 28.8091 17.7875C28.9112 17.7737 28.998 17.7528 29.095 17.7365C29.2696 17.6946 29.3324 17.6241 29.339 17.4434L29.3595 16.8573V15.1408C29.3595 15.0152 29.3105 14.9386 29.1992 14.8824C29.0736 14.8125 28.9408 14.764 28.8009 14.715C28.7591 14.7012 28.7172 14.6869 28.6825 14.6659C28.5916 14.6031 28.5804 14.5128 28.6687 14.4428C28.7083 14.4103 28.7569 14.3907 28.8081 14.3867C29.2548 14.3167 29.6873 14.2192 30.1059 14.0517C30.1549 14.0313 30.1759 14.0446 30.1968 14.0865C30.2177 14.1283 30.2249 14.1773 30.2172 14.2258L30.1968 14.5536C30.1968 14.5955 30.1764 14.6557 30.2106 14.6721C30.2524 14.7002 30.2805 14.6374 30.3152 14.621C30.5213 14.4482 30.7488 14.3028 30.9922 14.1886C31.2087 14.0865 31.4313 14.0211 31.683 14.0354C32.1507 14.0635 32.4856 14.3009 32.7016 14.7124C32.8139 14.9289 32.8619 15.1658 32.8829 15.4103L32.9033 15.9209L32.9104 17.4628C32.9176 17.5813 32.9594 17.6584 33.0779 17.7002C33.2007 17.7411 33.3267 17.7715 33.4547 17.7911C33.567 17.8049 33.5731 17.8258 33.5803 17.9305V17.9652C33.5665 18.2026 33.5522 18.2092 33.3148 18.195C32.7942 18.167 32.2725 18.167 31.752 18.195C31.682 18.2021 31.6126 18.195 31.5477 18.2021C31.5059 18.2021 31.4778 18.195 31.4712 18.1531C31.4574 18.0622 31.4431 17.9718 31.464 17.8738C31.4712 17.8319 31.4921 17.811 31.5406 17.8039L31.8622 17.7528C31.9746 17.7247 32.0369 17.6507 32.0512 17.5486L32.0649 17.353L32.0578 15.8949C32.0578 15.7274 32.0506 15.5599 32.0159 15.3925C31.9322 15.0351 31.6601 14.7798 31.2909 14.7441C30.9693 14.7093 30.6783 14.7931 30.4117 14.9672C30.279 15.0509 30.2228 15.1694 30.2228 15.3159V16.3697C30.2228 16.3493 30.2228 16.3493 30.23 16.3493L30.2208 16.3355Z" fill="white"/>
<path d="M50.6567 14.3607C50.5801 13.8512 50.3912 13.3978 50.0634 13.0001C49.7778 12.6487 49.4081 12.3751 48.9887 12.2046C48.5496 12.0234 48.0814 11.9672 47.6071 11.9534C47.4115 11.9463 44.7464 11.9881 44.5509 11.9534C44.5018 11.9463 44.4671 11.9606 44.4385 12.0024C44.4038 12.0535 44.3686 12.1071 44.3477 12.1628C44.2639 12.3517 44.2639 12.3374 44.4661 12.3649C44.6336 12.393 44.7939 12.4068 44.9547 12.4558C45.1012 12.5048 45.2059 12.5886 45.2406 12.7489C45.2544 12.8255 45.2687 15.2813 45.2687 16.4259L45.2406 17.2428C45.2335 17.3056 45.2268 17.3684 45.2059 17.4241C45.1778 17.5078 45.1293 17.5773 45.0456 17.613C44.9535 17.6564 44.8541 17.6823 44.7525 17.6896C44.5636 17.71 44.5361 17.7177 44.4733 17.927L44.4528 18.0036C44.439 18.0945 44.4457 18.1082 44.5366 18.1082L46.6227 18.1287L47.4396 18.1149L48.0048 18.0449C48.6466 17.9265 49.2189 17.661 49.707 17.2357C49.9859 16.9894 50.2135 16.6907 50.3769 16.3565C50.5724 15.9659 50.6562 15.5396 50.6771 15.1077C50.7118 14.8636 50.6975 14.6124 50.6567 14.3612V14.3607ZM49.6447 15.3512C49.6167 15.798 49.5263 16.2304 49.296 16.621C49.003 17.1305 48.5843 17.4864 48.0053 17.6115C47.7541 17.6625 47.5029 17.6881 47.2395 17.6533C47.0506 17.6329 46.8698 17.6115 46.6952 17.5487C46.3812 17.4363 46.2694 17.2423 46.2628 16.936L46.2556 12.729C46.2556 12.4778 46.3679 12.4226 46.5487 12.415C46.8208 12.3945 47.1001 12.4012 47.3722 12.4288C47.6619 12.4568 47.9462 12.5255 48.2167 12.633C48.4176 12.7167 48.6038 12.8322 48.7681 12.9751C49.1449 13.2967 49.3961 13.7001 49.5339 14.1749C49.6463 14.5588 49.6667 14.9494 49.6463 15.34L49.6447 15.3512ZM56.4556 16.0354C56.4556 15.9935 56.4556 15.9588 56.4485 15.9169C56.3857 15.533 56.183 15.2399 55.8695 15.0168C55.6673 14.8703 55.4371 14.7727 55.1997 14.7028C55.1578 14.689 55.1231 14.6747 55.0812 14.6681C55.0883 14.6334 55.1093 14.6262 55.1302 14.6191C55.2696 14.5491 55.4023 14.4725 55.5208 14.3679C55.7373 14.1866 55.8782 13.963 55.9532 13.6909C55.9951 13.5443 55.9951 13.3978 55.9813 13.2441C55.9699 13.0643 55.9182 12.8894 55.83 12.7324C55.7418 12.5753 55.6194 12.4401 55.4718 12.3369C55.1501 12.0994 54.7738 12.0019 54.3833 11.9948C53.6297 11.981 52.8694 11.9948 52.1164 11.9948C51.8999 11.9948 51.6839 12.0086 51.4603 11.9744C51.4184 11.9672 51.3582 11.9539 51.3275 12.0024C51.2765 12.0933 51.2152 12.1837 51.1948 12.2883C51.1877 12.3374 51.202 12.3649 51.2576 12.3721L51.7391 12.442C51.928 12.4701 52.0607 12.5748 52.074 12.7422C52.0877 12.858 52.0945 12.9744 52.0944 13.091L52.0806 14.3954L52.0735 16.9768C52.0735 17.13 52.0531 17.277 52.0245 17.4302C52.0176 17.4788 51.9968 17.5245 51.9647 17.5616C51.9325 17.5987 51.8904 17.6258 51.8432 17.6395C51.7038 17.6814 51.5711 17.7233 51.4246 17.7233C51.3854 17.7196 51.3461 17.7293 51.3132 17.7508C51.2803 17.7723 51.2556 17.8044 51.2433 17.8417C51.2152 17.9045 51.1922 17.9745 51.1805 18.0373C51.1667 18.121 51.1877 18.1496 51.2714 18.1394C51.3342 18.1322 53.6368 18.1884 54.0693 18.1465C54.3276 18.1185 54.5798 18.0837 54.8366 18.0072C55.2757 17.8678 55.6811 17.6651 56.0017 17.323C56.2672 17.0437 56.4204 16.7088 56.4342 16.3182C56.4546 16.2273 56.4546 16.137 56.4546 16.0389L56.4556 16.0354ZM53.0716 13.1762L53.0921 12.6182C53.0921 12.5135 53.1339 12.465 53.2386 12.4436C53.406 12.4088 53.5735 12.4231 53.741 12.4298C53.9084 12.4436 54.0688 12.4645 54.2362 12.5135C54.5426 12.6044 54.7805 12.779 54.9204 13.0716C54.9838 13.2046 55.0171 13.35 55.0179 13.4974C55.025 13.6929 55.0107 13.8813 54.9342 14.0692C54.8157 14.3275 54.6278 14.495 54.3552 14.544C54.0825 14.593 53.3085 14.5721 53.1901 14.5721C53.0854 14.5721 53.0778 14.5583 53.0778 14.4536V13.7965C53.0613 13.5922 53.059 13.387 53.0706 13.1823L53.0716 13.1762ZM55.3385 16.9299C55.2201 17.2439 55.0036 17.4609 54.6967 17.5783C54.5293 17.6411 54.3618 17.6804 54.1862 17.6692C53.9697 17.662 53.7537 17.6692 53.5378 17.6273C53.2447 17.5645 53.112 17.2852 53.091 17.083C53.0563 16.7272 53.0772 16.3642 53.0706 16.0992V15.1781C53.0706 15.0658 53.0844 15.0316 53.2034 15.0316L53.8594 15.0387L54.3062 15.0898C54.6202 15.1597 54.9061 15.2787 55.1297 15.5222C55.311 15.7178 55.409 15.9547 55.4299 16.213C55.4503 16.4571 55.4371 16.6945 55.3462 16.9248L55.3385 16.9299Z" fill="#C2BFBF"/>
<path d="M37.6104 14.8279L37.7917 14.856C37.9872 14.8632 38.2175 14.7932 38.2869 14.5211C38.3252 14.3911 38.3252 14.2528 38.2869 14.1228C38.2451 14.1228 38.2241 14.1576 38.2032 14.1719C38.0985 14.2556 37.9801 14.3046 37.8545 14.3184C37.6033 14.3465 37.3521 14.3322 37.108 14.2418L36.766 14.1233C36.5274 14.0452 36.2763 14.0123 36.0257 14.0263C35.6698 14.0544 35.3349 14.1729 35.0209 14.3403C34.6859 14.5216 34.449 14.7937 34.3367 15.1639C34.2739 15.3804 34.2668 15.603 34.2948 15.8266C34.3648 16.3361 34.6298 16.692 35.1041 16.8804C35.1322 16.8875 35.1531 16.9008 35.1807 16.9085C35.2435 16.9432 35.2506 16.9784 35.1945 17.0269L35.0198 17.1454L34.6012 17.4037C34.4965 17.4665 34.4827 17.516 34.5175 17.6268C34.559 17.7572 34.6363 17.8732 34.7406 17.9618C34.8363 18.0439 34.9448 18.11 35.0617 18.1573C35.1383 18.192 35.1383 18.2084 35.0689 18.2696L34.6706 18.5555C34.5379 18.6577 34.4051 18.7598 34.2938 18.8905C34.2164 18.9733 34.1606 19.0739 34.1314 19.1835C34.1022 19.293 34.1005 19.4081 34.1264 19.5185C34.1782 19.7607 34.3051 19.9804 34.4889 20.1464C34.6703 20.3145 34.8909 20.4343 35.1306 20.4952C35.5212 20.6075 35.9261 20.6136 36.3238 20.537C36.8956 20.4324 37.396 20.1796 37.7891 19.7487C38.0613 19.4628 38.2216 19.1279 38.2359 18.7276C38.2511 18.4961 38.1837 18.2667 38.0458 18.0802C37.9078 17.8937 37.7081 17.7622 37.4823 17.709L37.1055 17.6391L35.9542 17.537C35.8286 17.5298 35.703 17.5089 35.5983 17.4461C35.4656 17.3624 35.4308 17.202 35.5146 17.0974C35.5774 17.0208 35.654 16.9718 35.752 16.9646L35.9751 16.9442C36.4163 16.8993 36.8306 16.7106 37.154 16.4071C37.3267 16.2473 37.4501 16.0414 37.5099 15.8138C37.5936 15.5136 37.5936 15.2011 37.5236 14.8948C37.5032 14.8182 37.5099 14.8111 37.6074 14.8249L37.6104 14.8279ZM35.9001 18.3033C35.9419 18.3105 35.9838 18.3033 36.0257 18.3033C36.3187 18.3171 36.6189 18.338 36.9048 18.4156C36.9982 18.4432 37.0892 18.4782 37.177 18.5203C37.4562 18.6735 37.5609 18.939 37.5257 19.2249C37.4838 19.5389 37.3092 19.762 37.0371 19.909C36.8558 20.0111 36.6531 20.0556 36.4438 20.0765C36.3672 20.0837 36.2973 20.0765 36.2207 20.0765C35.9766 20.0837 35.7392 20.0561 35.509 19.9581C35.3486 19.8953 35.2159 19.8049 35.0974 19.6788C34.8534 19.4347 34.7401 18.988 35.1046 18.625C35.3277 18.4207 35.5794 18.2763 35.9001 18.3033ZM36.6955 16.1263C36.549 16.4959 36.2278 16.6077 35.9072 16.5587C35.6141 16.5169 35.3977 16.3565 35.2588 16.0911C35.0775 15.7352 35.029 15.3661 35.1332 14.9816C35.2098 14.6957 35.3844 14.4792 35.6912 14.4302C36.0818 14.3602 36.4571 14.5001 36.6542 14.8907C36.7563 15.0796 36.8007 15.3094 36.8007 15.6372C36.7935 15.7699 36.766 15.9512 36.696 16.1258L36.6955 16.1263ZM27.9047 15.6515C27.8419 15.2747 27.7025 14.9326 27.4441 14.6467C27.0602 14.2209 26.5721 14.034 26.0207 14.0325C25.5392 14.0253 25.0863 14.1652 24.681 14.4164C24.2824 14.6549 23.9903 15.0369 23.8646 15.484C23.7461 15.8889 23.7523 16.3009 23.8442 16.7119C24.0882 17.8147 24.9398 18.2885 25.9579 18.2191C26.2581 18.1987 26.544 18.1006 26.8156 17.9679C27.2205 17.779 27.5136 17.4793 27.7157 17.0815C27.8761 16.7538 27.9455 16.4045 27.9389 16.0068L27.9041 15.651L27.9047 15.6515ZM26.9142 17.2005C26.8643 17.3575 26.7697 17.4965 26.642 17.6006C26.5144 17.7047 26.3591 17.7694 26.1953 17.7866C25.889 17.8285 25.602 17.7519 25.3442 17.5702C25.158 17.4332 25.0073 17.2538 24.9046 17.0468C24.6187 16.4607 24.5697 15.847 24.7157 15.219C24.7627 15.0247 24.8644 14.8478 25.0087 14.7095C25.2671 14.4721 25.5668 14.4164 25.9022 14.4864C26.2239 14.5563 26.4674 14.7304 26.6681 14.9959C26.8687 15.2614 26.9611 15.5677 27.0168 15.8894C27.0449 16.0497 27.0449 16.2172 27.0515 16.3218C27.0515 16.6568 27.0234 16.9345 26.9188 17.201L26.9142 17.2005ZM43.15 15.7076C43.099 15.3027 42.9479 14.9331 42.6614 14.6263C42.2846 14.2147 41.796 14.0401 41.2523 14.033C40.7846 14.0258 40.3522 14.1586 39.9544 14.3888C39.5077 14.6543 39.2008 15.0306 39.0824 15.5402C38.9409 16.0961 39.0002 16.6841 39.2499 17.2005C39.4796 17.6891 39.8707 18.0031 40.3874 18.1425C40.9592 18.2957 41.504 18.2262 42.0339 17.9679C42.4945 17.7448 42.8223 17.3961 43.0107 16.9212C43.123 16.642 43.1638 16.3423 43.171 15.993C43.1781 15.9302 43.1638 15.8184 43.1505 15.7071L43.15 15.7076ZM42.1871 17.1101C42.0748 17.4869 41.8384 17.731 41.4407 17.7871C41.1476 17.829 40.8688 17.7591 40.6171 17.5916C40.4007 17.4451 40.2475 17.2495 40.1357 17.0198C40.0101 16.7757 39.9401 16.5174 39.9126 16.2524C39.8707 15.9246 39.8707 15.604 39.9473 15.2757C39.9619 15.211 39.9829 15.1478 40.0101 15.0873C40.2056 14.5987 40.6381 14.3756 41.1476 14.4874C41.4897 14.564 41.7475 14.7529 41.9431 15.0388C42.132 15.3181 42.2223 15.6249 42.2647 15.9578C42.2851 16.0905 42.2928 16.2299 42.2851 16.3484C42.2851 16.6205 42.2647 16.8717 42.183 17.1158L42.1871 17.1101Z" fill="white"/>
</svg>
