<svg width="40" height="13" viewBox="0 0 40 13" fill="none" xmlns="http://www.w3.org/2000/svg">
<path d="M16.2329 4.54787L16.2642 5.10828C16.6214 4.67484 17.0904 4.45812 17.6708 4.45812C18.6768 4.45812 19.1887 5.03638 19.2066 6.19289V9.39725H18.122V6.25561C18.122 5.94787 18.0558 5.72019 17.9234 5.57205C17.791 5.42417 17.5744 5.35024 17.2737 5.35024C16.836 5.35024 16.5099 5.54911 16.296 5.94634V9.39725H15.2109V4.54787H16.2334H16.2329ZM22.4394 9.487C21.752 9.487 21.1945 9.26977 20.7675 8.83506C20.3403 8.40035 20.1267 7.82133 20.1267 7.09826V6.96389C20.1267 6.47997 20.2196 6.0473 20.4057 5.66639C20.5916 5.28548 20.853 4.98895 21.1894 4.77657C21.5257 4.5647 21.9007 4.45863 22.3147 4.45863C22.9723 4.45863 23.4807 4.66923 23.8392 5.09043C24.1982 5.51188 24.3774 6.10773 24.3774 6.87873V7.31803H21.2204C21.2535 7.71832 21.3864 8.03499 21.6201 8.26802C21.8539 8.50106 22.1479 8.61758 22.5021 8.61758C22.999 8.61758 23.4038 8.41616 23.7165 8.01255L24.3013 8.57296C24.1078 8.8626 23.8496 9.08747 23.5268 9.24733C23.2037 9.40719 22.8412 9.487 22.4394 9.487ZM22.3101 5.33264C22.0122 5.33264 21.7721 5.43718 21.5891 5.64625C21.4058 5.85532 21.2892 6.14674 21.2385 6.52026H23.3058V6.43943C23.2819 6.07484 23.1851 5.79948 23.0156 5.61259C22.8458 5.42596 22.6108 5.33264 22.3101 5.33264ZM26.5784 3.36943V4.54812H27.4313V5.35482H26.5784V8.06176C26.5784 8.24686 26.6151 8.38046 26.6879 8.46281C26.7607 8.54491 26.8911 8.58596 27.0787 8.58596C27.2064 8.58561 27.3337 8.57055 27.458 8.54109V9.38374C27.2111 9.45258 26.973 9.48674 26.7436 9.48674C25.9103 9.48674 25.4936 9.02526 25.4936 8.10204V5.35457H24.6982V4.54787H25.4931V3.36918H26.5779L26.5784 3.36943ZM29.4138 9.39751H28.3288V2.51353H29.4138V9.39751ZM31.749 9.39751H30.6639V4.54812H31.749V9.39751ZM30.597 3.28861C30.597 3.12161 30.6497 2.98266 30.7553 2.872C30.8612 2.7616 31.0122 2.70628 31.2085 2.70628C31.405 2.70628 31.5568 2.7616 31.6642 2.872C31.7712 2.98266 31.8246 3.12161 31.8246 3.28887C31.8246 3.45306 31.7712 3.58972 31.6642 3.69884C31.5568 3.80797 31.405 3.86253 31.2085 3.86253C31.0122 3.86253 30.8612 3.80797 30.7553 3.69884C30.6497 3.58998 30.597 3.45281 30.597 3.28861ZM33.3117 9.39751V5.35457H32.5749V4.54787H33.3117V4.10423C33.3117 3.56626 33.4604 3.15119 33.758 2.85823C34.0559 2.56554 34.4724 2.41919 35.0081 2.41919C35.1988 2.41919 35.4012 2.44596 35.6156 2.49976L35.5888 3.35133C35.4519 3.32588 35.3128 3.31393 35.1736 3.31564C34.6555 3.31564 34.3966 3.58284 34.3966 4.11775V4.54787H35.3788V5.35457H34.3966V9.39725L33.3117 9.39751ZM37.8613 7.8379L38.8436 4.54812H40L38.0803 10.1326C37.7855 10.9482 37.2855 11.3561 36.58 11.3561C36.4221 11.3561 36.248 11.3291 36.0575 11.2753V10.4327L36.263 10.4462C36.5367 10.4462 36.7429 10.3962 36.8814 10.296C37.0197 10.196 37.1291 10.028 37.2096 9.79193L37.3656 9.37507L35.669 4.54813H36.8389L37.8613 7.8379Z" fill="white"/>
<path d="M9.25769 4.44414L9.25305 4.44217C9.25036 4.44112 9.24771 4.44019 9.24537 4.43781C9.23762 4.42947 9.23417 4.418 9.23604 4.40675L9.49384 2.82829L10.7028 4.03935L9.44548 4.57508C9.44205 4.5765 9.43824 4.57721 9.43448 4.57706H9.42947C9.42783 4.57601 9.42615 4.57471 9.42281 4.57138C9.37602 4.51921 9.32003 4.47609 9.25769 4.44414ZM11.0113 4.34795L12.304 5.64251C12.5725 5.91171 12.7069 6.04598 12.7559 6.20162C12.7633 6.22467 12.7693 6.24771 12.7739 6.27142L9.68459 4.96117C9.68295 4.96046 9.68127 4.95979 9.67959 4.95919C9.66725 4.95418 9.65291 4.9485 9.65291 4.93581C9.65291 4.92312 9.66758 4.9171 9.67992 4.9121L9.68393 4.91046L11.0113 4.34795ZM12.7212 6.68691C12.6545 6.8125 12.5245 6.94275 12.3043 7.16352L10.8469 8.62274L8.96187 8.22963L8.95186 8.22765C8.93518 8.22497 8.91751 8.22198 8.91751 8.20695C8.90304 8.04953 8.82392 7.90521 8.69906 7.80849C8.69139 7.80081 8.69339 7.78879 8.69574 7.77777C8.69574 7.77612 8.69574 7.77444 8.69641 7.77307L9.05094 5.59343L9.05224 5.58608C9.05422 5.56938 9.05724 5.55001 9.07226 5.55001C9.22573 5.53089 9.36511 5.45087 9.45913 5.3279C9.46212 5.32458 9.46413 5.32088 9.46814 5.31888C9.47881 5.31387 9.49148 5.31888 9.50249 5.32357L12.7212 6.68691ZM10.5117 8.95841L8.11507 11.3585L8.5253 8.83349L8.52597 8.83017C8.5263 8.82685 8.52701 8.82349 8.52795 8.82049C8.53127 8.81247 8.53995 8.80913 8.54829 8.80579L8.5523 8.80415C8.64212 8.76577 8.72156 8.70659 8.78409 8.63147C8.7921 8.62212 8.80177 8.6131 8.81411 8.61143C8.81732 8.61091 8.82057 8.61091 8.82378 8.61143L10.5114 8.95878L10.5117 8.95841ZM7.6078 11.8665L7.33765 12.137L4.35103 7.81448C4.34995 7.81291 4.34883 7.81134 4.34771 7.80978C4.34306 7.80343 4.33804 7.79709 4.33903 7.78974C4.33903 7.7844 4.34273 7.77972 4.34637 7.77571L4.34969 7.77137C4.3587 7.758 4.36637 7.74465 4.37471 7.73028L4.38138 7.71859L4.38242 7.71754C4.38712 7.70953 4.39143 7.70184 4.39943 7.6975C4.40643 7.69418 4.41611 7.69553 4.42378 7.69717L7.73257 8.38052C7.74183 8.38194 7.75055 8.38576 7.75792 8.39154C7.76227 8.3959 7.76326 8.40057 7.76426 8.40591C7.81104 8.58318 7.93788 8.72836 8.10711 8.79835C8.11645 8.80305 8.11245 8.81338 8.10815 8.8244C8.10599 8.82924 8.10429 8.83427 8.10315 8.83943C8.06146 9.09327 7.70385 11.277 7.6078 11.8665ZM7.04349 12.4313C6.84438 12.6287 6.72699 12.7332 6.59425 12.7753C6.46337 12.8167 6.32291 12.8167 6.19203 12.7753C6.03661 12.7259 5.90221 12.5916 5.63373 12.3224L2.63443 9.31879L3.41786 8.10204C3.42155 8.09603 3.42519 8.09069 3.43119 8.08634C3.43953 8.08033 3.45154 8.08302 3.46155 8.08634C3.64136 8.14067 3.83443 8.13087 4.00784 8.05862C4.01685 8.0553 4.02585 8.05295 4.03286 8.0593C4.0364 8.06247 4.03949 8.06608 4.04219 8.06998L7.04349 12.4313ZM2.34527 9.02921L1.65723 8.34018L3.01597 7.7597C3.01944 7.75817 3.02319 7.75739 3.02698 7.75735C3.03832 7.75735 3.04499 7.76871 3.05099 7.77906C3.06465 7.80009 3.07911 7.82059 3.09435 7.84051L3.0987 7.84586C3.10271 7.85153 3.1 7.85721 3.09601 7.86256L2.34527 9.02921ZM1.35273 8.03525L0.482261 7.16352C0.334181 7.01523 0.22679 6.90768 0.152082 6.81517L2.79885 7.36492C2.80217 7.36556 2.80551 7.36611 2.80886 7.36656C2.8252 7.36925 2.84321 7.37224 2.84321 7.38761C2.84321 7.40431 2.82353 7.41199 2.80685 7.41833L2.79918 7.42165L1.35273 8.03525ZM0 6.36695C0.00303055 6.31079 0.0131027 6.25524 0.030014 6.20162C0.0793742 6.04598 0.213447 5.91171 0.48226 5.64251L1.5962 4.52697C2.10909 5.27241 2.62337 6.01688 3.13904 6.76039C3.14804 6.77241 3.15804 6.78578 3.14771 6.7958C3.09901 6.84957 3.05032 6.90835 3.01597 6.97214C3.01224 6.98034 3.00651 6.98747 2.99929 6.99285C2.99494 6.99554 2.99029 6.9945 2.98528 6.99353H2.98461L0 6.36695ZM1.89436 4.22838L3.39151 2.72842C3.53258 2.79021 4.0452 3.00697 4.50311 3.20069C4.84997 3.34764 5.16614 3.48124 5.26553 3.52466C5.27553 3.52867 5.28453 3.53267 5.28887 3.54269C5.29156 3.54871 5.29018 3.55639 5.28887 3.56274C5.24071 3.78268 5.30626 4.01213 5.4633 4.17328C5.4733 4.1833 5.4633 4.19765 5.45463 4.21002L5.44998 4.21704L3.92915 6.57604C3.92514 6.58271 3.92148 6.58839 3.91481 6.59274C3.9068 6.59775 3.89546 6.59542 3.88613 6.59307C3.82698 6.57755 3.76617 6.56925 3.70503 6.56835C3.65033 6.56835 3.59097 6.57837 3.53094 6.5894C3.52427 6.59044 3.51793 6.59175 3.51259 6.58775C3.5067 6.58291 3.50163 6.57718 3.49759 6.57072L1.89436 4.22838ZM3.69467 2.42549L5.63373 0.483646C5.90221 0.21478 6.03661 0.080181 6.19203 0.0310835C6.32291 -0.0103612 6.46337 -0.0103612 6.59425 0.0310835C6.74967 0.080181 6.88407 0.21478 7.15255 0.483646L7.57278 0.904478L6.1937 3.04337C6.1903 3.0496 6.18563 3.05506 6.18002 3.0594C6.17168 3.06508 6.16001 3.06273 6.15 3.0594C5.92927 2.99232 5.68969 3.03855 5.50966 3.18298C5.50065 3.19233 5.48731 3.18699 5.47597 3.18194C5.29587 3.10345 3.89512 2.51065 3.69467 2.42549ZM7.8656 1.19772L9.13896 2.47291L8.83213 4.37601V4.38102C8.83186 4.38537 8.83093 4.38963 8.82944 4.39372C8.82612 4.40039 8.81944 4.40173 8.81276 4.40374C8.74716 4.42364 8.68537 4.45446 8.63 4.49492C8.62761 4.49663 8.6254 4.49854 8.62333 4.50059C8.61963 4.5046 8.61599 4.50827 8.60999 4.50894C8.6051 4.50909 8.60023 4.50831 8.59565 4.50659L6.65526 3.68096L6.65156 3.67932C6.63922 3.67431 6.62455 3.66829 6.62455 3.6556C6.61314 3.54732 6.57783 3.44293 6.52116 3.35C6.51182 3.33464 6.50148 3.3186 6.50948 3.30291L7.8656 1.19772ZM6.55423 4.07208L8.37321 4.8436C8.38322 4.8483 8.39423 4.85262 8.39856 4.86297C8.40031 4.8692 8.40031 4.87578 8.39856 4.88201C8.39322 4.90873 8.38856 4.93912 8.38856 4.96985V5.02095C8.38856 5.03364 8.37555 5.03898 8.36354 5.044L8.35985 5.04531C8.07169 5.16855 4.31432 6.77306 4.30865 6.77306C4.30298 6.77306 4.29697 6.77306 4.29131 6.76738C4.28131 6.75736 4.29131 6.74333 4.30031 6.73064C4.30192 6.72844 4.30345 6.72619 4.30496 6.72396L5.79977 4.40604L5.80246 4.40203C5.81113 4.38801 5.82113 4.37231 5.83714 4.37231L5.85215 4.37466C5.88617 4.37935 5.91619 4.38367 5.94654 4.38367C6.17333 4.38367 6.38344 4.27312 6.51018 4.08408C6.5132 4.07903 6.51703 4.07452 6.52151 4.07072C6.53052 4.06404 6.54389 4.06745 6.55423 4.07208ZM4.47109 7.13981L8.56665 5.39068C8.56665 5.39068 8.57265 5.39068 8.57833 5.39636C8.60067 5.41874 8.61968 5.43377 8.63802 5.4478L8.64703 5.45347C8.65536 5.45817 8.66371 5.46349 8.66437 5.47218C8.66437 5.4755 8.66437 5.47752 8.66366 5.48053L8.3128 7.63879L8.3115 7.64748C8.30915 7.66418 8.30685 7.68322 8.29115 7.68322C8.10125 7.69606 7.9299 7.80191 7.83324 7.96611L7.8316 7.9688C7.82695 7.97648 7.82259 7.98383 7.81492 7.98784C7.80791 7.99116 7.79891 7.98981 7.79157 7.98817L4.52546 7.3135C4.52214 7.31283 4.47476 7.14014 4.47109 7.13981Z" fill="url(#paint0_radial_64_3234)"/>
<defs>
<radialGradient id="paint0_radial_64_3234" cx="0" cy="0" r="1" gradientUnits="userSpaceOnUse" gradientTransform="translate(6.38697 -6.40319) scale(12.8064 12.8389)">
<stop stop-color="#20C6B7"/>
<stop offset="1" stop-color="#4D9ABF"/>
</radialGradient>
</defs>
</svg>
