<svg width="30" height="12" viewBox="0 0 30 12" fill="none" xmlns="http://www.w3.org/2000/svg">
<path d="M26.1434 4.50806C26.0791 4.50806 26.0166 4.52133 25.9613 4.55262L24.2114 5.5632C24.0981 5.62842 24.0293 5.75168 24.0293 5.88274V7.90027C24.0293 8.03128 24.0981 8.15433 24.2114 8.21976L24.6684 8.48312C24.8904 8.59259 24.9723 8.59084 25.0734 8.59084C25.4021 8.59084 25.5898 8.39136 25.5898 8.04465V6.05423C25.5898 6.02609 25.5654 6.00595 25.5378 6.00595H25.3186C25.2905 6.00595 25.2666 6.0266 25.2666 6.05423V8.04569C25.2666 8.19936 25.1065 8.35397 24.8467 8.22405L24.3717 7.9454C24.3549 7.93626 24.3419 7.91958 24.3419 7.90084V5.88331C24.3419 5.8642 24.3547 5.84468 24.3717 5.83502L26.1179 4.82806C26.1343 4.81867 26.1538 4.81867 26.1699 4.82806L27.9162 5.83502C27.9328 5.84499 27.946 5.86358 27.946 5.88331V7.90084C27.946 7.9201 27.9363 7.93983 27.9199 7.94912L26.17 8.95608C26.1545 8.96501 26.1338 8.96501 26.118 8.95608L25.6684 8.68859C25.655 8.68074 25.6368 8.68136 25.6239 8.68859C25.4998 8.75892 25.4764 8.76708 25.3601 8.80746C25.3314 8.81743 25.2878 8.83297 25.375 8.88182L25.962 9.2278C26.0179 9.26013 26.0801 9.27609 26.1441 9.27609C26.2089 9.27609 26.2702 9.2606 26.3261 9.2278L28.0761 8.22085C28.1893 8.15495 28.2582 8.03236 28.2582 7.90135V5.88382C28.2582 5.75276 28.1893 5.62976 28.0761 5.56428L26.3261 4.55371C26.2713 4.52241 26.2084 4.50914 26.1441 4.50914L26.1434 4.50806ZM26.6116 5.94971C26.1132 5.94971 25.8165 6.16179 25.8165 6.51444C25.8165 6.89656 26.111 7.00211 26.5893 7.04942C27.1615 7.10544 27.2061 7.18946 27.2061 7.30209C27.2061 7.49744 27.0503 7.58073 26.6822 7.58073C26.2197 7.58073 26.118 7.46526 26.084 7.23475C26.08 7.21006 26.061 7.19018 26.0357 7.19018H25.8085C25.7948 7.19049 25.7818 7.19606 25.7721 7.20575C25.7624 7.21544 25.7568 7.22849 25.7565 7.24218C25.7565 7.53668 25.9167 7.88493 26.6817 7.88493C27.2354 7.88493 27.5548 7.66805 27.5548 7.28675C27.5548 6.90978 27.2968 6.8079 26.7597 6.73679C26.2175 6.6645 26.1652 6.6299 26.1652 6.50271C26.1652 6.39778 26.2091 6.25743 26.6111 6.25743C26.9701 6.25743 27.1028 6.33489 27.1573 6.57697C27.162 6.59969 27.1821 6.61828 27.2056 6.61828H27.4328C27.4467 6.61828 27.4602 6.60971 27.4699 6.59969C27.4795 6.589 27.4862 6.57697 27.4848 6.56251C27.4497 6.14558 27.1717 5.94945 26.6117 5.94945L26.6116 5.94971Z" fill="#83CD29"/>
<path d="M15.8555 1.86335C15.836 1.86338 15.8168 1.86851 15.7998 1.87822C15.7829 1.8881 15.7689 1.9022 15.7591 1.91914C15.7494 1.93609 15.7442 1.95528 15.7441 1.97484V4.81715C15.7441 4.84503 15.7311 4.87003 15.7069 4.88402C15.6951 4.89092 15.6816 4.89456 15.6679 4.89456C15.6542 4.89456 15.6407 4.89092 15.6289 4.88402L15.1644 4.61653C15.1306 4.59693 15.0921 4.58661 15.053 4.58661C15.0138 4.58661 14.9754 4.59693 14.9415 4.61653L13.0876 5.68654C13.0183 5.72651 12.976 5.80345 12.976 5.88344V8.02351C12.976 8.06268 12.9863 8.10116 13.0058 8.13508C13.0254 8.169 13.0536 8.19715 13.0875 8.21669L14.9415 9.28676C14.9754 9.30641 15.0138 9.31676 15.053 9.31676C15.0921 9.31676 15.1306 9.30641 15.1644 9.28676L17.0184 8.21669C17.0524 8.19715 17.0805 8.169 17.1001 8.13508C17.1197 8.10116 17.13 8.06268 17.1299 8.02351V2.68818C17.1299 2.607 17.0856 2.53083 17.0148 2.49128L15.9113 1.87445C15.8939 1.86479 15.8747 1.86314 15.8555 1.86335ZM3.92899 4.53473C3.89362 4.53618 3.86042 4.54233 3.82866 4.56076L1.97472 5.63077C1.94076 5.65028 1.91256 5.67843 1.89299 5.71236C1.87342 5.74628 1.86317 5.78478 1.86328 5.82395L1.86705 8.69606C1.86705 8.73603 1.88771 8.7731 1.92282 8.79262C1.95727 8.81328 1.99997 8.81328 2.03426 8.79262L3.13401 8.16098C3.20373 8.11966 3.24917 8.04758 3.24917 7.96785V6.62652C3.24917 6.54648 3.29125 6.47316 3.36071 6.4334L3.82887 6.16219C3.8627 6.14251 3.90117 6.13225 3.9403 6.13244C3.97946 6.13221 4.01796 6.14248 4.05179 6.16219L4.51974 6.43324C4.5891 6.473 4.63118 6.54643 4.63118 6.62637V7.96764C4.63118 8.04747 4.67766 8.11997 4.74634 8.16077L5.84609 8.79242C5.88069 8.81307 5.92329 8.81307 5.95753 8.79242C5.99161 8.77279 6.0133 8.73577 6.0133 8.69585L6.01702 5.82385C6.01724 5.78466 6.00703 5.74612 5.98745 5.71217C5.96787 5.67823 5.93961 5.6501 5.90558 5.63067L4.05164 4.56071C4.02029 4.54233 3.98693 4.53613 3.9513 4.53468H3.9291L3.92899 4.53473ZM20.589 4.56076C20.5498 4.56065 20.5114 4.57092 20.4775 4.5905L18.6235 5.66057C18.5543 5.70059 18.5119 5.77376 18.5119 5.8537V7.99377C18.5119 8.07422 18.5573 8.14714 18.6271 8.1869L20.4662 9.23517C20.5341 9.2739 20.617 9.27684 20.6854 9.23878L21.8 8.61829C21.8354 8.59867 21.8593 8.562 21.8594 8.52173C21.8595 8.48145 21.8386 8.4452 21.8037 8.42516L19.9385 7.3551C19.9036 7.33517 19.8791 7.29484 19.8791 7.25476V6.58558C19.8791 6.54561 19.9039 6.50894 19.9385 6.48901L20.5181 6.1546C20.5526 6.13466 20.5949 6.13466 20.6296 6.1546L21.2094 6.48901C21.2264 6.49876 21.2405 6.51283 21.2503 6.52979C21.2601 6.54675 21.2652 6.566 21.2652 6.58558V7.11317C21.2651 7.13275 21.2702 7.15199 21.28 7.16895C21.2898 7.18591 21.3039 7.19998 21.3209 7.20974C21.3556 7.22977 21.3977 7.22987 21.4324 7.20974L22.5433 6.56337C22.6122 6.5233 22.6548 6.44992 22.6548 6.37024V5.85385C22.6548 5.8147 22.6445 5.77624 22.625 5.74233C22.6054 5.70842 22.5772 5.68025 22.5433 5.66067L20.7005 4.59061C20.6666 4.571 20.6281 4.56073 20.589 4.56086L20.589 4.56076ZM15.0455 6.15847C15.0559 6.15842 15.0661 6.16096 15.0753 6.16585L15.7106 6.53368C15.7278 6.54364 15.7403 6.56208 15.7403 6.58196V7.31761C15.7403 7.33759 15.7279 7.35598 15.7106 7.36589L15.0753 7.73372C15.058 7.74353 15.0368 7.74353 15.0195 7.73372L14.3842 7.36589C14.3669 7.35593 14.3544 7.33749 14.3544 7.31761V6.58186C14.3544 6.56192 14.3669 6.54364 14.3842 6.53357L15.0195 6.1658C15.0282 6.16079 15.0358 6.15847 15.0455 6.15847Z" fill="white"/>
<path d="M9.49885 4.54961C9.4597 4.54955 9.42122 4.55981 9.38731 4.57936L7.53331 5.6457C7.46401 5.68567 7.42188 5.76266 7.42188 5.8426V7.98267C7.42177 8.02183 7.43202 8.06032 7.4516 8.09424C7.47117 8.12816 7.49936 8.1563 7.53331 8.1758L9.38731 9.24587C9.42117 9.26552 9.45962 9.27587 9.49877 9.27587C9.53792 9.27587 9.57637 9.26552 9.61023 9.24587L11.4642 8.1758C11.4982 8.15626 11.5263 8.12811 11.5459 8.09419C11.5655 8.06027 11.5758 8.02179 11.5757 7.98262V5.84255C11.5757 5.76251 11.5336 5.68557 11.4642 5.64565L9.61018 4.57931C9.5763 4.55966 9.5378 4.5494 9.49864 4.54956L9.49885 4.54961ZM20.5857 6.45938C20.5783 6.45938 20.5701 6.45938 20.5634 6.46299L20.2068 6.6711C20.2001 6.67479 20.1945 6.68016 20.1906 6.68668C20.1867 6.69319 20.1846 6.70062 20.1844 6.70823V7.11695C20.1844 7.13234 20.1934 7.14638 20.2068 7.15413L20.5634 7.35846C20.5695 7.36226 20.5766 7.36427 20.5838 7.36427C20.591 7.36427 20.5981 7.36226 20.6042 7.35846L20.9609 7.15413C20.9741 7.14654 20.9832 7.13234 20.9832 7.11695V6.70823C20.9832 6.69284 20.9742 6.67879 20.9609 6.67105L20.6042 6.46294C20.5976 6.45902 20.5931 6.45933 20.5856 6.45933L20.5857 6.45938Z" fill="#83CD29"/>
</svg>
