<svg width="45" height="23" viewBox="0 0 45 23" fill="none" xmlns="http://www.w3.org/2000/svg">
<path d="M12.1579 7.68754C10.7171 5.82154 8.29386 5.00779 6.01911 5.62504C3.74436 6.24229 2.06436 8.17017 1.76436 10.5083C1.46436 12.8464 2.60211 15.1358 4.64811 16.3073C6.69411 17.4788 9.24374 17.3033 11.1094 15.8618C13.6594 13.8938 14.1206 10.2345 12.1586 7.68792L12.1579 7.68754Z" fill="#FF6C37"/>
<path d="M9.51027 9.13492L7.0529 11.6118L6.3584 10.8978C8.77715 8.47905 9.01977 8.69767 9.51515 9.1353L9.51027 9.13492Z" fill="white"/>
<path d="M7.05345 11.6801C7.0317 11.6797 7.01108 11.6707 6.99533 11.6557L6.29595 10.9563C6.26333 10.9188 6.26333 10.8689 6.29595 10.8348C8.6757 8.45505 9.00608 8.5623 9.5697 9.0723C9.58845 9.0873 9.5997 9.11093 9.59895 9.1353C9.6027 9.1593 9.59333 9.1833 9.57458 9.1983L7.1172 11.6557C7.09995 11.6714 7.07745 11.6801 7.0542 11.6801H7.05345ZM6.48045 10.9031L7.05345 11.4761L9.38483 9.14468C9.30429 9.04391 9.18946 8.97632 9.06226 8.95481C8.93507 8.9333 8.8044 8.95937 8.6952 9.02805C8.27258 9.2223 7.5927 9.7953 6.48045 10.9031Z" fill="#FF6C37"/>
<path d="M7.75764 12.297L7.08789 11.6175L9.54527 9.18896C10.2053 9.83509 9.22464 10.9132 7.75802 12.2977L7.75764 12.297Z" fill="white"/>
<path d="M7.75731 12.3845C7.73594 12.3826 7.71531 12.3743 7.69919 12.3601L7.01931 11.69C7.00919 11.6652 7.00919 11.6375 7.01931 11.6123C7.01181 11.5921 7.01181 11.5696 7.01931 11.5493L9.47669 9.09196C9.51231 9.05821 9.56744 9.05821 9.60306 9.09196C9.76431 9.24009 9.85281 9.45121 9.84606 9.66946C9.84606 10.325 9.09794 11.1507 7.82556 12.3552C7.80869 12.3721 7.78619 12.3822 7.76256 12.3845H7.75731ZM7.21356 11.6075L7.76256 12.1565C8.73756 11.234 9.65631 10.2916 9.66644 9.65034C9.67169 9.51421 9.62669 9.38109 9.54006 9.27646L7.21356 11.6075Z" fill="#FF6C37"/>
<path d="M6.37824 10.9126L6.86387 11.3982C6.87024 11.4038 6.87362 11.4117 6.87362 11.42C6.87362 11.4282 6.86987 11.4365 6.86387 11.4417L5.84387 11.6603C5.82331 11.6644 5.802 11.6617 5.78309 11.6527C5.76418 11.6437 5.74868 11.6288 5.73887 11.6103C5.72907 11.5918 5.72549 11.5706 5.72866 11.5499C5.73184 11.5292 5.74159 11.5101 5.75649 11.4953L6.35387 10.9028C6.35387 10.9028 6.37337 10.9028 6.38312 10.9126H6.37824Z" fill="white"/>
<path d="M5.81467 11.758C5.74867 11.7573 5.6883 11.7224 5.65455 11.6658C5.63571 11.6306 5.62885 11.5902 5.63501 11.5508C5.64117 11.5113 5.66 11.4749 5.68867 11.4472L6.28117 10.8498C6.3025 10.8307 6.33014 10.8201 6.3588 10.8201C6.38745 10.8201 6.41509 10.8307 6.43642 10.8498L6.92205 11.3354C6.95092 11.3628 6.96217 11.404 6.9513 11.4423C6.94042 11.4805 6.90817 11.5109 6.8688 11.5199L5.8488 11.7385L5.81467 11.758ZM6.35842 11.0193L5.80942 11.5683L6.71767 11.374L6.35842 11.0193Z" fill="#FF6C37"/>
<path d="M10.8172 7.77069C10.4658 7.43244 9.91416 7.41819 9.54216 7.73844C9.17016 8.05869 9.11091 8.60657 9.39666 9.00219C9.68241 9.39782 10.2247 9.50844 10.6435 9.25719L9.98354 8.59719L10.8172 7.77069Z" fill="white"/>
<path d="M10.1613 9.47995C9.74885 9.4747 9.37872 9.22307 9.22235 8.84095C9.06597 8.45882 9.1526 8.02045 9.44285 7.72645C9.63714 7.53533 9.89875 7.42822 10.1713 7.42822C10.4438 7.42822 10.7054 7.53533 10.8997 7.72645C10.9089 7.73419 10.9164 7.74386 10.9215 7.75477C10.9265 7.76569 10.9292 7.77759 10.9292 7.78963C10.9292 7.80168 10.9265 7.81358 10.9215 7.82449C10.9164 7.83541 10.9089 7.84508 10.8997 7.85282L10.113 8.59607L10.7103 9.17882C10.72 9.18807 10.7273 9.19952 10.7315 9.21219C10.7358 9.22486 10.7369 9.23838 10.7347 9.25157C10.7317 9.27782 10.7175 9.30032 10.6957 9.31457C10.5352 9.41498 10.3506 9.4703 10.1613 9.4747V9.47995ZM10.1613 7.59557C9.99299 7.59656 9.82868 7.64722 9.68901 7.74121C9.54933 7.8352 9.44052 7.96834 9.3762 8.12392C9.31188 8.27951 9.29493 8.45062 9.32747 8.6158C9.36 8.78098 9.44058 8.93287 9.5591 9.05245C9.8066 9.3007 10.1801 9.37195 10.5015 9.23245L9.92847 8.65945C9.90972 8.64445 9.89922 8.62195 9.89922 8.5987C9.89922 8.57545 9.91047 8.55257 9.92847 8.53795L10.686 7.77557C10.5354 7.66008 10.3511 7.59699 10.1613 7.59595V7.59557Z" fill="#FF6C37"/>
<path d="M10.8316 7.78493L10.0059 8.61068L10.6659 9.27068C10.7324 9.23249 10.7943 9.18682 10.8504 9.13455C11.0236 8.95154 11.1189 8.70838 11.1161 8.45641C11.1134 8.20444 11.0129 7.9634 10.8357 7.78418L10.8316 7.78493Z" fill="white"/>
<path d="M10.6468 9.34423C10.6243 9.34536 10.6033 9.33673 10.5887 9.31986L9.92866 8.65986C9.90991 8.64486 9.89941 8.62236 9.89941 8.59911C9.89941 8.57586 9.91066 8.55298 9.92866 8.53836L10.7544 7.72723C10.7705 7.70286 10.7979 7.68823 10.8272 7.68823C10.8564 7.68823 10.8834 7.70323 10.8999 7.72723C10.9968 7.8222 11.0738 7.93554 11.1263 8.06062C11.1789 8.1857 11.2059 8.32 11.2059 8.45567C11.2059 8.59134 11.1789 8.72564 11.1263 8.85072C11.0738 8.9758 10.9968 9.08914 10.8999 9.18411C10.8429 9.24486 10.7773 9.29661 10.7057 9.33936C10.6877 9.34836 10.6667 9.35061 10.6475 9.34423H10.6468ZM10.1124 8.59611L10.6614 9.14511C10.6989 9.11886 10.7349 9.08961 10.7683 9.05773C10.8482 8.97807 10.9116 8.88345 10.9549 8.77928C10.9982 8.67511 11.0205 8.56342 11.0207 8.45061C11.0208 8.24682 10.9465 8.04999 10.8118 7.89711L10.1124 8.59611Z" fill="#FF6C37"/>
<path d="M9.61251 9.2373C9.47601 9.10905 9.26376 9.10905 9.12688 9.2373L6.92676 11.4326L7.29051 11.8016L9.62188 9.76155C9.65739 9.72756 9.68555 9.68665 9.70464 9.64136C9.72374 9.59606 9.73335 9.54734 9.73289 9.49818C9.73244 9.44903 9.72192 9.40049 9.70199 9.35556C9.68206 9.31063 9.65314 9.27026 9.61701 9.23693L9.61251 9.2373Z" fill="white"/>
<path d="M7.27093 11.8891C7.24918 11.8887 7.22856 11.8797 7.21281 11.8647L6.8438 11.4957C6.81118 11.4582 6.81118 11.4083 6.8438 11.3742L9.04393 9.18869C9.10719 9.12509 9.18814 9.08203 9.27623 9.06513C9.36432 9.04822 9.45547 9.05826 9.53777 9.09392C9.62007 9.12959 9.68972 9.18923 9.73762 9.26507C9.78552 9.34091 9.80946 9.42942 9.8063 9.51906C9.80143 9.64169 9.74705 9.75719 9.6563 9.83969L7.32493 11.8797C7.30807 11.8917 7.28733 11.8969 7.2668 11.8943L7.27093 11.8891ZM7.01368 11.4327L7.25668 11.6757L9.5393 9.68819C9.56734 9.66401 9.59003 9.63424 9.60591 9.60079C9.6218 9.56734 9.63053 9.53095 9.63155 9.49394C9.63455 9.41894 9.60418 9.34581 9.54906 9.29519C9.44293 9.18944 9.27155 9.18944 9.16543 9.29519L7.01368 11.4327Z" fill="#FF6C37"/>
<path d="M5.22255 13.9338C5.21631 13.9422 5.21294 13.9524 5.21294 13.9629C5.21294 13.9733 5.21631 13.9835 5.22255 13.9919L5.32005 14.4145C5.3283 14.4648 5.3043 14.515 5.26005 14.5402C5.2158 14.5653 5.15993 14.5597 5.1213 14.5263L4.45605 13.8888L6.5298 11.8H7.24868L7.7343 12.2857C6.9768 12.9483 6.13193 13.5037 5.2233 13.9372L5.22255 13.9338Z" fill="white"/>
<path d="M5.17907 14.6476C5.12395 14.6464 5.07182 14.6239 5.03282 14.5846L4.40132 13.9531C4.38257 13.9381 4.37207 13.9156 4.37207 13.8923C4.37207 13.8691 4.38332 13.8462 4.40132 13.8316L6.49007 11.7428C6.50181 11.7303 6.51714 11.7218 6.53395 11.7184H7.26257C7.28132 11.7117 7.30195 11.7117 7.3207 11.7184L7.80632 12.2041C7.82507 12.2213 7.83407 12.2468 7.8307 12.2716C7.83145 12.2959 7.82057 12.3196 7.80145 12.3346L7.76245 12.3683C7.00169 13.0026 6.16471 13.5393 5.27095 13.9662L5.36845 14.3547C5.38345 14.4162 5.3692 14.4811 5.33095 14.5309C5.2927 14.5808 5.23345 14.6108 5.1697 14.6119L5.17907 14.6476ZM4.58657 13.8852L5.15957 14.4679C5.17082 14.4777 5.18732 14.4777 5.19857 14.4679C5.20607 14.4578 5.20607 14.4439 5.19857 14.4342L5.10107 14.0116C5.08532 13.9489 5.11607 13.8841 5.17382 13.8563C6.0436 13.4352 6.85906 12.9101 7.60232 12.2926L7.20032 11.8939H6.54932L4.58657 13.8852Z" fill="#FF6C37"/>
<path d="M3.95466 14.385L4.44029 13.8994L5.18841 14.6475L3.99854 14.565C3.97817 14.5633 3.95885 14.5553 3.94332 14.542C3.92778 14.5287 3.91681 14.5109 3.91196 14.491C3.90711 14.4712 3.90863 14.4503 3.91629 14.4313C3.92395 14.4124 3.93738 14.3959 3.95466 14.385Z" fill="white"/>
<path d="M5.20293 14.7206L4.01793 14.6381C3.98328 14.6352 3.95018 14.6225 3.92245 14.6015C3.89473 14.5805 3.87353 14.5521 3.86132 14.5195C3.8491 14.487 3.84638 14.4516 3.85346 14.4176C3.86054 14.3836 3.87713 14.3522 3.90131 14.3272L4.38693 13.8416C4.42443 13.809 4.47431 13.809 4.50843 13.8416L5.25168 14.5849C5.26195 14.599 5.26749 14.616 5.26749 14.6334C5.26749 14.6509 5.26195 14.6679 5.25168 14.682C5.24043 14.7 5.22318 14.7135 5.20293 14.7206ZM4.01793 14.4487L4.99293 14.5117L4.45856 14.0115L4.01793 14.4487Z" fill="#FF6C37"/>
<path d="M7.31596 11.8552L6.33496 12.0015L6.90309 11.4382L7.31596 11.8552Z" fill="white"/>
<path d="M6.33464 12.0975C6.31833 12.0979 6.30225 12.0935 6.28844 12.0849C6.27462 12.0762 6.26369 12.0636 6.25702 12.0487C6.24675 12.0346 6.24121 12.0176 6.24121 12.0002C6.24121 11.9827 6.24675 11.9657 6.25702 11.9516L6.82027 11.3835C6.85589 11.3497 6.91102 11.3497 6.94664 11.3835L7.35914 11.796C7.36732 11.8091 7.37166 11.8242 7.37166 11.8397C7.37166 11.8551 7.36732 11.8702 7.35914 11.8833C7.35543 11.8994 7.34698 11.914 7.33488 11.9253C7.32278 11.9365 7.30759 11.9438 7.29127 11.9463L6.31627 12.0926L6.33464 12.0975ZM6.90277 11.5631L6.58702 11.8788L7.13077 11.7963L6.90277 11.5631Z" fill="#FF6C37"/>
<path d="M7.31526 11.8554L6.63539 11.9427C6.59789 11.9514 6.55889 11.9341 6.53976 11.9007C6.52064 11.8674 6.52589 11.825 6.55251 11.7972L6.90689 11.4429L7.31526 11.8554Z" fill="white"/>
<path d="M6.61107 12.0349C6.57936 12.0346 6.5483 12.0259 6.52104 12.0097C6.49377 11.9935 6.47128 11.9704 6.45582 11.9427C6.41757 11.8744 6.42957 11.7927 6.48507 11.7338L6.83944 11.3794C6.87507 11.3457 6.93019 11.3457 6.96582 11.3794L7.37832 11.7919C7.40344 11.8156 7.41582 11.8519 7.40082 11.8846C7.38582 11.9172 7.36332 11.9397 7.32507 11.9423L6.64519 12.0297L6.61107 12.0349ZM6.61107 11.8549L7.12594 11.7919L6.89719 11.5632L6.60582 11.8546L6.61107 11.8549ZM10.8366 8.34345C10.8178 8.31157 10.7781 8.2992 10.7443 8.3142C10.7282 8.32245 10.7158 8.3367 10.7068 8.35432C10.6978 8.37195 10.7031 8.39032 10.7117 8.40682C10.7454 8.47807 10.7364 8.5632 10.6873 8.62545C10.6746 8.63745 10.6674 8.65395 10.6674 8.67157C10.6674 8.6892 10.6749 8.70532 10.6873 8.7177C10.6997 8.72257 10.7136 8.72257 10.7263 8.7177C10.7488 8.7237 10.7736 8.7162 10.7893 8.6982C10.8711 8.59845 10.8879 8.46045 10.8332 8.34382L10.8366 8.34345ZM34.1946 10.3542L33.6208 11.5898C33.5683 11.6941 33.5334 11.8328 33.4333 11.8328C33.2938 11.8328 33.2769 11.6933 33.2244 11.5722L32.7549 10.5458C32.7201 10.4933 32.7201 10.3894 32.6507 10.4063C32.5633 10.4239 32.5813 10.5278 32.5813 10.5938V12.6987C32.5813 12.8029 32.5813 12.9076 32.5637 13.0118C32.5461 13.1161 32.4763 13.1858 32.3762 13.1858C32.2719 13.1682 32.2367 13.0984 32.2198 13.0118V9.74107C32.2198 9.60157 32.1849 9.41107 32.3413 9.35857C32.5153 9.30607 32.6196 9.44595 32.6889 9.60157L33.2233 10.7847C33.2758 10.8889 33.2927 11.0761 33.4322 11.0978C33.5886 11.0978 33.6062 10.8889 33.6587 10.7847L34.1931 9.63645C34.2624 9.48007 34.3494 9.32332 34.5407 9.3582C34.7282 9.4107 34.6802 9.6012 34.6802 9.75832V12.7857C34.6802 12.9421 34.7327 13.1858 34.5062 13.1858C34.2632 13.1858 34.3187 12.9428 34.3187 12.7681V10.7671C34.3011 10.6276 34.3363 10.4888 34.1972 10.3493L34.1946 10.3542ZM41.6582 10.4416C41.5539 10.5458 41.5888 10.6846 41.5888 10.8068V12.8768C41.5888 12.9983 41.6237 13.1899 41.4493 13.1899C41.2618 13.2076 41.2618 13.0159 41.2618 12.8768V9.67132C41.2618 9.54982 41.2442 9.39307 41.3833 9.3582C41.5397 9.3057 41.6263 9.42757 41.6964 9.56707L42.5488 11.4638C42.6013 11.6033 42.6703 11.7244 42.7228 11.8639C42.7577 11.9333 42.7577 12.0379 42.8623 12.0034C42.9497 11.9686 42.9317 11.8639 42.9317 11.7946V9.75457C42.9317 9.6672 42.9317 9.5982 42.9493 9.51157C42.9669 9.39007 43.0367 9.33757 43.1368 9.33757C43.2411 9.3552 43.2763 9.44182 43.2763 9.54645V12.7651C43.2763 12.9046 43.3288 13.0951 43.1548 13.1476C42.9673 13.2169 42.8942 13.0261 42.8248 12.8693L41.8506 10.7119C41.7981 10.6077 41.7812 10.4854 41.6631 10.4337L41.6582 10.4416ZM21.9118 11.2591C21.8942 11.6416 21.9294 12.0072 21.8769 12.3897C21.7896 12.9241 21.4944 13.1899 20.9544 13.1899C20.3807 13.1899 20.0496 12.9469 19.9802 12.4069C19.8928 11.6239 19.8759 10.8237 19.9802 10.0444C20.0496 9.53932 20.3979 9.29632 20.9196 9.29632C21.4412 9.29632 21.7719 9.55695 21.8589 10.0444C21.9463 10.4622 21.8938 10.8619 21.9114 11.2621L21.9118 11.2591ZM21.5642 11.2591V10.3726C21.5466 9.92107 21.3036 9.65857 20.9042 9.67657C20.5217 9.67657 20.2952 9.91957 20.2727 10.3726V12.1696C20.2903 12.6211 20.5157 12.8656 20.9042 12.8836C21.3043 12.8836 21.5477 12.6406 21.5642 12.1696C21.5818 11.8782 21.5642 11.5782 21.5642 11.2647V11.2591ZM39.0973 12.9466C39.0973 13.0681 39.0797 13.1554 38.9758 13.1731C38.8884 13.1907 38.8194 13.1731 38.7883 13.0688C38.7707 12.9994 38.7358 12.9124 38.7189 12.8423C38.5626 12.3079 38.5626 12.3079 38.0874 12.3079H37.9348C37.3434 12.3079 37.3434 12.3079 37.1346 12.9394C37.0997 13.0609 37.0821 13.2308 36.9081 13.1824C36.7341 13.1131 36.7866 12.9394 36.8207 12.7999L37.6731 9.6507C37.7256 9.49432 37.7424 9.2682 37.9644 9.28545C38.1519 9.30307 38.1909 9.49432 38.2251 9.6507L39.0253 12.6424C39.0602 12.7467 39.0778 12.8513 39.0947 12.9556L39.0973 12.9466ZM37.9318 11.9723H38.1058C38.4883 11.9723 38.5059 11.9547 38.3841 11.5208L38.0541 10.2856C38.0364 10.1982 38.0541 10.0767 37.9498 10.0767C37.8456 10.0767 37.8283 10.1982 37.8103 10.3032L37.5321 11.3476C37.3581 11.9791 37.3757 11.9791 37.9322 11.9791L37.9318 11.9723ZM15.7881 11.2598V9.64732C15.7881 9.3867 15.8754 9.2997 16.0794 9.2997H16.6708C17.4711 9.31732 17.7669 9.6822 17.7489 10.6047C17.7313 11.2362 17.4189 11.5966 16.8752 11.6311C16.7188 11.6311 16.5838 11.6487 16.4237 11.6311C16.1807 11.6134 16.0937 11.7353 16.1106 11.9963C16.1282 12.3094 16.1106 12.6278 16.1106 12.9188C16.1106 13.0403 16.0929 13.1794 15.9366 13.1794C15.7802 13.1794 15.7802 13.0399 15.7802 12.9012V11.2651L15.7881 11.2598ZM16.6056 11.3123C17.1107 11.3123 17.3016 11.1908 17.3886 10.8248C17.4756 10.4588 17.4759 10.1108 17.2146 9.83295C16.9363 9.5547 16.5711 9.67657 16.2403 9.69345C16.1188 9.69345 16.1188 9.84982 16.1188 9.9717V10.7547C16.1188 11.3112 16.1188 11.3112 16.6063 11.3112L16.6056 11.3123ZM25.0078 13.2259C24.6426 13.2259 24.3478 13.1566 24.1206 12.8783C24.0512 12.7909 23.9642 12.6694 24.0681 12.5483C24.1554 12.4441 24.2556 12.5134 24.3287 12.6008C24.5376 12.8273 24.7637 12.8922 25.0427 12.8791C25.3033 12.8614 25.4942 12.7396 25.5992 12.4441C25.7023 12.1748 25.6416 11.8703 25.4428 11.6611C25.2553 11.4522 25.0078 11.3697 24.7641 11.2433C24.4164 11.0869 24.1551 10.8608 24.1206 10.3909C24.0681 9.75945 24.3471 9.4167 24.9561 9.29482C25.2167 9.24232 25.4612 9.31245 25.6866 9.39907C25.8081 9.43395 25.9131 9.53857 25.8606 9.69045C25.8081 9.86445 25.6866 9.7947 25.5823 9.74295C25.3558 9.62145 25.1128 9.62145 24.8863 9.65557C24.6988 9.69045 24.5211 9.81195 24.4862 10.0557C24.4513 10.2994 24.4862 10.5072 24.6602 10.6647C24.8867 10.8522 25.1477 10.9253 25.3907 11.0472C25.7732 11.2347 25.9821 11.5692 25.9821 12.0559C25.9821 12.5074 25.8778 12.8562 25.4946 13.0823C25.3206 13.2038 25.1293 13.1866 25.0071 13.2218L25.0078 13.2259ZM28.8186 11.3989V10.0594C28.8362 9.72945 28.7143 9.62445 28.4533 9.65932C28.3491 9.67695 28.2268 9.65932 28.1233 9.65932C28.0198 9.65932 27.9493 9.60682 27.9493 9.47182C27.9493 9.36757 28.0187 9.29782 28.1057 9.29782H29.8802C29.9676 9.29782 30.0366 9.35032 30.0366 9.4542C30.0366 9.5757 29.9672 9.6417 29.8626 9.6417C29.7411 9.6417 29.6019 9.65932 29.4801 9.6417C29.2371 9.62407 29.1669 9.74595 29.1669 10.0069V12.8607C29.1669 13.0002 29.1493 13.1521 28.9929 13.1521C28.8189 13.1521 28.8189 12.9957 28.8189 12.8607V11.4038L28.8186 11.3989Z" fill="#FF6C37"/>
</svg>
