<svg width="30" height="8" viewBox="0 0 30 8" fill="none" xmlns="http://www.w3.org/2000/svg">
<path fill-rule="evenodd" clip-rule="evenodd" d="M7.05692 4.18008L7.62598 4.75025C7.67105 4.79557 7.69638 4.85685 7.69647 4.92076V5.24156C7.69647 6.1009 7.60711 6.41268 7.43936 6.72697C7.27553 7.03735 7.02219 7.29131 6.71221 7.45588C6.3985 7.62363 6.08742 7.71316 5.22979 7.71316H3.72375C3.71424 7.71311 3.70497 7.71024 3.69708 7.70493C3.6892 7.69962 3.68306 7.69209 3.67944 7.6833C3.67583 7.67451 3.67489 7.66484 3.67674 7.65552C3.6786 7.6462 3.68317 7.63763 3.68988 7.6309L4.25877 7.06102C4.28107 7.03861 4.30758 7.02083 4.33677 7.0087C4.36596 6.99656 4.39726 6.99031 4.42887 6.99029H5.12496C5.7682 6.99029 6.00129 6.92326 6.23654 6.79705C6.46906 6.67368 6.65913 6.48325 6.78205 6.25049C6.90568 6.01875 6.9726 5.78883 6.97483 5.16826V4.21418C6.97489 4.2047 6.97775 4.19545 6.98305 4.18759C6.98834 4.17972 6.99584 4.17359 7.0046 4.16997C7.01336 4.16634 7.02299 4.16538 7.0323 4.1672C7.0416 4.16902 7.05017 4.17342 7.05692 4.18008ZM0.0820313 3.69785L0.651328 4.26797C0.696398 4.31328 0.721734 4.37457 0.721817 4.43848V5.13615C0.721817 5.7808 0.788672 6.01459 0.914649 6.25025C1.03751 6.48298 1.22749 6.6734 1.45992 6.79682C1.69518 6.92303 1.9285 6.99006 2.57168 6.99006H3.49172C3.50126 6.99003 3.51059 6.99284 3.51854 6.99812C3.52649 7.00341 3.53269 7.01093 3.53636 7.01973C3.54003 7.02854 3.541 7.03824 3.53916 7.0476C3.53731 7.05696 3.53273 7.06557 3.526 7.07232L2.9567 7.64244C2.93442 7.66483 2.90795 7.6826 2.87879 7.69474C2.84963 7.70688 2.81836 7.71314 2.78678 7.71316H2.4668C1.6091 7.71316 1.2982 7.62363 0.984551 7.45564C0.674482 7.29111 0.421049 7.03715 0.257168 6.72674C0.0916992 6.41678 0.00251953 6.10934 0 5.27684V3.73184C6.71763e-05 3.72236 0.00292336 3.71312 0.00821197 3.70526C0.0135006 3.6974 0.0209873 3.69127 0.0297375 3.68764C0.0384878 3.68401 0.0481138 3.68303 0.0574138 3.68484C0.0667139 3.68665 0.075276 3.69121 0.0820313 3.69785ZM11.3385 2.14805C11.5628 2.14805 11.7646 2.18965 11.9439 2.27285C12.1232 2.35576 12.276 2.46996 12.4024 2.61457C12.5313 2.76407 12.6289 2.93788 12.6895 3.12574C12.7549 3.3218 12.7874 3.53285 12.7874 3.75844C12.7892 3.97372 12.7541 4.18772 12.6836 4.39113C12.6194 4.57812 12.521 4.75149 12.3932 4.90236C12.2694 5.04683 12.1162 5.16333 11.9439 5.24414C11.7641 5.32826 11.5676 5.37087 11.3691 5.36883C11.2305 5.36883 11.1084 5.35383 11.0023 5.324C10.9042 5.2974 10.8098 5.25877 10.7212 5.20898C10.6464 5.16706 10.5767 5.11674 10.5134 5.05898C10.4614 5.01152 10.4142 4.95906 10.3726 4.90236C10.3677 4.90236 10.3631 4.90428 10.3596 4.90769C10.3562 4.9111 10.3542 4.91574 10.3542 4.92059V6.46834C10.3542 6.5052 10.3469 6.54169 10.3328 6.57575C10.3187 6.6098 10.298 6.64074 10.272 6.6668C10.2459 6.69286 10.215 6.71353 10.1809 6.72764C10.1469 6.74174 10.1104 6.749 10.0735 6.749H9.90147C9.86461 6.749 9.82811 6.74174 9.79406 6.72764C9.76001 6.71353 9.72907 6.69286 9.70301 6.6668C9.67694 6.64074 9.65627 6.6098 9.64217 6.57575C9.62806 6.54169 9.6208 6.5052 9.6208 6.46834V2.50553C9.6208 2.43109 9.65037 2.3597 9.70301 2.30707C9.75564 2.25443 9.82703 2.22486 9.90147 2.22486H10.0874C10.1176 2.22485 10.1475 2.23079 10.1755 2.24235C10.2034 2.2539 10.2288 2.27085 10.2501 2.29222C10.2715 2.31359 10.2885 2.33896 10.3 2.36688C10.3116 2.39481 10.3175 2.42474 10.3175 2.45496V2.67264C10.3175 2.67949 10.3231 2.68482 10.3297 2.68482C10.4358 2.49732 10.5783 2.36133 10.7578 2.27584C10.9393 2.19021 11.1378 2.14649 11.3385 2.14805ZM5.85451 2.9748L6.42357 3.54551C6.46865 3.59083 6.49393 3.65216 6.49389 3.71607V5.54455C6.49389 6.07699 6.06322 6.50871 5.53184 6.50871H4.92275C4.91334 6.50867 4.90414 6.50588 4.8963 6.50067C4.88845 6.49546 4.8823 6.48807 4.87861 6.47941C4.87491 6.47075 4.87383 6.4612 4.8755 6.45193C4.87717 6.44267 4.88152 6.43409 4.88801 6.42727L5.62934 5.64949C5.67914 5.59987 5.71741 5.5399 5.74143 5.47383C5.76188 5.41939 5.77231 5.36168 5.77225 5.3035V3.00879C5.77227 2.99927 5.77511 2.98997 5.78041 2.98206C5.78571 2.97415 5.79323 2.96798 5.80203 2.96434C5.81083 2.9607 5.82051 2.95975 5.82985 2.9616C5.83919 2.96345 5.84777 2.96808 5.85451 2.9748ZM1.28402 4.89873L2.05986 5.64176C2.10935 5.6915 2.16916 5.72976 2.23506 5.75385C2.28779 5.77395 2.34522 5.7849 2.40522 5.7849H4.69477C4.70427 5.78496 4.71355 5.78782 4.72143 5.79314C4.72932 5.79845 4.73545 5.80598 4.73907 5.81477C4.74269 5.82356 4.74363 5.83322 4.74177 5.84255C4.73992 5.85187 4.73534 5.86043 4.72863 5.86717L4.1591 6.43752C4.11403 6.48259 4.05292 6.50794 3.98918 6.50801H2.16457C1.90916 6.5077 1.66433 6.40595 1.48394 6.22513C1.30354 6.04432 1.20236 5.79926 1.20264 5.54385V4.93342C1.20269 4.92401 1.20549 4.91482 1.2107 4.90698C1.21591 4.89914 1.2233 4.893 1.23196 4.88932C1.24062 4.88563 1.25017 4.88455 1.25943 4.88623C1.26869 4.8879 1.2772 4.89225 1.28402 4.89873ZM29.0625 2.14811C29.2502 2.14811 29.4385 2.18543 29.6282 2.26002C29.7004 2.28844 29.7856 2.33924 29.8838 2.4123C29.9157 2.43606 29.9422 2.46633 29.9615 2.5011C29.9809 2.53588 29.9926 2.57437 29.9959 2.61402C29.9992 2.65368 29.9941 2.69358 29.9808 2.73109C29.9675 2.7686 29.9464 2.80286 29.9189 2.8316L29.8054 2.95008C29.7572 3.00039 29.6921 3.03101 29.6226 3.03599C29.5532 3.04097 29.4844 3.01996 29.4295 2.97703C29.4042 2.95681 29.3777 2.93822 29.35 2.92137C29.2635 2.86803 29.1641 2.83931 29.0625 2.83828C28.9281 2.83828 28.8077 2.86406 28.7019 2.91504C28.5984 2.96424 28.5059 3.03374 28.4298 3.11941C28.354 3.20524 28.2959 3.30512 28.2586 3.41338C28.2199 3.52425 28.2003 3.64089 28.2006 3.75832C28.2006 3.87785 28.2199 3.9927 28.2586 4.10344C28.2957 4.21181 28.354 4.31175 28.43 4.39746C28.506 4.48319 28.5985 4.55277 28.7019 4.60207C28.8077 4.65305 28.9281 4.67877 29.0625 4.67877C29.1767 4.67877 29.2828 4.65416 29.3804 4.60523C29.4004 4.59522 29.4218 4.58168 29.4447 4.5648C29.5011 4.52331 29.5709 4.50437 29.6405 4.51169C29.7101 4.51902 29.7745 4.55209 29.8209 4.60441L29.9324 4.72951C29.9588 4.75915 29.9782 4.79429 29.9894 4.83238C30.0005 4.87048 30.003 4.91057 29.9967 4.94975C29.9904 4.98893 29.9754 5.02622 29.9529 5.0589C29.9304 5.09159 29.9009 5.11886 29.8666 5.13873C29.69 5.24162 29.4964 5.31201 29.2949 5.34656C29.2052 5.36139 29.1278 5.36889 29.0625 5.36889C28.8493 5.37006 28.6377 5.33109 28.4391 5.25381C28.2494 5.18101 28.0766 5.07009 27.9315 4.92791C27.7858 4.78277 27.6705 4.61007 27.5923 4.4199C27.5087 4.22174 27.4669 4.00125 27.4669 3.7585C27.4669 3.5158 27.5087 3.29531 27.5923 3.09709C27.6705 2.90692 27.7858 2.73423 27.9315 2.58908C28.0766 2.44693 28.2493 2.33603 28.439 2.26324C28.6377 2.18595 28.8493 2.14692 29.0625 2.14811ZM18.724 2.14811C18.9196 2.14811 19.1133 2.18326 19.3049 2.25357C19.3743 2.27906 19.4517 2.32617 19.5371 2.39496C19.5684 2.42014 19.5939 2.45173 19.6119 2.4876C19.6299 2.52347 19.64 2.56278 19.6415 2.60289C19.6431 2.64299 19.636 2.68296 19.6207 2.72009C19.6055 2.75722 19.5825 2.79065 19.5532 2.81813L19.4619 2.90402C19.4141 2.949 19.3521 2.97579 19.2865 2.97975C19.221 2.98371 19.1562 2.96459 19.1033 2.9257C18.9544 2.81637 18.8217 2.76152 18.7058 2.76152C18.608 2.76152 18.5122 2.78725 18.4183 2.83828C18.3247 2.88943 18.2777 2.97234 18.2777 3.08742C18.2777 3.18129 18.3163 3.24937 18.3939 3.29203C18.4714 3.33445 18.5691 3.3709 18.6874 3.40066C18.8145 3.4326 18.9419 3.46346 19.0695 3.49324C19.2031 3.52416 19.3317 3.57362 19.4517 3.6402C19.5699 3.70617 19.6676 3.79664 19.7452 3.91189C19.8226 4.02691 19.8613 4.18436 19.8613 4.38475C19.8613 4.56791 19.8236 4.72219 19.7482 4.84793C19.6756 4.97079 19.575 5.07481 19.4547 5.15156C19.3298 5.23009 19.1923 5.28629 19.0482 5.31762C18.8998 5.35143 18.748 5.36859 18.5957 5.36883C18.3675 5.36883 18.1576 5.33455 17.9658 5.26658C17.8908 5.2398 17.8008 5.18631 17.6958 5.10568C17.6639 5.08121 17.6376 5.05016 17.6188 5.01465C17.5999 4.97913 17.5889 4.93998 17.5865 4.89983C17.5841 4.85969 17.5903 4.81949 17.6048 4.78197C17.6192 4.74444 17.6416 4.71047 17.6704 4.68234L17.7464 4.60775C17.797 4.55811 17.8645 4.52946 17.9354 4.52756C18.0063 4.52566 18.0752 4.55064 18.1284 4.5975C18.173 4.6367 18.2115 4.66693 18.2441 4.68814C18.3521 4.75863 18.4836 4.79373 18.6383 4.79373C18.6915 4.79373 18.7465 4.78729 18.8036 4.77445C18.8597 4.76204 18.9134 4.74046 18.9625 4.71059C19.0098 4.68222 19.0505 4.64411 19.0819 4.59879C19.1123 4.55402 19.1277 4.50193 19.1277 4.44234C19.1277 4.3357 19.0889 4.25684 19.0114 4.20586C18.934 4.15465 18.8361 4.11305 18.7178 4.08111C18.5915 4.0473 18.4641 4.01752 18.3358 3.99182C18.2028 3.96529 18.0741 3.92006 17.9538 3.85746C17.8363 3.79638 17.7355 3.70753 17.6602 3.59865C17.5829 3.48791 17.5441 3.33445 17.5441 3.13863C17.5441 2.9683 17.5778 2.82023 17.6449 2.69449C17.709 2.57246 17.8 2.46653 17.9109 2.38465C18.025 2.30172 18.1537 2.24096 18.2902 2.20553C18.4316 2.1674 18.5775 2.14809 18.724 2.14811ZM26.3974 2.22486C26.4718 2.22486 26.5432 2.25443 26.5958 2.30707C26.6485 2.3597 26.678 2.43109 26.678 2.50553V5.01141C26.678 5.04826 26.6708 5.08476 26.6567 5.11881C26.6426 5.15286 26.6219 5.1838 26.5958 5.20987C26.5698 5.23593 26.5388 5.2566 26.5048 5.27071C26.4707 5.28481 26.4342 5.29207 26.3974 5.29207H26.2253C26.1885 5.29207 26.152 5.28481 26.1179 5.27071C26.0839 5.2566 26.0529 5.23593 26.0269 5.20987C26.0008 5.1838 25.9801 5.15286 25.966 5.11881C25.9519 5.08476 25.9447 5.04826 25.9447 5.01141V2.50553C25.9447 2.43109 25.9742 2.3597 26.0269 2.30707C26.0795 2.25443 26.1509 2.22486 26.2253 2.22486H26.3974ZM23.9821 2.14811C24.1777 2.14811 24.3427 2.18221 24.4772 2.25035C24.608 2.31528 24.7205 2.41191 24.8044 2.53143C24.8879 2.65078 24.9479 2.79023 24.9846 2.95008C25.0214 3.10992 25.0397 3.28131 25.0397 3.4643V5.01117C25.0397 5.08561 25.0101 5.157 24.9575 5.20963C24.9049 5.26227 24.8335 5.29184 24.759 5.29184H24.5868C24.5499 5.29184 24.5134 5.28459 24.4793 5.27049C24.4453 5.25639 24.4143 5.23571 24.3883 5.20965C24.3622 5.18359 24.3415 5.15265 24.3274 5.11859C24.3133 5.08454 24.306 5.04803 24.306 5.01117V3.55389C24.306 3.46025 24.2979 3.36967 24.2816 3.28242C24.2675 3.20108 24.2385 3.12305 24.1959 3.05232C24.1555 2.98668 24.0986 2.93275 24.0309 2.89588C23.9615 2.85738 23.872 2.83828 23.7618 2.83828C23.6479 2.83828 23.551 2.86055 23.4715 2.90537C23.3933 2.94897 23.3263 3.01022 23.2759 3.08426C23.2236 3.16184 23.1862 3.24853 23.1656 3.33984C23.1433 3.43514 23.132 3.5327 23.132 3.63059V5.01146C23.132 5.0859 23.1024 5.15729 23.0498 5.20992C22.9972 5.26256 22.9258 5.29213 22.8513 5.29213H22.6791C22.6422 5.29213 22.6057 5.28487 22.5717 5.27076C22.5376 5.25666 22.5067 5.23599 22.4806 5.20992C22.4545 5.18386 22.4339 5.15292 22.4198 5.11887C22.4057 5.08482 22.3984 5.04832 22.3984 5.01146V3.46459C22.3984 3.27281 22.3598 3.12047 22.2823 3.00756C22.2047 2.89488 22.0766 2.83828 21.8971 2.83828C21.7749 2.83828 21.6718 2.85973 21.5883 2.90215C21.5068 2.94321 21.4357 3.00226 21.3805 3.07482C21.3245 3.14912 21.2839 3.23384 21.2612 3.32402C21.2365 3.42005 21.2242 3.51885 21.2247 3.61799V5.01146C21.2247 5.04834 21.2174 5.08486 21.2033 5.11892C21.1892 5.15299 21.1685 5.18394 21.1424 5.21001C21.1163 5.23607 21.0854 5.25674 21.0513 5.27083C21.0172 5.28492 20.9807 5.29216 20.9438 5.29213H20.7715C20.6971 5.29213 20.6257 5.26256 20.5731 5.20992C20.5205 5.15729 20.4909 5.0859 20.4909 5.01146V2.50553C20.4909 2.4311 20.5205 2.35973 20.5731 2.3071C20.6257 2.25447 20.6971 2.22489 20.7715 2.22486H20.9072C20.9816 2.22489 21.053 2.25447 21.1056 2.3071C21.1582 2.35973 21.1878 2.4311 21.1879 2.50553V2.70416C21.2682 2.55342 21.3797 2.42156 21.515 2.31738C21.6597 2.20447 21.8542 2.14811 22.0989 2.14811C22.5595 2.14811 22.865 2.33771 23.0159 2.71676C23.1219 2.52094 23.2543 2.37715 23.4133 2.28551C23.5723 2.19398 23.7619 2.14811 23.9821 2.14811ZM15.1781 2.14811C15.2229 2.14811 15.2668 2.15238 15.3094 2.161C15.3465 2.16832 15.3799 2.18827 15.4039 2.21745C15.4279 2.24663 15.441 2.28323 15.441 2.32102V2.74184C15.4411 2.76427 15.4361 2.78644 15.4266 2.80676C15.4172 2.82709 15.4033 2.84508 15.3861 2.85947C15.3689 2.87386 15.3487 2.88429 15.327 2.89002C15.3053 2.89576 15.2826 2.89666 15.2606 2.89266C15.2031 2.88211 15.1448 2.87678 15.0864 2.8766C14.915 2.8766 14.7776 2.90959 14.6738 2.97563C14.5699 3.04184 14.4904 3.11719 14.4353 3.20268C14.3834 3.28043 14.3461 3.36698 14.3251 3.45809C14.3067 3.54334 14.2978 3.60721 14.2978 3.64986V5.01141C14.2978 5.04826 14.2905 5.08476 14.2764 5.11881C14.2623 5.15286 14.2416 5.1838 14.2156 5.20987C14.1895 5.23593 14.1585 5.2566 14.1245 5.27071C14.0904 5.28481 14.0539 5.29207 14.0171 5.29207H13.8448C13.808 5.29207 13.7715 5.28481 13.7374 5.27071C13.7034 5.2566 13.6724 5.23593 13.6464 5.20987C13.6203 5.1838 13.5996 5.15286 13.5855 5.11881C13.5714 5.08476 13.5642 5.04826 13.5642 5.01141V2.50553C13.5642 2.43109 13.5937 2.3597 13.6464 2.30707C13.699 2.25443 13.7704 2.22486 13.8448 2.22486H14.0548C14.1192 2.22483 14.1809 2.25038 14.2265 2.29589C14.2721 2.34141 14.2977 2.40316 14.2978 2.46756V2.69836C14.2978 2.70498 14.3031 2.71055 14.3099 2.71055C14.3914 2.53143 14.5075 2.39297 14.6583 2.29512C14.8092 2.19721 14.9825 2.14811 15.1781 2.14811ZM16.4992 2.22486C16.5737 2.22489 16.645 2.25447 16.6977 2.3071C16.7503 2.35973 16.7799 2.4311 16.7799 2.50553V5.01141C16.7799 5.04826 16.7726 5.08476 16.7585 5.11881C16.7444 5.15286 16.7238 5.1838 16.6977 5.20987C16.6716 5.23593 16.6407 5.2566 16.6066 5.27071C16.5726 5.28481 16.5361 5.29207 16.4992 5.29207H16.327C16.2901 5.29207 16.2536 5.28481 16.2196 5.27071C16.1855 5.2566 16.1546 5.23593 16.1285 5.20987C16.1025 5.1838 16.0818 5.15286 16.0677 5.11881C16.0536 5.08476 16.0463 5.04826 16.0463 5.01141V2.50553C16.0463 2.43109 16.0759 2.3597 16.1285 2.30707C16.1811 2.25443 16.2525 2.22486 16.327 2.22486H16.4992ZM2.77377 1.20516C2.78317 1.20522 2.79235 1.20803 2.80017 1.21323C2.80799 1.21844 2.81413 1.22582 2.81781 1.23447C2.8215 1.24312 2.82258 1.25265 2.82091 1.2619C2.81925 1.27116 2.81492 1.27972 2.80846 1.28654L2.06689 2.06437C2.01718 2.11401 1.97901 2.17399 1.9551 2.24004C1.93453 2.29453 1.92404 2.35219 1.92404 2.41037V4.70502C1.92395 4.71449 1.92108 4.72372 1.91577 4.73157C1.91047 4.73942 1.90297 4.74553 1.89421 4.74914C1.88546 4.75275 1.87583 4.7537 1.86654 4.75188C1.85725 4.75006 1.8487 4.74554 1.84195 4.73889L1.27289 4.16813C1.22784 4.12289 1.20255 4.06164 1.20258 3.99779V2.16932C1.20258 1.63693 1.63324 1.20521 2.16463 1.20521L2.77377 1.20516ZM11.1918 2.83816C11.0573 2.83816 10.9369 2.86395 10.8311 2.91492C10.7276 2.96412 10.635 3.03362 10.5589 3.1193C10.4832 3.20512 10.425 3.305 10.3877 3.41326C10.3491 3.52414 10.3295 3.64078 10.3299 3.7582C10.3299 3.87773 10.3492 3.99258 10.3877 4.10332C10.4265 4.21412 10.4835 4.31227 10.5591 4.39734C10.6352 4.4831 10.7277 4.55268 10.8312 4.60195C10.9371 4.65293 11.0573 4.67865 11.1918 4.67865C11.3264 4.67865 11.4466 4.65287 11.5524 4.60189C11.6559 4.55264 11.7484 4.48308 11.8245 4.39734C11.9 4.31227 11.9569 4.21412 11.996 4.10338C12.0345 3.99264 12.0538 3.87779 12.0538 3.75838C12.0538 3.63908 12.0345 3.524 11.996 3.41344C11.9587 3.3051 11.9004 3.20515 11.8245 3.1193C11.7484 3.0336 11.6559 2.96408 11.5524 2.91486C11.4466 2.86365 11.3264 2.83816 11.1918 2.83816ZM6.71221 0.25752C7.02219 0.42209 7.27553 0.676049 7.43936 0.986426C7.60483 1.29639 7.694 1.60383 7.69641 2.43639L7.69647 3.98127C7.69648 3.99081 7.69367 4.00014 7.68838 4.00807C7.68309 4.01601 7.67556 4.0222 7.66675 4.02585C7.65793 4.0295 7.64824 4.03046 7.63888 4.02859C7.62953 4.02673 7.62094 4.02212 7.6142 4.01537L7.04537 3.4452C7.00021 3.39995 6.97486 3.33862 6.97488 3.27469V2.57707C6.97488 1.93236 6.90779 1.69863 6.78205 1.46291C6.65913 1.23015 6.46906 1.03972 6.23654 0.916348C6.00152 0.790195 5.7682 0.723105 5.12502 0.723105H4.20469C4.19518 0.723049 4.1859 0.720184 4.17802 0.714871C4.17014 0.709557 4.164 0.702032 4.16038 0.693241C4.15676 0.68445 4.15582 0.674786 4.15768 0.665463C4.15954 0.656139 4.16411 0.647573 4.17082 0.64084L4.73971 0.0707227C4.76202 0.0483133 4.78853 0.0305302 4.81773 0.0183938C4.84693 0.00625737 4.87824 6.53602e-06 4.90986 0L5.22979 0C6.08742 0 6.3985 0.0895313 6.71221 0.25752ZM3.97266 0C3.98216 5.63902e-05 3.99144 0.00292137 3.99932 0.00823491C4.00721 0.0135484 4.01334 0.0210734 4.01696 0.0298642C4.02058 0.038655 4.02152 0.0483194 4.01966 0.0576428C4.01781 0.0669662 4.01323 0.0755327 4.00652 0.0822656L3.4377 0.652383C3.41537 0.674777 3.38886 0.692549 3.35966 0.704685C3.33046 0.71682 3.29916 0.72308 3.26754 0.723105H2.57145C1.92826 0.723105 1.69488 0.790195 1.45969 0.916348C1.22717 1.03972 1.03711 1.23015 0.91418 1.46291C0.788379 1.69863 0.721348 1.93236 0.721348 2.57707V3.49922C0.721281 3.50869 0.718424 3.51794 0.713136 3.5258C0.707847 3.53366 0.70036 3.53978 0.69161 3.54342C0.68286 3.54705 0.673234 3.54802 0.663934 3.54622C0.654634 3.54441 0.646072 3.5399 0.639317 3.53326L0.0706641 2.96314C0.0254323 2.91793 1.40323e-05 2.85659 0 2.79264L0 2.47184C0 1.6125 0.0893555 1.30078 0.257109 0.986484C0.420931 0.676108 0.674278 0.422149 0.984258 0.257578C1.29369 0.0918164 1.60049 0.00246094 2.43117 0H3.97266ZM5.53184 1.20521C6.06316 1.20521 6.49383 1.63693 6.49383 2.16932V2.77975C6.49378 2.78916 6.49097 2.79835 6.48576 2.80618C6.48055 2.81402 6.47316 2.82016 6.4645 2.82385C6.45584 2.82754 6.4463 2.82861 6.43703 2.82694C6.42777 2.82526 6.4192 2.82092 6.41238 2.81443L5.63678 2.07146C5.58719 2.02171 5.52728 1.98345 5.46129 1.95937C5.40694 1.93879 5.34931 1.92827 5.29119 1.92832H3.0017C2.99217 1.92831 2.98285 1.92547 2.97493 1.92017C2.967 1.91487 2.96083 1.90734 2.95719 1.89853C2.95355 1.88972 2.9526 1.88002 2.95446 1.87067C2.95632 1.86132 2.96091 1.85274 2.96766 1.846L3.53736 1.2757C3.55967 1.25337 3.58616 1.23565 3.61531 1.22356C3.64447 1.21146 3.67572 1.20523 3.70729 1.20521H5.53184ZM16.4068 0.723047C16.5414 0.723047 16.6545 0.766758 16.7462 0.853945C16.8379 0.941367 16.8837 1.05105 16.8837 1.18307C16.8837 1.31525 16.8379 1.42494 16.7462 1.51213C16.6545 1.59955 16.5414 1.64326 16.4068 1.64326C16.2725 1.64326 16.1613 1.59744 16.0737 1.50592C16.0315 1.46349 15.9981 1.4131 15.9756 1.35768C15.953 1.30225 15.9417 1.2429 15.9423 1.18307C15.9423 1.05967 15.986 0.95209 16.0737 0.860391C16.1615 0.768926 16.2725 0.723047 16.4068 0.723047ZM26.3052 0.723047C26.4397 0.723047 26.5529 0.766758 26.6446 0.853945C26.7363 0.941367 26.7822 1.05105 26.7822 1.18307C26.7822 1.31525 26.7363 1.42494 26.6446 1.51213C26.5529 1.59955 26.4397 1.64326 26.3052 1.64326C26.1707 1.64326 26.0597 1.59744 25.972 1.50592C25.9298 1.4635 25.8964 1.41312 25.8739 1.3577C25.8513 1.30227 25.8399 1.24291 25.8405 1.18307C25.8405 1.05967 25.8844 0.95209 25.972 0.860391C26.0596 0.768926 26.1707 0.723047 26.3052 0.723047Z" fill="white"/>
</svg>
