<svg width="40" height="20" viewBox="0 0 40 20" fill="none" xmlns="http://www.w3.org/2000/svg">
<g clip-path="url(#clip0_41_2912)">
<path d="M17.0962 4.61912C17.0962 3.47247 16.7694 2.88411 16.1155 2.85177C15.8553 2.83956 15.6014 2.87997 15.3542 2.97678C15.157 3.04727 15.0252 3.11719 14.9544 3.18778V5.92442C15.3726 6.18683 15.744 6.30977 16.0679 6.28975C16.754 6.24445 17.0962 5.68823 17.0962 4.61902L17.0962 4.61912ZM17.9028 4.66668C17.9028 5.24912 17.7663 5.7325 17.4915 6.11709C17.1853 6.55226 16.7609 6.77632 16.2183 6.78864C15.8093 6.80179 15.3879 6.6735 14.9544 6.40488V8.89208L14.2529 8.64188V3.12124C14.3681 2.98007 14.5161 2.85882 14.6947 2.75591C15.1122 2.51267 15.6195 2.38747 16.2173 2.38137L16.2272 2.39133C16.7728 2.38447 17.1934 2.6075 17.4888 3.06278C17.7642 3.47952 17.9024 4.01365 17.9024 4.66668H17.9028ZM22.1887 6.29896C22.1887 7.08018 22.1104 7.62137 21.9537 7.92213C21.7964 8.22289 21.4971 8.46312 21.0552 8.64207C20.6968 8.78324 20.3092 8.86012 19.8933 8.87309L19.7774 8.43107C20.2004 8.37355 20.498 8.31593 20.6707 8.25841C21.0106 8.14328 21.244 7.96677 21.3721 7.73039C21.4749 7.53772 21.5256 7.17023 21.5256 6.62604V6.44342C21.0524 6.65973 20.5379 6.771 20.0176 6.76956C19.6723 6.76956 19.3676 6.66147 19.1051 6.44342C18.8105 6.20629 18.6631 5.90543 18.6631 5.54095V2.62169L19.3645 2.38146V5.31989C19.3645 5.63381 19.4659 5.87555 19.6684 6.0451C19.8709 6.21465 20.1335 6.29605 20.4551 6.28994C20.7765 6.28308 21.1212 6.15873 21.4873 5.9154V2.48729H22.1887V6.29896ZM24.9278 6.75029L24.6967 6.76025C24.3001 6.76025 23.9907 6.66589 23.7697 6.47641C23.5495 6.28683 23.4389 6.02527 23.4389 5.69133V2.92762H22.9596V2.48635H23.4389V1.31536L24.1396 1.06591V2.4872H24.9278V2.92847H24.1396V5.67291C24.1396 5.93607 24.2101 6.12264 24.3514 6.23157C24.4736 6.32133 24.6654 6.37274 24.9278 6.38571V6.75104V6.75029ZM29.1748 6.69277H28.4734V3.98527C28.4734 3.70988 28.4089 3.47266 28.2807 3.27472C28.1326 3.05065 27.9269 2.93862 27.6629 2.93862C27.3415 2.93862 26.9392 3.10817 26.4565 3.44737V6.69277H25.755V0.221059L26.4565 0V2.94764C26.9046 2.6215 27.3943 2.45891 27.9261 2.45891C28.2975 2.45891 28.5984 2.58391 28.8285 2.83345C29.0596 3.08289 29.1746 3.39361 29.1746 3.76505V6.69371L29.1748 6.69277ZM32.9029 4.50868C32.9029 4.06816 32.8183 3.70443 32.6527 3.41655C32.4547 3.06597 32.1471 2.88082 31.7311 2.86174C30.9622 2.90629 30.5784 3.45724 30.5784 4.5131C30.5784 4.99732 30.6583 5.40175 30.8194 5.72554C31.025 6.13909 31.3335 6.34332 31.7449 6.33646C32.5169 6.33035 32.9028 5.72103 32.9028 4.50765L32.9029 4.50868ZM33.6711 4.51338C33.6711 5.14028 33.5106 5.66219 33.1917 6.07893C32.8395 6.54549 32.3529 6.77961 31.7321 6.77961C31.1167 6.77961 30.637 6.54464 30.2909 6.07893C29.977 5.66219 29.8205 5.14037 29.8205 4.51338C29.8205 3.92408 29.9901 3.4282 30.3292 3.02462C30.6876 2.59641 31.1589 2.38155 31.7413 2.38155C32.3238 2.38155 32.798 2.59641 33.1633 3.02462C33.5017 3.42829 33.6721 3.92408 33.6721 4.51338H33.6711ZM37.6923 6.69277H36.9909V3.83178C36.9909 3.51786 36.8965 3.27312 36.7077 3.09661C36.5197 2.92085 36.2672 2.8357 35.9534 2.84256C35.6203 2.84867 35.3033 2.9577 35.0025 3.1687V6.69277H34.3011V3.08204C34.7047 2.78814 35.0762 2.59613 35.4154 2.50646C35.7354 2.42187 36.0169 2.38146 36.2611 2.38146C36.4276 2.38146 36.5842 2.39744 36.7315 2.42977C37.0069 2.49349 37.231 2.61164 37.4038 2.78504C37.5965 2.97678 37.6923 3.20799 37.6923 3.47651V6.69277Z" fill="#646464"/>
<path d="M7.32477 0.247238C6.96385 0.24893 6.6192 0.279664 6.316 0.333331C5.42264 0.49123 5.26052 0.821503 5.26052 1.43064V2.23517H7.37148V2.50332H4.46726C3.85371 2.50332 3.31647 2.87213 3.14861 3.57356C2.95481 4.37762 2.94616 4.87942 3.14861 5.71901C3.29871 6.34403 3.65709 6.78925 4.27054 6.78925H4.99641V5.82484C4.99641 5.12802 5.59925 4.51343 6.31506 4.51343H8.42367C9.01062 4.51343 9.47915 4.03015 9.47915 3.44066V1.43054C9.47915 0.85844 8.99653 0.428634 8.42367 0.333237C8.06107 0.272896 7.68474 0.245452 7.32383 0.247144L7.32477 0.247238ZM6.18216 0.894155C6.40021 0.894155 6.57832 1.07518 6.57832 1.29764C6.57832 1.51945 6.40021 1.69869 6.18216 1.69869C5.96336 1.69869 5.786 1.51936 5.786 1.29764C5.786 1.07508 5.96326 0.894155 6.18216 0.894155Z" fill="url(#paint0_linear_41_2912)"/>
<path d="M9.74446 2.50293V3.44036C9.74446 4.16717 9.12828 4.77875 8.42581 4.77875H6.3172C5.73965 4.77875 5.26172 5.27312 5.26172 5.85152V7.86173C5.26172 8.43383 5.7592 8.77031 6.3172 8.9345C6.98451 9.13094 7.62626 9.16647 8.42581 8.9345C8.95731 8.78065 9.4813 8.47096 9.4813 7.86173V7.0572H7.37268V6.78905H10.5368C11.1503 6.78905 11.3789 6.36112 11.5923 5.71881C11.8127 5.05751 11.8033 4.42159 11.5923 3.57336C11.4407 2.96262 11.1511 2.50312 10.5368 2.50312H9.74446V2.50293ZM8.55852 7.59358C8.77733 7.59358 8.95468 7.77291 8.95468 7.99463C8.95468 8.21719 8.77742 8.39812 8.55852 8.39812C8.34047 8.39812 8.16237 8.2171 8.16237 7.99463C8.16237 7.77282 8.34047 7.59358 8.55852 7.59358Z" fill="url(#paint1_linear_41_2912)"/>
<path d="M39.058 1.86172H39.1809V1.09055H39.4723V0.998629H38.7666V1.09055H39.058V1.86172ZM39.5813 1.86172H39.6864V1.15737L39.9145 1.86172H40.0315L40.2691 1.15963V1.86172H40.3838V0.998535H40.2322L39.9725 1.73803L39.751 0.998535H39.5815V1.86172" fill="#646464"/>
<path opacity="0.444" d="M10.2243 10.301C10.2243 10.604 8.95773 10.8496 7.39536 10.8496C5.83299 10.8496 4.56641 10.604 4.56641 10.301C4.56641 9.99802 5.83299 9.75244 7.39536 9.75244C8.95773 9.75244 10.2243 9.99802 10.2243 10.301Z" fill="url(#paint2_radial_41_2912)"/>
</g>
<defs>
<linearGradient id="paint0_linear_41_2912" x1="3.00077" y1="0.24705" x2="7.8292" y2="4.44134" gradientUnits="userSpaceOnUse">
<stop stop-color="#5A9FD4"/>
<stop offset="1" stop-color="#306998"/>
</linearGradient>
<linearGradient id="paint1_linear_41_2912" x1="8.50683" y1="7.92696" x2="6.78263" y2="5.46392" gradientUnits="userSpaceOnUse">
<stop stop-color="#FFD43B"/>
<stop offset="1" stop-color="#FFE873"/>
</linearGradient>
<radialGradient id="paint2_radial_41_2912" cx="0" cy="0" r="1" gradientUnits="userSpaceOnUse" gradientTransform="translate(7.39537 10.301) rotate(-90) scale(0.548563 2.41116)">
<stop stop-color="#B8B8B8" stop-opacity="0.498"/>
<stop offset="1" stop-color="#7F7F7F" stop-opacity="0"/>
</radialGradient>
<clipPath id="clip0_41_2912">
<rect width="40" height="20" fill="white"/>
</clipPath>
</defs>
</svg>
