<svg width="50" height="25" viewBox="0 0 50 25" fill="none" xmlns="http://www.w3.org/2000/svg">
<path d="M10.8505 13.9351C11.6503 13.9351 12.2987 13.2868 12.2987 12.487C12.2987 11.6872 11.6503 11.0388 10.8505 11.0388C10.0507 11.0388 9.40234 11.6872 9.40234 12.487C9.40234 13.2868 10.0507 13.9351 10.8505 13.9351Z" fill="#00D8FF"/>
<path fill-rule="evenodd" clip-rule="evenodd" d="M10.8504 9.54248C12.7948 9.54248 14.601 9.82148 15.9629 10.2903C17.6038 10.8552 18.6127 11.7115 18.6127 12.4869C18.6127 13.2949 17.5435 14.2045 15.7814 14.7884C14.4492 15.2297 12.6961 15.4601 10.8504 15.4601C8.9581 15.4601 7.16617 15.2439 5.81897 14.7835C4.1145 14.2009 3.08789 13.2795 3.08789 12.4869C3.08789 11.7178 4.05117 10.8682 5.669 10.3041C7.03598 9.82751 8.88683 9.54248 10.8502 9.54248H10.8504Z" stroke="#00D8FF" stroke-width="1.66272"/>
<path fill-rule="evenodd" clip-rule="evenodd" d="M8.28741 11.0232C9.25877 9.33884 10.4028 7.91352 11.4893 6.96796C12.7984 5.82871 14.0442 5.38255 14.7158 5.76985C15.4158 6.1735 15.6697 7.55422 15.2951 9.3723C15.0122 10.7469 14.3358 12.3806 13.4137 13.9794C12.4683 15.6187 11.3858 17.063 10.3141 17.9997C8.95792 19.1852 7.6468 19.6142 6.96021 19.2183C6.29396 18.8344 6.03919 17.5752 6.3588 15.8919C6.62884 14.4696 7.30655 12.7239 8.28709 11.0231L8.28741 11.0232Z" stroke="#00D8FF" stroke-width="1.66272"/>
<path fill-rule="evenodd" clip-rule="evenodd" d="M8.28968 13.9836C7.31558 12.3012 6.65237 10.5979 6.37553 9.1844C6.0423 7.48127 6.27791 6.17909 6.94894 5.79066C7.64821 5.38583 8.9712 5.85544 10.3593 7.08793C11.4087 8.01974 12.4864 9.42142 13.4111 11.0188C14.3592 12.6565 15.0698 14.3157 15.3462 15.712C15.696 17.479 15.4129 18.8291 14.727 19.2262C14.0614 19.6115 12.8434 19.2036 11.5447 18.086C10.4474 17.1418 9.2734 15.6827 8.28968 13.9836V13.9836Z" stroke="#00D8FF" stroke-width="1.66272"/>
<path fill-rule="evenodd" clip-rule="evenodd" d="M26.925 16.1867L25.15 13.505C26.0471 13.4259 26.8554 12.7759 26.8554 11.5884C26.8554 10.38 25.9979 9.60669 24.795 9.60669H22.1533V16.1817H22.9717V13.5692H24.2829L25.9587 16.1817L26.925 16.1867ZM24.6971 12.8546H22.9721V10.3409H24.6971C25.4762 10.3409 26.0083 10.8534 26.0083 11.5929C26.0083 12.3325 25.4758 12.8554 24.6971 12.8554V12.8546ZM29.9712 16.3046C30.7504 16.3046 31.3908 16.0484 31.8642 15.5754L31.5092 15.0921C31.1342 15.4767 30.5825 15.6934 30.0404 15.6934C29.0154 15.6934 28.3842 14.9442 28.325 14.0475H32.1792V13.86C32.1792 12.4309 31.3312 11.3067 29.8917 11.3067C28.5312 11.3067 27.5458 12.4209 27.5458 13.8009C27.5458 15.2896 28.5612 16.3009 29.9708 16.3009L29.9712 16.3046ZM31.4504 13.5046H28.3254C28.365 12.7754 28.8671 11.9171 29.8829 11.9171C30.9675 11.9171 31.4404 12.7946 31.4504 13.5046ZM37.0896 16.1863V12.9134C37.0896 11.76 36.2521 11.3063 35.2462 11.3063C34.4671 11.3063 33.8562 11.5625 33.3437 12.095L33.6887 12.6075C34.1125 12.1542 34.5762 11.9471 35.1479 11.9471C35.8379 11.9471 36.3508 12.3117 36.3508 12.9525V13.81C35.9662 13.3663 35.4242 13.1592 34.7733 13.1592C33.965 13.1592 33.1067 13.6621 33.1067 14.7267C33.1067 15.7617 33.9642 16.3042 34.7733 16.3042C35.4142 16.3042 35.9567 16.0775 36.3508 15.6438V16.1854L37.0896 16.1863ZM35.0396 15.7721C34.3496 15.7721 33.8662 15.3388 33.8662 14.7371C33.8662 14.1259 34.3496 13.6921 35.0396 13.6921C35.5621 13.6921 36.0646 13.8892 36.3508 14.2838V15.1809C36.065 15.575 35.5621 15.7721 35.0396 15.7721ZM40.6646 16.3046C41.5321 16.3046 42.0446 15.9496 42.4096 15.4767L41.9167 15.0234C41.6012 15.4471 41.1971 15.6442 40.7083 15.6442C39.6929 15.6442 39.0625 14.8554 39.0625 13.8009C39.0625 12.7463 39.6933 11.9675 40.7083 11.9675C41.2012 11.9675 41.6054 12.155 41.9167 12.5884L42.4096 12.135C42.045 11.6617 41.5321 11.3071 40.6646 11.3071C39.245 11.3071 38.2887 12.3917 38.2887 13.8013C38.2887 15.2209 39.245 16.3013 40.6646 16.3013V16.3046ZM44.6479 16.3046C45.0812 16.3046 45.3479 16.1763 45.5354 15.9992L45.3187 15.4471C45.22 15.5554 45.0271 15.6442 44.8158 15.6442C44.4908 15.6442 44.3325 15.3879 44.3325 15.0329V12.0754H45.2992V11.425H44.3325V10.1238H43.5929V11.425H42.8042V12.0759H43.5929V15.1913C43.5929 15.9013 43.9479 16.3054 44.6479 16.3054V16.3046Z" fill="#00D8FF"/>
</svg>
