<svg width="40" height="11" viewBox="0 0 40 11" fill="none" xmlns="http://www.w3.org/2000/svg">
<path fill-rule="evenodd" clip-rule="evenodd" d="M5.77251 3.72335C5.97671 3.72623 6.15858 3.7343 6.27739 3.74462C6.78878 3.78905 7.26722 3.89033 7.66869 4.02911C8.28211 4.24116 8.85322 4.55513 9.38202 4.97102C9.82887 5.36781 10.1316 5.69239 10.2903 5.94475C10.3846 6.09462 10.5505 6.3325 10.6766 6.6438C10.7118 6.73047 10.7647 6.85595 10.813 7.0219C10.8336 7.09244 10.8633 7.21463 10.9021 7.38849C10.9254 7.60973 10.9377 7.76648 10.9392 7.85874C10.9422 8.05091 10.9208 8.20966 10.9021 8.32395C10.8817 8.44908 10.8499 8.60336 10.7802 8.77661C10.7537 8.84258 10.7015 8.94768 10.6237 9.09193C10.4014 9.41275 10.1581 9.66615 9.89351 9.85213C9.62896 10.0381 9.29087 10.1948 8.87924 10.3223C8.5277 10.4346 8.0981 10.4666 7.59045 10.4185C7.36066 10.3967 7.096 10.3352 6.86678 10.2671C6.71515 10.222 6.49952 10.1372 6.21987 10.0126L6.84323 9.51434C6.99964 9.57876 7.11435 9.62235 7.18734 9.64511C7.3764 9.70407 7.55004 9.73482 7.66869 9.75578C7.77491 9.77454 7.90234 9.78988 8.05288 9.79598C8.12956 9.79909 8.25783 9.79909 8.43769 9.79598C8.61781 9.76829 8.74471 9.74469 8.81838 9.72519C9.01123 9.67414 9.15429 9.60609 9.26337 9.54786C9.36642 9.49286 9.49409 9.4169 9.61897 9.30393C9.67435 9.25384 9.75768 9.16321 9.86896 9.03204C10.0122 8.82338 10.1057 8.67159 10.1494 8.57667C10.2241 8.41489 10.2517 8.2489 10.2711 8.13614C10.294 8.00339 10.3183 7.82621 10.2903 7.61232C10.2792 7.52721 10.2444 7.38638 10.1861 7.18982C10.0926 6.90759 9.9869 6.67819 9.86896 6.50163C9.69205 6.23679 9.56463 6.07478 9.45207 5.94475C9.3266 5.79982 9.1299 5.61509 8.87924 5.42797C8.77766 5.35214 8.60504 5.23684 8.36138 5.08206C8.12627 4.95148 7.94551 4.85895 7.81909 4.80448C7.51629 4.67401 7.17762 4.56863 6.97996 4.5215C6.77905 4.47359 6.44819 4.41429 6.1053 4.39273C6.0161 4.38712 5.86377 4.36963 5.71155 4.37132C5.65756 4.37192 5.57824 4.37689 5.4736 4.38624C5.35507 4.66453 5.0793 4.8596 4.75803 4.8596C4.32859 4.8596 3.98047 4.51108 3.98047 4.08117C3.98047 3.65125 4.32859 3.30273 4.75803 3.30273C5.05858 3.30273 5.31931 3.47346 5.44873 3.72332C5.59531 3.72237 5.70324 3.72238 5.77251 3.72335Z" fill="#764ABC"/>
<path fill-rule="evenodd" clip-rule="evenodd" d="M7.37504 7.63104C7.27041 7.80664 7.17245 7.96029 7.10409 8.05814C6.80984 8.4793 6.48289 8.84347 6.16196 9.12215C5.67162 9.54796 5.11425 9.88613 4.48983 10.1367C3.92293 10.3257 3.4906 10.4259 3.19283 10.4373C3.016 10.4441 2.72714 10.469 2.39464 10.4227C2.30206 10.4098 2.16698 10.393 1.99922 10.3519C1.92791 10.3344 1.8073 10.2991 1.63739 10.2459C1.43431 10.1554 1.29248 10.0877 1.2119 10.0429C1.04408 9.94942 0.917409 9.85148 0.827848 9.77814C0.729791 9.69783 0.612202 9.5931 0.497096 9.4461C0.453269 9.39013 0.388418 9.29233 0.302542 9.1527C0.136057 8.79962 0.0385061 8.46191 0.00988971 8.13956C-0.0187266 7.8172 0.0147591 7.44572 0.110347 7.0251C0.189031 6.66419 0.376158 6.27569 0.671727 5.85961C0.80552 5.67127 0.991167 5.47259 1.16476 5.30791C1.2796 5.19898 1.46086 5.05443 1.70854 4.87427L1.82796 5.66386C1.69397 5.76726 1.59887 5.84492 1.54266 5.89682C1.39707 6.03125 1.2836 6.16643 1.20612 6.25882C1.13675 6.34153 1.05974 6.44434 0.979153 6.57181C0.938108 6.63673 0.873948 6.74794 0.786671 6.90544C0.720544 7.07545 0.677493 7.19727 0.657518 7.2709C0.605231 7.46362 0.592569 7.62167 0.588392 7.74536C0.584446 7.86221 0.586326 8.01087 0.621618 8.17563C0.637267 8.24869 0.674017 8.36625 0.731868 8.52832C0.840808 8.75681 0.925401 8.91377 0.985645 8.99918C1.08833 9.14476 1.21814 9.25174 1.30601 9.32495C1.40946 9.41113 1.55061 9.52084 1.74972 9.6035C1.82895 9.6364 1.96821 9.67668 2.16751 9.72434C2.4585 9.78444 2.70989 9.8075 2.92168 9.79352C3.23936 9.77256 3.4433 9.74309 3.61213 9.71052C3.80031 9.6742 4.05856 9.59603 4.34588 9.47226C4.46231 9.42211 4.64844 9.3301 4.90426 9.19624C5.13487 9.05769 5.30536 8.94723 5.41573 8.86486C5.68011 8.66757 5.9407 8.42663 6.08035 8.27883C6.22231 8.12859 6.43913 7.87138 6.62929 7.58488C6.67877 7.51035 6.7701 7.38703 6.84478 7.2542C6.87127 7.20709 6.90664 7.13584 6.95089 7.04044C6.76935 6.79853 6.73848 6.46191 6.89918 6.18336C7.11398 5.81104 7.58972 5.68348 7.96176 5.89844C8.33381 6.11339 8.46129 6.58947 8.24648 6.96179C8.09614 7.22238 7.81799 7.36307 7.53702 7.35034C7.46452 7.4779 7.41053 7.57147 7.37504 7.63104Z" fill="#764ABC"/>
<path fill-rule="evenodd" clip-rule="evenodd" d="M2.96404 6.84783C2.86752 6.66771 2.78638 6.50461 2.73778 6.39562C2.52862 5.92648 2.3851 5.45864 2.31169 5.03998C2.19953 4.4003 2.19694 3.74827 2.30394 3.08387C2.43399 2.50046 2.5708 2.07816 2.71438 1.81696C2.79964 1.66185 2.92706 1.40133 3.13792 1.14005C3.19663 1.0673 3.28059 0.960127 3.40219 0.837441C3.45388 0.785292 3.54625 0.700071 3.67932 0.581777C3.86138 0.454214 3.99238 0.367437 4.07229 0.321447C4.23875 0.225656 4.38786 0.167461 4.49679 0.128427C4.61607 0.0856901 4.76632 0.038783 4.95149 0.0157639C5.02199 0.00699934 5.13915 0.00174471 5.30296 0C5.69108 0.0390229 6.03054 0.129246 6.32135 0.27067C6.61216 0.412093 6.91307 0.632062 7.22407 0.930577C7.49265 1.18386 7.72901 1.54433 7.93314 2.01198C8.02554 2.22368 8.1001 2.48515 8.15174 2.71879C8.1859 2.87334 8.21635 3.10318 8.24309 3.40832L7.50537 3.1042C7.48581 2.93607 7.46828 2.81455 7.45277 2.73962C7.41262 2.54558 7.35528 2.37869 7.31606 2.26468C7.28094 2.16262 7.23255 2.04365 7.16488 1.90892C7.13041 1.8403 7.06821 1.72803 6.97827 1.57211C6.86672 1.42788 6.78456 1.32824 6.73179 1.27321C6.59367 1.12916 6.46482 1.03693 6.36104 0.969663C6.263 0.906121 6.13471 0.831195 5.97543 0.776632C5.90481 0.752437 5.7852 0.723423 5.6166 0.689588C5.36482 0.665362 5.18683 0.657091 5.08266 0.664774C4.9051 0.67787 4.74663 0.734101 4.63868 0.771759C4.5116 0.816093 4.34495 0.880639 4.17162 1.00881C4.10265 1.05981 3.99644 1.15849 3.85298 1.30483C3.65166 1.52341 3.50246 1.72709 3.40536 1.91589C3.25972 2.19909 3.17993 2.38913 3.12089 2.55067C3.05508 2.73072 2.98904 2.99241 2.94707 3.3025C2.93007 3.42815 2.91302 3.63512 2.89592 3.9234C2.89582 4.19246 2.90263 4.39552 2.91633 4.53257C2.94915 4.86084 3.02131 5.20833 3.07597 5.40418C3.13154 5.60325 3.24016 5.92159 3.3876 6.23215C3.42596 6.31295 3.48454 6.45475 3.55984 6.58717C3.58654 6.63413 3.62935 6.70115 3.68826 6.78821C3.98893 6.75709 4.29312 6.90393 4.44892 7.18513C4.65717 7.561 4.52143 8.0346 4.14574 8.24295C3.77005 8.4513 3.29668 8.3155 3.08843 7.93963C2.94268 7.67656 2.96543 7.36561 3.12102 7.13124C3.0491 7.00341 2.99678 6.90894 2.96404 6.84783Z" fill="#764ABC"/>
<path fill-rule="evenodd" clip-rule="evenodd" d="M16.6543 2.29883H19C19.1988 2.30794 19.3448 2.3196 19.438 2.33381C19.5312 2.34803 19.6646 2.37895 19.838 2.4266C20.0919 2.51484 20.2775 2.59406 20.3948 2.66427C20.5122 2.73448 20.6626 2.85629 20.8461 3.02971C20.9926 3.24079 21.0879 3.4154 21.1321 3.55353C21.1762 3.69166 21.2052 3.90584 21.219 4.19607C21.1964 4.4889 21.1574 4.70648 21.1022 4.84879C21.0471 4.99111 20.925 5.18865 20.7362 5.44143C20.6104 5.56855 20.5077 5.65822 20.4281 5.71043C20.3485 5.76265 20.2 5.84089 19.9826 5.94515C20.0645 5.99991 20.1231 6.04133 20.1584 6.06942C20.1936 6.09751 20.2402 6.13993 20.2982 6.19668L20.4687 6.40552L21.7829 8.56417H20.3948C20.2814 8.55781 20.2025 8.54392 20.1584 8.52251C20.1142 8.5011 20.0556 8.44841 19.9826 8.36444L18.8972 6.48457C18.8307 6.38739 18.7806 6.32688 18.7468 6.30304C18.713 6.2792 18.6539 6.26277 18.5697 6.25375H18.099V8.56417H16.6543V2.29883ZM18.1025 3.38297V5.24667H18.7825C19.4489 5.19206 19.7832 4.875 19.7854 4.29548C19.7875 3.71596 19.4533 3.41179 18.7825 3.38297H18.1025Z" fill="white"/>
<path fill-rule="evenodd" clip-rule="evenodd" d="M23.6521 4.03369C24.3378 4.03369 24.8682 4.26892 25.2431 4.73937C25.6181 5.20983 25.7486 5.7758 25.6346 6.43729C25.6078 6.50403 25.5747 6.54472 25.535 6.55934C25.4954 6.57397 25.3981 6.58143 25.2431 6.58174H22.8068C22.8464 7.11501 23.0593 7.45144 23.4455 7.59103C23.7875 7.71467 24.1956 7.64655 24.6868 7.39976C24.729 7.37854 24.7965 7.3458 24.8892 7.30156C24.9683 7.28295 25.0281 7.27615 25.0687 7.28116C25.1092 7.28616 25.1607 7.30671 25.2232 7.34281L25.6346 7.87502C25.4193 8.16445 25.1034 8.37512 24.6868 8.50703C24.2702 8.63893 23.8459 8.67953 23.4138 8.62883C22.7958 8.54763 22.3154 8.29636 21.9726 7.87502C21.6298 7.45369 21.4548 6.92098 21.4477 6.27691C21.4375 5.69619 21.6205 5.18368 21.9966 4.73937C22.3728 4.29506 22.9247 4.05984 23.6521 4.03369ZM22.8172 5.79765H24.4698C24.4698 5.53486 24.3974 5.32602 24.2526 5.17114C24.1079 5.01626 23.9048 4.94541 23.6435 4.95859C23.3751 4.97395 23.1786 5.05801 23.0541 5.21077C22.9295 5.36352 22.8506 5.55915 22.8172 5.79765Z" fill="white"/>
<path fill-rule="evenodd" clip-rule="evenodd" d="M28.8953 2.12427H30.2289V8.56404H29.3221C29.2194 8.54737 29.1504 8.51243 29.1151 8.45922C29.0798 8.40601 29.0294 8.26097 28.9639 8.02409C28.5776 8.43306 28.1321 8.64061 27.6275 8.64674C27.1228 8.65286 26.7119 8.44532 26.3948 8.02409C26.092 7.58834 25.9445 7.0153 25.9525 6.30495C25.9604 5.5946 26.1548 5.0341 26.5355 4.62346C26.7853 4.31352 27.1492 4.11727 27.6275 4.03472C28.1057 3.95217 28.5283 4.07102 28.8953 4.39128V2.12427ZM28.8799 5.30192C28.7673 5.17599 28.6615 5.09438 28.5623 5.05709C28.4632 5.01981 28.3074 5.00303 28.0951 5.00677C27.689 5.0611 27.4509 5.33684 27.3808 5.83397C27.348 6.06698 27.3271 6.2906 27.3426 6.59189C27.3497 6.72844 27.3861 6.92744 27.4518 7.18888C27.5363 7.47824 27.7508 7.62169 28.0951 7.61923C28.4395 7.61677 28.7011 7.47332 28.8799 7.18888V5.30192Z" fill="white"/>
<path fill-rule="evenodd" clip-rule="evenodd" d="M34.9786 4.10669V8.57629H34.0701C33.9706 8.54578 33.9037 8.50532 33.8693 8.45494C33.8349 8.40456 33.7933 8.28613 33.7446 8.09964C33.3729 8.46193 32.9405 8.64403 32.4473 8.64596C31.9542 8.64789 31.5555 8.46578 31.2511 8.09964C31.1006 7.84864 31.0078 7.64588 30.9727 7.49138C30.9376 7.33687 30.9197 7.05226 30.9189 6.63755V4.10669H32.2654V7.00679C32.2819 7.34801 32.4241 7.5548 32.6923 7.62714C32.9604 7.69948 33.2745 7.58788 33.6346 7.29236V4.10669H34.9786Z" fill="white"/>
<path fill-rule="evenodd" clip-rule="evenodd" d="M35.2941 4.10278H36.6835C36.7573 4.1301 36.8064 4.15486 36.8308 4.17705C36.8553 4.19924 36.8862 4.24332 36.9236 4.30928L37.6953 5.58653L38.4432 4.24102C38.4887 4.18806 38.5268 4.15312 38.5574 4.13621C38.588 4.11929 38.6333 4.10815 38.6934 4.10278H39.947L38.5022 6.19935L39.9998 8.5698H38.636C38.5537 8.55252 38.4932 8.5273 38.4542 8.49414C38.4153 8.46097 38.3628 8.38989 38.2968 8.28089L37.5444 6.98963L36.7713 8.33156C36.7092 8.42288 36.6607 8.48237 36.6259 8.51004C36.591 8.5377 36.5395 8.55763 36.4714 8.5698H35.2236L36.718 6.27262L35.2784 4.10278H35.2941Z" fill="white"/>
</svg>
