<svg width="50" height="11" viewBox="0 0 50 11" fill="none" xmlns="http://www.w3.org/2000/svg">
<path d="M13.3195 7.91584C12.8928 7.91584 12.4822 7.8585 12.0875 7.74384C11.6928 7.62917 11.3649 7.4705 11.1035 7.26784L11.5035 6.37984C12.0475 6.7585 12.6582 6.94784 13.3355 6.94784C13.6875 6.94784 13.9582 6.8905 14.1475 6.77584C14.3368 6.66117 14.4315 6.5025 14.4315 6.29984C14.4315 6.1185 14.3448 5.97717 14.1715 5.87584C13.9982 5.7745 13.6902 5.67584 13.2475 5.57984C12.7515 5.4785 12.3555 5.35584 12.0595 5.21184C11.7635 5.06784 11.5475 4.8905 11.4115 4.67984C11.2755 4.46917 11.2075 4.20917 11.2075 3.89984C11.2075 3.5585 11.3022 3.2545 11.4915 2.98784C11.6808 2.72117 11.9462 2.51184 12.2875 2.35984C12.6289 2.20784 13.0235 2.13184 13.4715 2.13184C13.8715 2.13184 14.2568 2.1905 14.6275 2.30784C14.9982 2.42517 15.2928 2.5825 15.5115 2.77984L15.1115 3.66784C14.5942 3.28917 14.0502 3.09984 13.4795 3.09984C13.1542 3.09984 12.8982 3.1625 12.7115 3.28784C12.5248 3.41317 12.4315 3.58517 12.4315 3.80384C12.4315 3.93184 12.4675 4.03717 12.5395 4.11984C12.6115 4.2025 12.7315 4.27584 12.8995 4.33984C13.0675 4.40384 13.3062 4.4705 13.6155 4.53984C14.3409 4.69984 14.8622 4.90517 15.1795 5.15584C15.4969 5.4065 15.6555 5.75317 15.6555 6.19584C15.6555 6.72917 15.4502 7.14917 15.0395 7.45584C14.6288 7.7625 14.0555 7.91584 13.3195 7.91584ZM18.5515 7.01984C18.6742 7.01984 18.8022 7.01184 18.9355 6.99584L18.8715 7.87584C18.7168 7.89717 18.5622 7.90784 18.4075 7.90784C17.8102 7.90784 17.3742 7.77717 17.0995 7.51584C16.8248 7.2545 16.6875 6.85717 16.6875 6.32384V4.81984H15.9435V3.91584H16.6875V2.76384H17.8955V3.91584H18.8795V4.81984H17.8955V6.31584C17.8955 6.78517 18.1142 7.01984 18.5515 7.01984ZM21.3595 7.90784C20.9435 7.90784 20.5782 7.82384 20.2635 7.65584C19.9488 7.48784 19.7062 7.2505 19.5355 6.94384C19.3648 6.63717 19.2795 6.27584 19.2795 5.85984C19.2795 5.44383 19.3648 5.0825 19.5355 4.77584C19.7062 4.46917 19.9488 4.23317 20.2635 4.06784C20.5782 3.9025 20.9435 3.81984 21.3595 3.81984C21.7755 3.81984 22.1408 3.9025 22.4555 4.06784C22.7702 4.23317 23.0128 4.46917 23.1835 4.77584C23.3542 5.0825 23.4395 5.44383 23.4395 5.85984C23.4395 6.27584 23.3542 6.63717 23.1835 6.94384C23.0128 7.2505 22.7702 7.48784 22.4555 7.65584C22.1408 7.82384 21.7755 7.90784 21.3595 7.90784ZM21.3595 6.98784C21.9462 6.98784 22.2395 6.61184 22.2395 5.85984C22.2395 5.48117 22.1635 5.1985 22.0115 5.01184C21.8595 4.82517 21.6422 4.73184 21.3595 4.73184C20.7728 4.73184 20.4795 5.10783 20.4795 5.85984C20.4795 6.61184 20.7728 6.98784 21.3595 6.98784ZM26.7835 4.81184L26.1035 4.88384C25.7675 4.91584 25.5302 5.0105 25.3915 5.16784C25.2528 5.32517 25.1835 5.5345 25.1835 5.79584V7.84384H23.9755V3.91584H25.1355V4.57984C25.3329 4.1265 25.7408 3.8785 26.3595 3.83584L26.7115 3.81184L26.7835 4.81184ZM30.2935 3.92384H31.4775L29.1095 9.28384H27.8855L28.6375 7.62784L27.0215 3.92384H28.2775L29.2695 6.41984L30.2935 3.92384ZM34.2775 3.81984C34.6189 3.81984 34.9202 3.9025 35.1815 4.06784C35.4428 4.23317 35.6468 4.46917 35.7935 4.77584C35.9402 5.0825 36.0135 5.4385 36.0135 5.84384C36.0135 6.24917 35.9402 6.60783 35.7935 6.91984C35.6468 7.23184 35.4415 7.4745 35.1775 7.64784C34.9135 7.82117 34.6135 7.90784 34.2775 7.90784C34.0055 7.90784 33.7602 7.8505 33.5415 7.73584C33.3228 7.62117 33.1548 7.4625 33.0375 7.25984V7.84384H31.8455V2.20384H33.0535V4.44384C33.1709 4.2465 33.3375 4.09317 33.5535 3.98384C33.7695 3.8745 34.0108 3.81984 34.2775 3.81984ZM33.9255 6.98784C34.2082 6.98784 34.4268 6.88784 34.5815 6.68784C34.7362 6.48783 34.8135 6.2065 34.8135 5.84384C34.8135 5.4865 34.7362 5.21317 34.5815 5.02384C34.4268 4.8345 34.2082 4.73984 33.9255 4.73984C33.6428 4.73984 33.4242 4.83717 33.2695 5.03184C33.1148 5.2265 33.0375 5.5025 33.0375 5.85984C33.0375 6.2225 33.1148 6.50117 33.2695 6.69584C33.4242 6.8905 33.6428 6.98784 33.9255 6.98784ZM38.6375 7.90784C38.2215 7.90784 37.8562 7.82384 37.5415 7.65584C37.2268 7.48784 36.9842 7.2505 36.8135 6.94384C36.6428 6.63717 36.5575 6.27584 36.5575 5.85984C36.5575 5.44383 36.6428 5.0825 36.8135 4.77584C36.9842 4.46917 37.2268 4.23317 37.5415 4.06784C37.8562 3.9025 38.2215 3.81984 38.6375 3.81984C39.0535 3.81984 39.4188 3.9025 39.7335 4.06784C40.0482 4.23317 40.2908 4.46917 40.4615 4.77584C40.6322 5.0825 40.7175 5.44383 40.7175 5.85984C40.7175 6.27584 40.6322 6.63717 40.4615 6.94384C40.2908 7.2505 40.0482 7.48784 39.7335 7.65584C39.4188 7.82384 39.0535 7.90784 38.6375 7.90784ZM38.6375 6.98784C39.2242 6.98784 39.5175 6.61184 39.5175 5.85984C39.5175 5.48117 39.4415 5.1985 39.2895 5.01184C39.1375 4.82517 38.9202 4.73184 38.6375 4.73184C38.0508 4.73184 37.7575 5.10783 37.7575 5.85984C37.7575 6.61184 38.0508 6.98784 38.6375 6.98784ZM43.1415 7.90784C42.7255 7.90784 42.3602 7.82384 42.0455 7.65584C41.7308 7.48784 41.4882 7.2505 41.3175 6.94384C41.1468 6.63717 41.0615 6.27584 41.0615 5.85984C41.0615 5.44383 41.1468 5.0825 41.3175 4.77584C41.4882 4.46917 41.7308 4.23317 42.0455 4.06784C42.3602 3.9025 42.7255 3.81984 43.1415 3.81984C43.5575 3.81984 43.9228 3.9025 44.2375 4.06784C44.5522 4.23317 44.7948 4.46917 44.9655 4.77584C45.1362 5.0825 45.2215 5.44383 45.2215 5.85984C45.2215 6.27584 45.1362 6.63717 44.9655 6.94384C44.7948 7.2505 44.5522 7.48784 44.2375 7.65584C43.9228 7.82384 43.5575 7.90784 43.1415 7.90784ZM43.1415 6.98784C43.7282 6.98784 44.0215 6.61184 44.0215 5.85984C44.0215 5.48117 43.9455 5.1985 43.7935 5.01184C43.6415 4.82517 43.4242 4.73184 43.1415 4.73184C42.5548 4.73184 42.2615 5.10783 42.2615 5.85984C42.2615 6.61184 42.5548 6.98784 43.1415 6.98784ZM49.9995 7.84384H48.5195L47.0155 6.09184V7.84384H45.8075V2.20384H47.0155V5.59584L48.4635 3.92384H49.9035L48.2555 5.79584L49.9995 7.84384Z" fill="white"/>
<path d="M0.31014 9.21467L0.000360048 0.960446C-0.00987076 0.687842 0.199153 0.456812 0.471418 0.439796L7.49221 0.000996175C7.76935 -0.0163247 8.00805 0.194295 8.02537 0.471429C8.02602 0.48187 8.02635 0.492329 8.02635 0.502791V9.49723C8.02635 9.7749 7.80125 10 7.52357 10C7.51605 10 7.50853 9.99983 7.50102 9.99949L0.790001 9.69808C0.528634 9.68634 0.319952 9.47612 0.31014 9.21467Z" fill="#FF4785"/>
<mask id="mask0_63_3152" style="mask-type:luminance" maskUnits="userSpaceOnUse" x="0" y="0" width="9" height="10">
<path d="M0.31014 9.21467L0.000360048 0.960446C-0.00987076 0.687842 0.199153 0.456812 0.471418 0.439796L7.49221 0.000996175C7.76935 -0.0163247 8.00805 0.194295 8.02537 0.471429C8.02602 0.48187 8.02635 0.492329 8.02635 0.502791V9.49723C8.02635 9.7749 7.80125 10 7.52357 10C7.51605 10 7.50853 9.99983 7.50102 9.99949L0.790001 9.69808C0.528634 9.68634 0.319952 9.47612 0.31014 9.21467Z" fill="white"/>
</mask>
<g mask="url(#mask0_63_3152)">
<path d="M5.92723 1.22916L5.97518 0.0757559L6.93935 0L6.98089 1.18946C6.98233 1.23086 6.94995 1.26559 6.90855 1.26704C6.89082 1.26766 6.87345 1.26197 6.85952 1.251L6.48771 0.958096L6.04749 1.29203C6.01449 1.31706 5.96744 1.3106 5.94241 1.2776C5.93187 1.26371 5.9265 1.24658 5.92723 1.22916ZM4.69415 3.76914C4.69415 3.96474 6.01174 3.871 6.18862 3.73359C6.18862 2.40155 5.47387 1.70158 4.16505 1.70158C2.85624 1.70158 2.12293 2.41244 2.12293 3.47873C2.12293 5.33585 4.62917 5.37139 4.62917 6.38437C4.62917 6.66871 4.48994 6.83754 4.18362 6.83754C3.78448 6.83754 3.62668 6.6337 3.64524 5.94061C3.64524 5.79025 2.12293 5.74338 2.07651 5.94061C1.95833 7.62021 3.00475 8.10467 4.20218 8.10467C5.36248 8.10467 6.27216 7.4862 6.27216 6.3666C6.27216 4.37619 3.72878 4.4295 3.72878 3.44319C3.72878 3.04333 4.02582 2.99001 4.20218 2.99001C4.38783 2.99001 4.722 3.02273 4.69415 3.76914Z" fill="white"/>
</g>
</svg>
