<svg width="35" height="15" viewBox="0 0 35 15" fill="none" xmlns="http://www.w3.org/2000/svg">
<path fill-rule="evenodd" clip-rule="evenodd" d="M34.4829 7.4125C34.4829 4.96042 33.2954 3.025 31.0246 3.025C28.7454 3.025 27.3654 4.96 27.3654 7.39292C27.3654 10.2762 28.9937 11.7321 31.3308 11.7321C32.4708 11.7321 33.3329 11.4737 33.9842 11.1096V9.19375C33.3329 9.51958 32.5858 9.72042 31.6375 9.72042C30.7083 9.72042 29.8846 9.39458 29.7792 8.26458H34.4625C34.4625 8.13958 34.4817 7.64208 34.4817 7.41208L34.4829 7.4125ZM29.755 6.50292C29.755 5.42042 30.4158 4.97042 31.0196 4.97042C31.6037 4.97042 32.2267 5.42042 32.2267 6.50292H29.755ZM23.6729 3.02583C22.7342 3.02583 22.1312 3.46625 21.7954 3.77292L21.6704 3.17917H19.5592V14.3479L21.9537 13.8404L21.9633 11.1296C22.3083 11.3787 22.8158 11.7329 23.6592 11.7329C25.3737 11.7329 26.935 10.3579 26.935 7.31708C26.9254 4.53917 25.345 3.02542 23.6683 3.02542L23.6729 3.02583ZM23.0979 9.62583C22.5329 9.62583 22.1979 9.42458 21.9675 9.17583L21.9579 5.62167C22.2071 5.34375 22.5517 5.1525 23.0979 5.1525C23.9696 5.1525 24.5729 6.12958 24.5729 7.38417C24.5729 8.6675 23.9792 9.62583 23.0979 9.62583ZM16.2646 2.46083L18.6687 1.94417V0L16.2646 0.5075V2.46083ZM16.2646 3.18875H18.6687V11.57H16.2646V3.18875ZM13.6875 3.89708L13.5342 3.18875H11.465V11.5708H13.8596V5.89C14.4246 5.1525 15.3825 5.28667 15.6796 5.39208V3.18917C15.3729 3.07417 14.2525 2.86333 13.6871 3.8975L13.6875 3.89708ZM8.89833 1.10542L6.56125 1.60417L6.55167 9.27667C6.55167 10.6942 7.615 11.7383 9.0325 11.7383C9.81792 11.7383 10.3925 11.5946 10.7087 11.4217V9.47708C10.4021 9.60208 8.88875 10.0421 8.88875 8.62458V5.22917H10.7087V3.18875H8.88792L8.89833 1.10542ZM2.42333 5.61708C2.42333 5.24333 2.73 5.10042 3.2375 5.10042C4.0659 5.11806 4.87889 5.32773 5.6125 5.71292V3.46667C4.8175 3.15 4.03208 3.02625 3.2375 3.02625C1.29292 3.02625 0 4.04167 0 5.73708C0 8.38083 3.64 7.95917 3.64 9.09958C3.64 9.54 3.25667 9.68375 2.72042 9.68375C1.92542 9.68375 0.91 9.35792 0.105417 8.91708V11.1962C0.99625 11.5796 1.89708 11.7379 2.72042 11.7379C4.71292 11.7379 6.08292 10.7513 6.08292 9.03667C6.07333 6.1825 2.42333 6.69 2.42333 5.61708Z" fill="#6772E5"/>
</svg>
