<svg width="55" height="12" viewBox="0 0 55 12" fill="none" xmlns="http://www.w3.org/2000/svg">
<path fill-rule="evenodd" clip-rule="evenodd" d="M4.67588 3.74135C5.2989 1.24712 6.85806 0 9.35176 0C13.0931 0 13.5598 2.80467 15.43 3.27301C16.6771 3.58505 17.7679 3.11779 18.703 1.87067C18.08 4.36437 16.5208 5.61148 14.0276 5.61148C10.2863 5.61148 9.81956 2.80681 7.94942 2.33847C6.70231 2.02643 5.61148 2.49369 4.67641 3.74081L4.67588 3.74135ZM0 9.35283C0.624093 6.8586 2.18165 5.61148 4.67588 5.61148C8.41722 5.61148 8.88396 8.41616 10.7541 8.88449C12.0012 9.19654 13.092 8.72927 14.0271 7.48216C13.4041 9.97639 11.8449 11.2235 9.35122 11.2235C5.60988 11.2235 5.14315 8.41883 3.27301 7.95049C2.02589 7.63845 0.935069 8.10571 0 9.35283Z" fill="url(#paint0_linear_63_3149)"/>
<path fill-rule="evenodd" clip-rule="evenodd" d="M22.1069 4.31529H20.8828V3.58201H24.1853V4.31529H22.9617V7.64129H22.1069V4.31529ZM25.784 7.26608C25.6708 7.39511 25.5369 7.50453 25.3879 7.5899C25.2424 7.6734 25.0534 7.71515 24.8217 7.71515C24.6937 7.71577 24.5664 7.69847 24.4432 7.66377C24.3233 7.62951 24.2184 7.57652 24.1296 7.5048C24.0407 7.43308 23.969 7.34155 23.9166 7.22915C23.8641 7.11675 23.8363 6.98401 23.8363 6.82772C23.8363 6.62325 23.8818 6.45626 23.9733 6.32726C24.065 6.19774 24.1885 6.09398 24.3319 6.02592C24.4796 5.95367 24.6456 5.90282 24.8297 5.87231C25.0155 5.84171 25.203 5.82277 25.3912 5.81557L25.7723 5.79845V5.65072C25.7723 5.46874 25.7225 5.34349 25.6213 5.27605C25.5202 5.20861 25.4019 5.17435 25.2659 5.17435C24.9501 5.17435 24.7703 5.29371 24.7253 5.53297L23.9974 5.46499C24.0498 5.15455 24.1869 4.92975 24.4068 4.79058C24.6268 4.65142 24.9234 4.58291 25.2954 4.58291C25.5228 4.58291 25.7166 4.60967 25.8761 4.66534C26.0356 4.721 26.164 4.79915 26.2604 4.90084C26.3591 5.0066 26.4314 5.13427 26.4713 5.27337C26.5152 5.41896 26.5366 5.58381 26.5366 5.7658V7.64182H25.784V7.26715V7.26608ZM25.7669 6.31656L25.4136 6.33369C25.2466 6.34065 25.1118 6.35831 25.0095 6.38507C24.9073 6.41183 24.8275 6.44502 24.774 6.48463C24.7205 6.52423 24.6814 6.57027 24.6632 6.62379C24.645 6.67731 24.6349 6.73619 24.6349 6.80042C24.6349 6.8989 24.6691 6.97705 24.7366 7.03325C24.804 7.08945 24.8998 7.11889 25.0202 7.11889C25.2258 7.11889 25.3928 7.07179 25.5212 6.97651C25.5935 6.92299 25.6529 6.85555 25.6979 6.77473C25.7428 6.69391 25.7658 6.59167 25.7658 6.47071V6.3171L25.7669 6.31656ZM27.1832 4.67337H27.9807V7.64075H27.1832V4.67337ZM27.1724 3.58147H27.9914V4.29762H27.1724V3.58147ZM28.6626 3.58147H29.4601V7.64075H28.6626V3.58147ZM29.8171 4.67337H30.682L31.0979 6.64038L31.6663 4.70173H32.3611L32.8963 6.64627L33.3122 4.67925H34.1434L33.278 7.64664H32.5035L31.9736 5.69086L31.4383 7.64664H30.6815L29.8165 4.67925L29.8171 4.67337ZM34.5058 4.67337H35.3033V7.64075H34.5058V4.67337ZM34.4951 3.58147H35.314V4.29762H34.4951V3.58147ZM35.9799 4.67337H36.7544V5.08283C36.8721 4.90887 37.0113 4.78148 37.1718 4.70173C37.3324 4.62198 37.501 4.58237 37.675 4.58237C38.0132 4.58237 38.2637 4.67069 38.427 4.84678C38.5902 5.02288 38.6721 5.30067 38.6721 5.67962V7.64075H37.8752V5.78828C37.8752 5.57418 37.8355 5.43769 37.7553 5.36169C37.675 5.28568 37.5695 5.24822 37.4368 5.24822C37.3351 5.24822 37.2462 5.26427 37.1718 5.29371C37.0974 5.32315 37.0284 5.36757 36.9642 5.42431C36.9107 5.47783 36.8662 5.54099 36.8304 5.61486C36.7945 5.69023 36.7762 5.77277 36.7768 5.85625V7.64129H35.974V4.6739L35.9799 4.67337ZM41.3751 7.24895C41.2752 7.40134 41.1381 7.52571 40.9767 7.61029C40.8153 7.69487 40.635 7.73686 40.4529 7.73228C40.0354 7.73228 39.725 7.59204 39.5189 7.31158C39.3128 7.03111 39.2117 6.64252 39.2117 6.14635C39.2093 5.93185 39.2392 5.71821 39.3005 5.51263C39.3594 5.32101 39.4434 5.15615 39.5537 5.01806C39.6619 4.88139 39.8002 4.7715 39.9578 4.69692C40.1184 4.62198 40.2977 4.58344 40.4984 4.58344C40.6461 4.58344 40.7928 4.61021 40.9389 4.66373C41.085 4.71726 41.2226 4.8243 41.3521 4.97096V3.58361H42.1496V7.64289H41.3756V7.25056L41.3751 7.24895ZM41.358 6.12334C41.358 5.93386 41.3419 5.78239 41.3045 5.66838C41.267 5.55437 41.2199 5.46231 41.1482 5.39006C41.0797 5.32208 41.0047 5.28301 40.9234 5.25624C40.8446 5.23562 40.7634 5.22519 40.682 5.2252C40.5967 5.22482 40.5123 5.24232 40.4342 5.27658C40.356 5.31084 40.2886 5.36383 40.2292 5.43555C40.1697 5.50727 40.1237 5.60255 40.09 5.71923C40.0563 5.83591 40.0386 5.97615 40.0386 6.13993C40.0386 6.31763 40.0547 6.46643 40.0921 6.58632C40.1296 6.70622 40.1687 6.80256 40.2259 6.87642C40.2832 6.95029 40.349 7.00328 40.4251 7.03539C40.5011 7.06751 40.5829 7.08891 40.6702 7.08891C40.8597 7.08891 41.0154 7.03378 41.1369 6.92406C41.2136 6.84657 41.271 6.75215 41.3045 6.64841C41.3398 6.54029 41.358 6.40113 41.358 6.23092V6.12922V6.12334ZM47.5893 6.23681C47.57 6.45305 47.5197 6.65269 47.4383 6.83628C47.3593 7.01616 47.2452 7.17847 47.1027 7.31372C46.9517 7.45382 46.7733 7.56116 46.5787 7.62898C46.3721 7.70391 46.1323 7.74245 45.8588 7.74245C45.5516 7.74245 45.2808 7.69106 45.0474 7.58883C44.8214 7.49196 44.6208 7.34413 44.4613 7.15689C44.3034 6.97116 44.1851 6.74636 44.1054 6.48249C44.0256 6.21861 43.986 5.92797 43.986 5.61004C43.986 5.28033 44.0288 4.98488 44.1166 4.72314C44.2044 4.46141 44.3296 4.23821 44.4924 4.05248C44.6551 3.86675 44.8531 3.72438 45.0843 3.6259C45.3156 3.52741 45.5784 3.47817 45.8711 3.47817C46.1291 3.47817 46.3545 3.51028 46.5455 3.57451C46.7366 3.63874 46.8988 3.73187 47.0299 3.85284C47.1611 3.9738 47.2655 4.12046 47.3457 4.29067C47.4292 4.47363 47.4884 4.6667 47.5218 4.86498L46.6788 4.9731C46.6371 4.73438 46.5557 4.54651 46.438 4.41003C46.3202 4.27354 46.1286 4.20556 45.8706 4.20556C45.5441 4.20556 45.2963 4.3276 45.1282 4.5722C44.9602 4.81681 44.874 5.16204 44.874 5.6095C44.874 6.06071 44.965 6.41237 45.1448 6.65002C45.2262 6.766 45.3352 6.85996 45.4618 6.92348C45.5885 6.987 45.729 7.0181 45.8706 7.01398C46.1329 7.01398 46.3256 6.94654 46.4487 6.81219C46.5718 6.67785 46.6483 6.4857 46.6788 6.2352L47.5893 6.23681ZM48.8294 6.3171C48.8482 6.56705 48.929 6.74904 49.0703 6.86304C49.2116 6.97705 49.4219 7.03432 49.6992 7.03432C49.8319 7.03432 49.9443 7.01987 50.0353 6.9915C50.1263 6.96313 50.2002 6.92513 50.2575 6.87803C50.3121 6.83383 50.3542 6.77606 50.3795 6.7105C50.4048 6.64328 50.4173 6.57195 50.4164 6.50015C50.4164 6.3931 50.3774 6.29408 50.2976 6.20148C50.2178 6.10889 50.0717 6.04091 49.8587 5.9997L49.3288 5.90335C49.1147 5.86589 48.9359 5.81611 48.7764 5.75563C48.6169 5.69514 48.4831 5.61646 48.375 5.52012C48.2669 5.42378 48.1845 5.30495 48.1277 5.16472C48.071 5.02448 48.0421 4.85749 48.0421 4.66427C48.0386 4.48673 48.0786 4.31104 48.1588 4.15257C48.2361 4.00552 48.3473 3.87894 48.4831 3.78326C48.6223 3.68477 48.7882 3.60984 48.9809 3.55845C49.1736 3.50707 49.3877 3.48192 49.6189 3.48192C49.9149 3.48192 50.1616 3.51617 50.3592 3.58361C50.5567 3.65105 50.7162 3.74151 50.8377 3.85391C50.9592 3.96631 51.0491 4.09477 51.108 4.24357C51.1668 4.39236 51.2059 4.54491 51.2257 4.70387L50.4228 4.80557C50.3811 4.58184 50.3008 4.4202 50.182 4.32225C50.0632 4.2243 49.8812 4.17452 49.6382 4.17452C49.4937 4.17452 49.3759 4.18683 49.2822 4.21199C49.1886 4.23714 49.1142 4.26872 49.0574 4.30833C49.0052 4.34251 48.9636 4.39075 48.9375 4.44749C48.9151 4.50102 48.9033 4.55561 48.9033 4.61235C48.9033 4.76382 48.9461 4.87783 49.0318 4.9533C49.1174 5.02877 49.2619 5.08818 49.4669 5.12993L50.0246 5.23805C50.4651 5.32529 50.7879 5.46659 50.9934 5.66089C51.199 5.85518 51.3006 6.14261 51.3006 6.50497C51.3006 6.68267 51.2675 6.84752 51.2011 6.99739C51.133 7.14882 51.0317 7.28293 50.9046 7.38972C50.7599 7.50923 50.5926 7.59826 50.4127 7.65146C50.2157 7.71408 49.9845 7.74512 49.7179 7.74512C49.1634 7.74512 48.7395 7.62737 48.4457 7.38972C48.1518 7.15207 47.9928 6.80095 47.9639 6.31817H48.8235L48.8294 6.3171ZM52.5226 6.3171C52.5413 6.56705 52.6222 6.74904 52.7635 6.86304C52.9048 6.97705 53.1167 7.03432 53.3924 7.03432C53.5262 7.03432 53.6375 7.01987 53.7296 6.9915C53.8216 6.96313 53.8944 6.92513 53.9517 6.87803C54.0063 6.83383 54.0484 6.77606 54.0737 6.7105C54.099 6.64328 54.1115 6.57195 54.1107 6.50015C54.1091 6.38928 54.0666 6.28291 53.9913 6.20148C53.911 6.10889 53.7654 6.04091 53.5524 5.9997L53.0225 5.90335C52.8084 5.86589 52.6297 5.81611 52.4701 5.75563C52.3106 5.69514 52.1768 5.61646 52.0687 5.52012C51.9606 5.42378 51.8782 5.30495 51.8209 5.16472C51.7636 5.02448 51.7353 4.85749 51.7353 4.66427C51.7318 4.48673 51.7718 4.31104 51.8519 4.15257C51.9301 4.00485 52.0382 3.88121 52.1763 3.7779C52.3144 3.6746 52.4814 3.60449 52.6741 3.5531C52.8668 3.50172 53.0809 3.47656 53.3121 3.47656C53.6081 3.47656 53.8548 3.51082 54.0523 3.57826C54.2498 3.6457 54.4088 3.73616 54.5308 3.84856C54.6529 3.96096 54.7428 4.08942 54.8011 4.23821C54.8595 4.38701 54.8991 4.53955 54.9189 4.69852L54.116 4.80022C54.0743 4.57649 53.994 4.41484 53.8752 4.31689C53.7563 4.21894 53.5744 4.16917 53.3314 4.16917C53.1868 4.16917 53.0691 4.18148 52.9754 4.20663C52.8818 4.23179 52.8074 4.26337 52.7506 4.30298C52.6984 4.33716 52.6568 4.3854 52.6307 4.44214C52.6077 4.49566 52.5965 4.55026 52.5965 4.60699C52.5965 4.75847 52.6393 4.87248 52.7249 4.94794C52.8106 5.02341 52.9551 5.08283 53.1606 5.12457L53.7237 5.23698C54.1642 5.32422 54.4869 5.46552 54.6925 5.65982C54.898 5.85411 54.9997 6.14154 54.9997 6.50389C55.0016 6.67304 54.9677 6.84068 54.9002 6.99578C54.8323 7.14731 54.7309 7.28146 54.6036 7.38812C54.473 7.50052 54.3092 7.58722 54.1112 7.65038C53.9132 7.71354 53.683 7.74405 53.417 7.74405C52.8625 7.74405 52.4386 7.6263 52.1442 7.38865C51.8498 7.151 51.6914 6.79988 51.6689 6.3171H52.5226Z" fill="white"/>
<defs>
<linearGradient id="paint0_linear_63_3149" x1="-9.76651e-08" y1="-9.97425" x2="18.703" y2="21.1972" gradientUnits="userSpaceOnUse">
<stop stop-color="#2383AE"/>
<stop offset="1" stop-color="#6DD7B9"/>
</linearGradient>
</defs>
</svg>
