<svg width="40" height="13" viewBox="0 0 40 13" fill="none" xmlns="http://www.w3.org/2000/svg">
<path fill-rule="evenodd" clip-rule="evenodd" d="M20.0873 3.18523V4.10885H17.7545V10.2393H16.7882V4.10818H14.8066V3.1859L20.0873 3.18523ZM20.5586 4.87041H21.4606V5.81472C21.7718 5.18134 22.315 4.72969 23.3617 4.79412V5.69604C22.1804 5.57398 21.4606 5.93272 21.4606 7.06996V10.2426H20.562L20.5586 4.87041ZM26.6188 10.3471C24.6102 10.3471 23.7306 9.18746 23.7306 7.54059C23.7306 5.91881 24.6326 4.75953 26.2652 4.75953C27.9185 4.75953 28.5838 5.91237 28.5838 7.54059V7.959H24.6655C24.7943 8.87178 25.3853 9.46244 26.6524 9.46244C27.2095 9.4621 27.7622 9.36411 28.285 9.17186V10.0263C27.8443 10.262 27.1671 10.3471 26.6195 10.3471H26.6188ZM24.6543 7.17439H27.65C27.5964 6.17617 27.1414 5.60653 26.2225 5.60653C25.2449 5.60178 24.7509 6.23483 24.6546 7.16829L24.6543 7.17439ZM31.1193 10.2715C30.2384 10.2715 29.6807 9.85305 29.6807 8.86432V2.62305H30.6043V8.7548C30.6043 9.24306 30.9264 9.41023 31.3241 9.41023C31.4138 9.41176 31.5034 9.40813 31.5927 9.39938V10.2254C31.4372 10.2587 31.2783 10.273 31.1193 10.2681V10.2715ZM33.9211 10.2715C33.0402 10.2715 32.4824 9.85305 32.4824 8.86432V2.62305H33.406V8.7548C33.406 9.24306 33.7281 9.41023 34.1259 9.41023C34.2155 9.41176 34.3052 9.40813 34.3944 9.39938V10.2254C34.2389 10.2587 34.08 10.273 33.9211 10.2681V10.2715ZM34.9095 7.54432C34.9095 5.93373 35.8538 4.76326 37.4647 4.76326C39.0756 4.76326 39.9993 5.93305 39.9993 7.54432C39.9993 9.15558 39.0644 10.3508 37.4647 10.3508C35.865 10.3508 34.9095 9.1549 34.9095 7.54432ZM35.8114 7.54432C35.8114 8.56492 36.32 9.48821 37.4647 9.48821C38.6094 9.48821 39.0973 8.56458 39.0973 7.54432C39.0973 6.52406 38.6091 5.62247 37.4657 5.62247C36.3224 5.62247 35.8144 6.52439 35.8144 7.54432H35.8114Z" fill="white"/>
<path fill-rule="evenodd" clip-rule="evenodd" d="M11.3512 0H1.6216C1.19153 1.56721e-07 0.779066 0.170847 0.474957 0.474956C0.324133 0.62578 0.204545 0.804878 0.123044 1.00199C0.0415435 1.1991 -0.00026913 1.41036 1.30347e-06 1.62366V11.3533C1.30347e-06 11.7833 0.170848 12.1958 0.474957 12.4999C0.779066 12.804 1.19153 12.9749 1.6216 12.9749H11.3512C11.7798 12.9727 12.1902 12.8009 12.4925 12.497C12.7949 12.1931 12.9646 11.7819 12.9646 11.3533V1.62572C12.9646 1.19706 12.7949 0.785845 12.4925 0.481972C12.1902 0.178098 11.7798 0.00629163 11.3512 0.00411573V0ZM5.64268 9.82838C5.64051 10.0333 5.5576 10.229 5.41195 10.3731C5.26631 10.5172 5.06969 10.598 4.8648 10.598H2.46944C2.26384 10.5991 2.06617 10.5188 1.91964 10.3746C1.7731 10.2303 1.68963 10.034 1.68745 9.82838V2.46944C1.68718 2.36677 1.70724 2.26506 1.74646 2.17018C1.78569 2.07529 1.84331 1.98911 1.91601 1.91661C1.98871 1.8441 2.07504 1.78671 2.17002 1.74773C2.26501 1.70875 2.36677 1.68897 2.46944 1.68951H4.8648C5.07111 1.68951 5.26896 1.77146 5.41484 1.91734C5.56072 2.06322 5.64268 2.26108 5.64268 2.46738V9.82838ZM11.2874 6.58518C11.2874 6.79148 11.2055 6.98934 11.0596 7.13522C10.9137 7.2811 10.7158 7.36305 10.5095 7.36305H8.108C7.9017 7.36305 7.70384 7.2811 7.55796 7.13522C7.41208 6.98934 7.33013 6.79148 7.33013 6.58518V2.46944C7.32986 2.36712 7.34978 2.26574 7.38875 2.17113C7.42772 2.07652 7.48497 1.99052 7.55723 1.91807C7.62949 1.84562 7.71533 1.78814 7.80985 1.74892C7.90436 1.7097 8.00568 1.68951 8.108 1.68951H10.5095C10.7158 1.68951 10.9137 1.77146 11.0596 1.91734C11.2055 2.06322 11.2874 2.26108 11.2874 2.46738V6.58518Z" fill="url(#paint0_linear_64_3237)"/>
<defs>
<linearGradient id="paint0_linear_64_3237" x1="6.4864" y1="12.9769" x2="6.4864" y2="0.00205714" gradientUnits="userSpaceOnUse">
<stop offset="0.18" stop-color="#0052CC"/>
<stop offset="1" stop-color="#2684FF"/>
</linearGradient>
</defs>
</svg>
