<svg width="55" height="14" viewBox="0 0 55 14" fill="none" xmlns="http://www.w3.org/2000/svg">
<path d="M6.778 1.463H3.958V10.196H2.808V1.463H0V0.4265H6.778V1.463ZM11.227 3.2205L8.018 11.312C7.4465 12.7555 6.643 13.4785 5.6055 13.4785C5.3155 13.4785 5.0725 13.4495 4.877 13.3895V12.3875C5.117 12.469 5.338 12.5095 5.537 12.5095C6.101 12.5095 6.5235 12.1745 6.804 11.502L7.362 10.1805L4.637 3.2205H5.877L7.7645 8.588C7.788 8.656 7.8345 8.834 7.908 9.119H7.948L8.083 8.6015L10.065 3.2205H11.227ZM13.054 9.1885H13.027V13.405H11.909V3.22H13.027V4.4465H13.054C13.604 3.5205 14.4065 3.0565 15.4665 3.0565C16.3655 3.0565 17.0665 3.3685 17.5715 3.9925C18.0765 4.6165 18.3265 5.4535 18.3265 6.5035C18.3265 7.67 18.0435 8.606 17.4765 9.3075C16.9095 10.009 16.1315 10.3595 15.1475 10.3595C14.2475 10.3575 13.545 9.968 13.055 9.187L13.054 9.1885ZM13.027 6.3745V7.3495C13.027 7.927 13.215 8.4145 13.589 8.8185C13.963 9.2225 14.439 9.421 15.017 9.421C15.693 9.421 16.224 9.161 16.608 8.644C16.992 8.127 17.183 7.406 17.183 6.4855C17.183 5.7085 17.003 5.1005 16.6445 4.6605C16.286 4.2205 15.7945 4.0005 15.1875 4.0005C14.5385 4.0005 14.015 4.227 13.62 4.6785C13.225 5.13 13.027 5.693 13.027 6.3745ZM25.1045 6.987H20.1795C20.197 7.764 20.406 8.362 20.8055 8.785C21.205 9.208 21.7555 9.4185 22.4545 9.4185C23.2395 9.4185 23.962 9.1585 24.621 8.6415V9.69C24.0085 10.135 23.197 10.3585 22.189 10.3585C21.2025 10.3585 20.429 10.0425 19.8655 9.4085C19.302 8.7745 19.0155 7.8835 19.0155 6.7345C19.0155 5.6495 19.3235 4.7645 19.938 4.082C20.5525 3.3995 21.318 3.057 22.2305 3.057C23.143 3.057 23.8485 3.352 24.3485 3.942C24.8485 4.532 25.0985 5.352 25.0985 6.401V6.986L25.1045 6.987ZM23.9545 6.0395C23.9505 5.3895 23.7935 4.8925 23.4875 4.5345C23.1815 4.1765 22.755 3.996 22.2105 3.996C21.6835 3.996 21.2355 4.184 20.8675 4.562C20.4995 4.94 20.2675 5.432 20.1855 6.0405L23.9545 6.0395ZM26.0765 9.8005V8.452C26.218 8.587 26.3865 8.712 26.584 8.82C26.7815 8.928 26.984 9.0215 27.208 9.095C27.432 9.1685 27.646 9.2285 27.865 9.27C28.084 9.3115 28.29 9.332 28.475 9.332C29.1185 9.332 29.601 9.202 29.9185 8.9405C30.236 8.679 30.395 8.303 30.395 7.813C30.395 7.5495 30.3425 7.321 30.236 7.125C30.1234 6.92115 29.9743 6.73979 29.796 6.59C29.608 6.429 29.387 6.274 29.131 6.127L28.306 5.66L27.434 5.135C27.1766 4.96924 26.9404 4.7728 26.7305 4.55C26.5305 4.337 26.374 4.095 26.2595 3.825C26.145 3.555 26.0895 3.238 26.0895 2.875C26.0895 2.43 26.1785 2.0435 26.357 1.715C26.5355 1.3865 26.7695 1.115 27.062 0.901C27.3545 0.687 27.684 0.529 28.056 0.4245C28.4262 0.320151 28.8089 0.26732 29.1935 0.2675C30.075 0.2675 30.7165 0.384 31.1195 0.6145V1.901C30.5925 1.502 29.9195 1.3025 29.087 1.3025C28.8585 1.3025 28.6295 1.3295 28.401 1.38C28.1725 1.4305 27.969 1.5175 27.791 1.636C27.613 1.7545 27.4675 1.906 27.355 2.0935C27.2425 2.281 27.1865 2.506 27.1865 2.7755C27.1865 3.0255 27.229 3.2405 27.3145 3.4225C27.4 3.6045 27.5255 3.7695 27.6925 3.9205C27.8595 4.0715 28.0605 4.2155 28.301 4.3565L29.126 4.8195L30.036 5.3645C30.323 5.5545 30.5745 5.7655 30.79 5.998C31.0055 6.2305 31.1775 6.4865 31.3035 6.768C31.4295 7.0495 31.4935 7.373 31.4935 7.735C31.4935 8.215 31.4065 8.625 31.236 8.9575C31.0721 9.28084 30.8329 9.56003 30.5385 9.7715C30.246 9.9815 29.9085 10.1315 29.525 10.225C29.1415 10.3185 28.74 10.365 28.316 10.365C28.1745 10.365 28 10.3535 27.793 10.328L27.158 10.2195C26.941 10.171 26.738 10.113 26.544 10.043C26.349 9.968 26.195 9.893 26.077 9.803L26.0765 9.8005ZM37.4415 9.8755C36.905 10.197 36.269 10.3605 35.535 10.3605C34.541 10.3605 33.737 10.037 33.1265 9.3895C32.516 8.742 32.21 7.9035 32.21 6.8725C32.21 5.7235 32.54 4.801 33.198 4.1035C33.856 3.406 34.7345 3.057 35.835 3.057C36.4475 3.057 36.988 3.172 37.457 3.398V4.548C36.9395 4.183 36.3855 4.003 35.7945 4.003C35.0815 4.003 34.4965 4.259 34.041 4.7705C33.5855 5.282 33.357 5.9525 33.357 6.7835C33.357 7.601 33.572 8.2465 34.0005 8.7175C34.429 9.1885 35.0055 9.4265 35.727 9.4265C36.3355 9.4265 36.907 9.225 37.444 8.82V9.88L37.4415 9.8755ZM41.7645 4.3495C41.5695 4.2005 41.288 4.1245 40.9145 4.1245C40.438 4.1245 40.0385 4.3495 39.7195 4.7995C39.4005 5.2495 39.2395 5.8615 39.2395 6.6385V10.1935H38.1215V3.2185H39.2395V4.6565H39.2665C39.4255 4.1665 39.6675 3.7825 39.995 3.5095C40.3225 3.2365 40.6865 3.097 41.0915 3.097C41.3815 3.097 41.605 3.128 41.76 3.197L41.7645 4.3495ZM43.047 1.4495C42.847 1.4495 42.677 1.3815 42.5355 1.246C42.394 1.1105 42.3245 0.938 42.3245 0.7285C42.3245 0.519 42.3945 0.347 42.5355 0.2075C42.6765 0.0680005 42.8475 0 43.047 0C43.2505 0 43.425 0.0700005 43.568 0.2075C43.6382 0.274512 43.6937 0.355493 43.7307 0.445228C43.7677 0.534962 43.7855 0.631459 43.783 0.7285C43.783 0.9285 43.7115 1.0985 43.568 1.24C43.4245 1.3775 43.25 1.4495 43.047 1.4495ZM43.592 10.196H42.474V3.221H43.592V10.196ZM45.394 9.1885H45.367V13.405H44.249V3.22H45.367V4.4465H45.394C45.944 3.5205 46.7465 3.0565 47.8065 3.0565C48.7055 3.0565 49.4065 3.3685 49.9115 3.9925C50.4165 4.6165 50.6665 5.4535 50.6665 6.5035C50.6665 7.67 50.3835 8.606 49.8165 9.3075C49.2495 10.009 48.4665 10.3595 47.4875 10.3595C46.5875 10.3575 45.885 9.968 45.395 9.187L45.394 9.1885ZM45.367 6.375V7.35C45.367 7.9275 45.555 8.415 45.929 8.819C46.303 9.223 46.779 9.4215 47.357 9.4215C48.033 9.4215 48.564 9.1615 48.948 8.6445C49.332 8.1275 49.523 7.4065 49.523 6.486C49.523 5.709 49.343 5.101 48.9845 4.661C48.626 4.221 48.1345 4.001 47.5275 4.001C46.8785 4.001 46.355 4.2275 45.96 4.679C45.565 5.1305 45.367 5.694 45.367 6.3765V6.375ZM54.85 10.1285C54.5865 10.2735 54.24 10.3455 53.8075 10.3455C52.5875 10.3455 51.9745 9.6635 51.9745 8.3015V4.1745H50.7745V3.221H51.9745V1.518L53.0925 1.158V3.2215H54.85V4.175H53.0925V8.105C53.0925 8.572 53.1725 8.907 53.331 9.107C53.4895 9.307 53.7535 9.407 54.121 9.407C54.402 9.407 54.646 9.3295 54.8495 9.1745L54.85 10.1285Z" fill="#007ACC"/>
</svg>
